<?xml version="1.0" encoding="UTF-8"?>
<svg version="1.1" xmlns="http://www.w3.org/2000/svg" width="14843" height="5111">
<path d="M0 0 C1142.5820848 0 1142.5820848 0 1185.0625 3.75 C1186.0132843 3.83236908 1186.9640686 3.91473816 1187.94366455 3.99960327 C1281.77356802 12.20173261 1375.44462301 31.65147987 1533.49462891 103.55566406 C1536.44740259 105.25792572 1539.42872311 106.90337201 1542.41577148 108.54443359 C1551.56877639 113.59255817 1560.30773251 119.20095932 1569 125 C1569.84336914 125.55961426 1570.68673828 126.11922852 1571.55566406 126.69580078 C1591.17983332 139.75107536 1609.89513247 153.91341785 1628 169 C1628.88196045 169.73331543 1628.88196045 169.73331543 1629.78173828 170.48144531 C1644.06718038 182.40786008 1657.3919122 195.30547981 1670.5625 208.4375 C1671.33808258 209.20906433 1671.33808258 209.20906433 1672.1293335 209.99621582 C1677.97421978 215.81808251 1683.63598466 221.726767 1689 228 C1690.4132355 229.5448126 1691.82940409 231.08695325 1693.25 232.625 C1697.79722451 237.66464814 1701.9652243 242.94770864 1706.12109375 248.30859375 C1708.50147794 251.3767346 1710.93454165 254.39776987 1713.38427734 257.41064453 C1769.83786877 327.0669429 1807.53624135 411.60907935 1864 698 C1864.07831055 699.22550568 1864.07831055 699.22550568 1864.15820312 700.47576904 C1867.269608 749.72647525 1867.6632203 799.77060587 1864 849 C1863.93683594 849.85674316 1863.87367187 850.71348633 1863.80859375 851.59619141 C1857.18600307 940.33566018 1839.45727861 1027.9984765 1755.50585938 1220.42382812 C1754.0913064 1222.84379618 1752.69353881 1225.27280692 1751.296875 1227.703125 C1737.98357143 1250.60008463 1722.90869399 1272.83098602 1707 1294 C1706.57396484 1294.56944336 1706.14792969 1295.13888672 1705.70898438 1295.72558594 C1699.20217598 1304.39289758 1692.35808709 1312.78703443 1685.49267578 1321.17089844 C1684.17356017 1322.78732209 1682.86524325 1324.41254521 1681.55859375 1326.0390625 C1676.83882091 1331.89867315 1671.8990922 1337.47770132 1666.7734375 1342.98046875 C1664.66768295 1345.25051293 1662.62213236 1347.56632786 1660.58984375 1349.90234375 C1651.64914805 1360.15891776 1642.16466055 1369.92743143 1632.5625 1379.5625 C1631.82990967 1380.29968262 1631.09731934 1381.03686523 1630.3425293 1381.79638672 C1626.32206082 1385.80544767 1622.20510701 1389.63421253 1617.90454102 1393.34057617 C1614.92309715 1395.93830389 1612.06363859 1398.66201419 1609.1875 1401.375 C1604.21815447 1406.0251341 1599.14103828 1410.44966938 1593.82421875 1414.703125 C1591.18750089 1416.84750965 1588.62251801 1419.05212847 1586.06298828 1421.28686523 C1578.64589188 1427.75122164 1570.92396244 1433.68892407 1563.00146484 1439.51757812 C1561.06819784 1440.94948801 1559.15076613 1442.39986024 1557.23828125 1443.859375 C1540.67364626 1456.48342019 1523.57206387 1468.25950124 1505.8046875 1479.12817383 C1501.32605886 1481.87369185 1496.98279275 1484.54710671 1493 1488 C1506.58452125 1511.31808059 1520.19757 1534.61853435 1533.97338867 1557.82421875 C1538.90533533 1566.13781154 1543.80358379 1574.47062752 1548.6875 1582.8125 C1555.76073161 1594.89338034 1562.8686026 1606.95335464 1570 1619 C1577.56231509 1631.77456896 1585.09563789 1644.56567983 1592.59838867 1657.37530518 C1599.36925825 1668.93447032 1606.1757818 1680.47225418 1613 1692 C1620.56231509 1704.77456896 1628.09563789 1717.56567983 1635.59838867 1730.37530518 C1642.36925825 1741.93447032 1649.1757818 1753.47225418 1656 1765 C1663.56231509 1777.77456896 1671.09563789 1790.56567983 1678.59838867 1803.37530518 C1685.36925825 1814.93447032 1692.1757818 1826.47225418 1699 1838 C1706.56231509 1850.77456896 1714.09563789 1863.56567983 1721.59838867 1876.37530518 C1728.36925825 1887.93447032 1735.1757818 1899.47225418 1742 1911 C1749.56231509 1923.77456896 1757.09563789 1936.56567983 1764.59838867 1949.37530518 C1771.36925825 1960.93447032 1778.1757818 1972.47225418 1785 1984 C1792.56231509 1996.77456896 1800.09563789 2009.56567983 1807.59838867 2022.37530518 C1814.36925825 2033.93447032 1821.1757818 2045.47225418 1828 2057 C1835.56231509 2069.77456896 1843.09563789 2082.56567983 1850.59838867 2095.37530518 C1857.36925825 2106.93447032 1864.1757818 2118.47225418 1871 2130 C1878.56231509 2142.77456896 1886.09563789 2155.56567983 1893.59838867 2168.37530518 C1899.85729951 2179.06045915 1906.14498408 2189.72830933 1912.45263672 2200.38476562 C1914.01265651 2203.02139106 1915.5710646 2205.6589621 1917.12890625 2208.296875 C1925.73759216 2222.87354562 1934.36955954 2237.43613173 1943 2252 C1943 2317.01 1943 2382.02 1943 2449 C1749.62 2449 1556.24 2449 1357 2449 C1352.38 2440.75 1347.76 2432.5 1343 2424 C1338.14218035 2415.40537033 1338.14218035 2415.40537033 1333.28125 2406.8125 C1329.2420014 2399.6661371 1325.23731587 2392.50049857 1321.23046875 2385.3359375 C1317.33841963 2378.38030205 1313.42666228 2371.43614796 1309.5 2364.5 C1304.38265197 2355.46059691 1299.3006682 2346.40185704 1294.23046875 2337.3359375 C1290.33841963 2330.38030205 1286.42666228 2323.43614796 1282.5 2316.5 C1277.38265197 2307.46059691 1272.3006682 2298.40185704 1267.23046875 2289.3359375 C1263.33841963 2282.38030205 1259.42666228 2275.43614796 1255.5 2268.5 C1250.38265197 2259.46059691 1245.3006682 2250.40185704 1240.23046875 2241.3359375 C1236.33841963 2234.38030205 1232.42666228 2227.43614796 1228.5 2220.5 C1223.38265197 2211.46059691 1218.3006682 2202.40185704 1213.23046875 2193.3359375 C1209.33841963 2186.38030205 1205.42666228 2179.43614796 1201.5 2172.5 C1196.38265197 2163.46059691 1191.3006682 2154.40185704 1186.23046875 2145.3359375 C1182.33841963 2138.38030205 1178.42666228 2131.43614796 1174.5 2124.5 C1169.38265197 2115.46059691 1164.3006682 2106.40185704 1159.23046875 2097.3359375 C1155.33841963 2090.38030205 1151.42666228 2083.43614796 1147.5 2076.5 C1142.38265197 2067.46059691 1137.3006682 2058.40185704 1132.23046875 2049.3359375 C1128.33841963 2042.38030205 1124.42666228 2035.43614796 1120.5 2028.5 C1115.38265197 2019.46059691 1110.3006682 2010.40185704 1105.23046875 2001.3359375 C1101.33841963 1994.38030205 1097.42666228 1987.43614796 1093.5 1980.5 C1088.38265197 1971.46059691 1083.3006682 1962.40185704 1078.23046875 1953.3359375 C1074.33841963 1946.38030205 1070.42666228 1939.43614796 1066.5 1932.5 C1061.38265197 1923.46059691 1056.3006682 1914.40185704 1051.23046875 1905.3359375 C1047.33841963 1898.38030205 1043.42666228 1891.43614796 1039.5 1884.5 C1034.38265197 1875.46059691 1029.3006682 1866.40185704 1024.23046875 1857.3359375 C1020.33841963 1850.38030205 1016.42666228 1843.43614796 1012.5 1836.5 C1007.38265197 1827.46059691 1002.3006682 1818.40185704 997.23046875 1809.3359375 C993.33841963 1802.38030205 989.42666228 1795.43614796 985.5 1788.5 C980.38265197 1779.46059691 975.3006682 1770.40185704 970.23046875 1761.3359375 C966.33841963 1754.38030205 962.42666228 1747.43614796 958.5 1740.5 C953.38265197 1731.46059691 948.3006682 1722.40185704 943.23046875 1713.3359375 C939.33841963 1706.38030205 935.42666228 1699.43614796 931.5 1692.5 C926.38265197 1683.46059691 921.3006682 1674.40185704 916.23046875 1665.3359375 C912.33841963 1658.38030205 908.42666228 1651.43614796 904.5 1644.5 C899.38265197 1635.46059691 894.3006682 1626.40185704 889.23046875 1617.3359375 C884.81533575 1609.44547808 880.37178845 1601.5714562 875.91650391 1593.70361328 C871.10760402 1585.20529127 866.33798883 1576.68516605 861.58007812 1568.15820312 C860.74766602 1566.66836914 860.74766602 1566.66836914 859.8984375 1565.1484375 C859.41036621 1564.27364746 858.92229492 1563.39885742 858.41943359 1562.49755859 C856.98600844 1559.9753812 855.4925775 1557.48762917 854 1555 C771.17 1554.67 688.34 1554.34 603 1554 C603 1849.35 603 2144.7 603 2449 C404.01 2449 205.02 2449 0 2449 C0 1640.83 0 832.66 0 0 Z M603 526 C603 700.9 603 875.8 603 1056 C701.2884375 1056.0928125 701.2884375 1056.0928125 801.5625 1056.1875 C832.51075562 1056.22846802 832.51075562 1056.22846802 864.08422852 1056.27026367 C882.70085832 1056.28030165 882.70085832 1056.28030165 901.31748962 1056.28633118 C909.56080238 1056.28910775 917.80405284 1056.30002185 926.04734802 1056.31672668 C935.58983189 1056.33603517 945.13225686 1056.34445913 954.67476034 1056.34033485 C959.53984124 1056.33855352 964.40479113 1056.34105921 969.26984704 1056.35764539 C988.23896934 1056.41903724 1007.07826697 1056.09750222 1025.99717712 1054.62324524 C1026.78710753 1054.56197318 1027.57703794 1054.50070111 1028.39090563 1054.43757232 C1093.65024425 1049.24924462 1158.02827322 1031.08951855 1203 981 C1207.0000552 976.22820761 1210.57520753 971.19538399 1214 966 C1215.07121094 964.38544922 1215.07121094 964.38544922 1216.1640625 962.73828125 C1237.58605062 929.11651225 1248.09689677 890.23029195 1253 851 C1253.15098145 849.83710449 1253.30196289 848.67420898 1253.45751953 847.47607422 C1263.34241545 768.066344 1258.84920228 671.45088936 1207.94140625 605.83129883 C1168.5437296 556.30473331 1108.00341593 536.24213005 1047 529 C1022.4358898 526.25699253 998.0772215 525.56944574 973.37746038 525.65178181 C968.31291014 525.66514729 963.24836569 525.66048093 958.1838026 525.65832806 C948.4103142 525.656751 938.63691037 525.67042561 928.86344353 525.68983204 C917.52756623 525.71165527 906.19173782 525.71382836 894.85583496 525.71618652 C865.00804349 525.73185984 835.16027042 525.77374364 805.3125 525.8125 C705.1678125 525.9053125 705.1678125 525.9053125 603 526 Z " fill="#FFFFFF" transform="translate(4941,1200)"/>
<path d="M0 0 C198.99 0 397.98 0 603 0 C603 317.46 603 634.92 603 962 C674.28 962 745.56 962 819 962 C819.66 960.02 820.32 958.04 821 956 C821.80210884 954.3962726 822.65221411 952.81571426 823.546875 951.26171875 C824.30883179 949.92729736 824.30883179 949.92729736 825.08618164 948.56591797 C825.6352417 947.61604004 826.18430176 946.66616211 826.75 945.6875 C827.93158131 943.62143205 829.11254975 941.5550135 830.29296875 939.48828125 C830.90446777 938.4204541 831.5159668 937.35262695 832.14599609 936.25244141 C835.15208974 930.97891236 838.10527545 925.67603483 841.0625 920.375 C845.81483467 911.87140722 850.61724294 903.39866146 855.46337891 894.94824219 C859.93438979 887.14058989 864.32976155 879.29147932 868.71875 871.4375 C873.15530672 863.50045127 877.62276728 855.58138755 882.10302734 847.66894531 C886.11211227 840.58351621 890.09114615 833.48163321 894.0625 826.375 C898.8155239 817.87178802 903.61723862 809.39866899 908.46337891 800.94824219 C912.93438979 793.14058989 917.32976155 785.29147932 921.71875 777.4375 C926.15659058 769.49815443 930.62446553 761.57629665 935.10742188 753.66235352 C937.89780274 748.73237136 940.67587416 743.79599316 943.43359375 738.84765625 C949.21065634 728.48318761 955.04452492 718.16429901 961.0625 707.9375 C966.32431326 698.98926668 971.34091079 689.93325213 976.24853516 680.78662109 C980.18935677 673.45460932 984.26143113 666.209804 988.41503906 658.99658203 C992.29256703 652.25839578 996.09206771 645.47917822 999.875 638.6875 C1004.50668835 630.37804423 1009.2370989 622.13585378 1014.0625 613.9375 C1019.32440809 604.98932482 1024.34091301 595.933248 1029.24853516 586.78662109 C1033.18889207 579.4554739 1037.26170574 572.21226263 1041.4128418 564.9987793 C1045.30345765 558.23456489 1049.13167992 551.4372609 1052.9375 544.625 C1060.11597573 531.78039554 1067.35501024 518.97063925 1074.60449219 506.16601562 C1076.21595104 503.31926826 1077.82691824 500.47224369 1079.4375 497.625 C1079.97052734 496.68269531 1080.50355469 495.74039062 1081.05273438 494.76953125 C1085.07650454 487.64943854 1089.07245882 480.51403621 1093.0625 473.375 C1097.81558275 464.8718205 1102.61723825 456.39866964 1107.46337891 447.94824219 C1111.93438979 440.14058989 1116.32976155 432.29147932 1120.71875 424.4375 C1125.15659058 416.49815443 1129.62446553 408.57629665 1134.10742188 400.66235352 C1136.89780274 395.73237136 1139.67587416 390.79599316 1142.43359375 385.84765625 C1148.21065634 375.48318761 1154.04452492 365.16429901 1160.0625 354.9375 C1165.32431326 345.98926668 1170.34091079 336.93325213 1175.24853516 327.78662109 C1179.18935677 320.45460932 1183.26143113 313.209804 1187.41503906 305.99658203 C1191.29256703 299.25839578 1195.09206771 292.47917822 1198.875 285.6875 C1203.50668835 277.37804423 1208.2370989 269.13585378 1213.0625 260.9375 C1218.32440809 251.98932482 1223.34091301 242.933248 1228.24853516 233.78662109 C1232.18889207 226.4554739 1236.26170574 219.21226263 1240.4128418 211.9987793 C1244.30345765 205.23456489 1248.13167992 198.4372609 1251.9375 191.625 C1259.11597573 178.78039554 1266.35501024 165.97063925 1273.60449219 153.16601562 C1275.21595104 150.31926826 1276.82691824 147.47224369 1278.4375 144.625 C1278.97052734 143.68269531 1279.50355469 142.74039062 1280.05273438 141.76953125 C1284.07650454 134.64943854 1288.07245882 127.51403621 1292.0625 120.375 C1296.81558275 111.8718205 1301.61723825 103.39866964 1306.46337891 94.94824219 C1310.93438979 87.14058989 1315.32976155 79.29147932 1319.71875 71.4375 C1323.62616354 64.44709423 1327.55410722 57.46875212 1331.5 50.5 C1336.69027023 41.33317205 1341.84623542 32.14755246 1346.98046875 22.94921875 C1351.27172495 15.27012871 1355.63491744 7.63889448 1360 0 C1535.89 0 1711.78 0 1893 0 C1893 202 1893 202 1880 224 C1877.24686423 228.68571952 1874.4956733 233.37242399 1871.75 238.0625 C1871.03528812 239.28241891 1870.32052412 240.50230727 1869.60571289 241.72216797 C1866.325281 247.32077172 1863.04650506 252.92034367 1859.76873779 258.52050781 C1857.99213877 261.55561985 1856.21493275 264.59037615 1854.4375 267.625 C1853.91068634 268.52457428 1853.91068634 268.52457428 1853.37322998 269.44232178 C1848.23788829 278.20916579 1843.06581351 286.95335908 1837.875 295.6875 C1831.97970914 305.60967236 1826.18079523 315.58359142 1820.42871094 325.58935547 C1816.02138749 333.24937181 1811.55470255 340.87163055 1807.04736328 348.47314453 C1802.56786662 356.02933028 1798.12451257 363.60633455 1793.6875 371.1875 C1788.11581168 380.70707917 1782.51106372 390.20584622 1776.875 399.6875 C1770.97962437 409.60962127 1765.18079449 419.58359272 1759.42871094 429.58935547 C1755.02138749 437.24937181 1750.55470255 444.87163055 1746.04736328 452.47314453 C1741.56786662 460.02933028 1737.12451257 467.60633455 1732.6875 475.1875 C1727.11581168 484.70707917 1721.51106372 494.20584622 1715.875 503.6875 C1709.97962437 513.60962127 1704.18079449 523.58359272 1698.42871094 533.58935547 C1694.02138749 541.24937181 1689.55470255 548.87163055 1685.04736328 556.47314453 C1680.56786662 564.02933028 1676.12451257 571.60633455 1671.6875 579.1875 C1666.11581168 588.70707917 1660.51106372 598.20584622 1654.875 607.6875 C1648.97962437 617.60962127 1643.18079449 627.58359272 1637.42871094 637.58935547 C1633.02138749 645.24937181 1628.55470255 652.87163055 1624.04736328 660.47314453 C1619.56786662 668.02933028 1615.12451257 675.60633455 1610.6875 683.1875 C1605.11581168 692.70707917 1599.51106372 702.20584622 1593.875 711.6875 C1587.97962437 721.60962127 1582.18079449 731.58359272 1576.42871094 741.58935547 C1572.02138749 749.24937181 1567.55470255 756.87163055 1563.04736328 764.47314453 C1558.56786662 772.02933028 1554.12451257 779.60633455 1549.6875 787.1875 C1544.11581168 796.70707917 1538.51106372 806.20584622 1532.875 815.6875 C1526.97962437 825.60962127 1521.18079449 835.58359272 1515.42871094 845.58935547 C1511.02138749 853.24937181 1506.55470255 860.87163055 1502.04736328 868.47314453 C1497.56786662 876.02933028 1493.12451257 883.60633455 1488.6875 891.1875 C1483.11581168 900.70707917 1477.51106372 910.20584622 1471.875 919.6875 C1465.97962437 929.60962127 1460.18079449 939.58359272 1454.42871094 949.58935547 C1450.02138749 957.24937181 1445.55470255 964.87163055 1441.04736328 972.47314453 C1436.56786662 980.02933028 1432.12451257 987.60633455 1427.6875 995.1875 C1422.11581168 1004.70707917 1416.51106372 1014.20584622 1410.875 1023.6875 C1404.97962437 1033.60962127 1399.18079449 1043.58359272 1393.42871094 1053.58935547 C1389.02138749 1061.24937181 1384.55470255 1068.87163055 1380.04736328 1076.47314453 C1375.56786662 1084.02933028 1371.12451257 1091.60633455 1366.6875 1099.1875 C1361.11581168 1108.70707917 1355.51106372 1118.20584622 1349.875 1127.6875 C1343.99021215 1137.59180166 1338.16223436 1147.52707435 1332.47705078 1157.54760742 C1329.4540128 1162.85640659 1326.34972446 1168.06043242 1322.99609375 1173.16796875 C1322.36598389 1174.15176514 1321.73587402 1175.13556152 1321.08666992 1176.14916992 C1319.89728253 1177.99530531 1318.67635304 1179.82164848 1317.41918945 1181.62231445 C1315.83365957 1184.11629432 1314.69931779 1186.12695494 1314 1189 C1314.88056547 1192.84281526 1316.83189055 1195.74535231 1319 1199 C1320.03849095 1200.77072628 1321.07220805 1202.54425946 1322.1015625 1204.3203125 C1323.27260306 1206.25729139 1324.44728145 1208.19207418 1325.625 1210.125 C1326.96171671 1212.33546648 1328.29761357 1214.5464289 1329.6328125 1216.7578125 C1330.15763214 1217.62590546 1330.15763214 1217.62590546 1330.6930542 1218.51153564 C1334.59412394 1224.96986813 1338.44040755 1231.46052775 1342.28640747 1237.95175171 C1348.39164008 1248.25589577 1354.51579723 1258.54797517 1360.6875 1268.8125 C1367.43663921 1280.03974532 1374.11939001 1291.30555289 1380.79095459 1302.57902527 C1385.04322772 1309.76392835 1389.30143746 1316.94530647 1393.5625 1324.125 C1393.96477814 1324.80284546 1394.36705627 1325.48069092 1394.78152466 1326.17907715 C1400.66405868 1336.08896062 1406.57946655 1345.97857008 1412.5168457 1355.85571289 C1418.64357541 1366.05544197 1424.70424957 1376.29395234 1430.76376343 1386.53370667 C1434.73897886 1393.25040405 1438.72143459 1399.96280195 1442.70544434 1406.67428589 C1443.50922667 1408.02846361 1444.31286307 1409.38272796 1445.11633301 1410.73709106 C1449.22652045 1417.66537184 1453.34715915 1424.58702905 1457.49609375 1431.4921875 C1461.66973449 1438.43861685 1465.80890946 1445.40512896 1469.94052124 1452.37661743 C1476.1614664 1462.87222848 1482.40046211 1473.35631423 1488.6875 1483.8125 C1495.43664675 1495.03974078 1502.11939004 1506.30555293 1508.79095459 1517.57902527 C1513.04322772 1524.76392835 1517.30143746 1531.94530647 1521.5625 1539.125 C1521.96477814 1539.80284546 1522.36705627 1540.48069092 1522.78152466 1541.17907715 C1528.66405868 1551.08896062 1534.57946655 1560.97857008 1540.5168457 1570.85571289 C1546.65264527 1581.0705414 1552.72224519 1591.32424515 1558.79095459 1601.57902527 C1563.04322769 1608.76392831 1567.30141437 1615.94532021 1571.5625 1623.125 C1571.96577515 1623.80450714 1572.36905029 1624.48401428 1572.7845459 1625.18411255 C1578.00002352 1633.96997938 1583.2358949 1642.74315081 1588.5 1651.5 C1594.11272905 1660.83684344 1599.69066056 1670.19381158 1605.25 1679.5625 C1605.84645325 1680.56762131 1605.84645325 1680.56762131 1606.45495605 1681.5930481 C1609.71400335 1687.08563111 1612.97152687 1692.57911747 1616.22900391 1698.07263184 C1619.06863652 1702.86133634 1621.90886499 1707.6496867 1624.75 1712.4375 C1625.14696075 1713.10648315 1625.54392151 1713.77546631 1625.95291138 1714.46472168 C1631.77828039 1724.27996968 1637.6371609 1734.07454261 1643.51757812 1743.85693359 C1649.65313536 1754.07135404 1655.7224869 1764.32465359 1661.79095459 1774.57902527 C1666.04322772 1781.76392835 1670.30143746 1788.94530647 1674.5625 1796.125 C1674.96477814 1796.80284546 1675.36705627 1797.48069092 1675.78152466 1798.17907715 C1681.66405868 1808.08896062 1687.57946655 1817.97857008 1693.5168457 1827.85571289 C1699.65264527 1838.0705414 1705.72224519 1848.32424515 1711.79095459 1858.57902527 C1716.04322769 1865.76392831 1720.30141437 1872.94532021 1724.5625 1880.125 C1724.96577515 1880.80450714 1725.36905029 1881.48401428 1725.7845459 1882.18411255 C1731.00002352 1890.96997938 1736.2358949 1899.74315081 1741.5 1908.5 C1747.11272905 1917.83684344 1752.69066056 1927.19381158 1758.25 1936.5625 C1758.84645325 1937.56762131 1758.84645325 1937.56762131 1759.45495605 1938.5930481 C1762.71400335 1944.08563111 1765.97152687 1949.57911747 1769.22900391 1955.07263184 C1772.06863652 1959.86133634 1774.90886499 1964.6496867 1777.75 1969.4375 C1778.14696075 1970.10648315 1778.54392151 1970.77546631 1778.95291138 1971.46472168 C1784.77828039 1981.27996968 1790.6371609 1991.07454261 1796.51757812 2000.85693359 C1802.65313536 2011.07135404 1808.7224869 2021.32465359 1814.79095459 2031.57902527 C1819.04322772 2038.76392835 1823.30143746 2045.94530647 1827.5625 2053.125 C1827.96477814 2053.80284546 1828.36705627 2054.48069092 1828.78152466 2055.17907715 C1834.66405868 2065.08896062 1840.57946655 2074.97857008 1846.5168457 2084.85571289 C1852.64357541 2095.05544197 1858.70424957 2105.29395234 1864.76376343 2115.53370667 C1868.73897886 2122.25040405 1872.72143459 2128.96280195 1876.70544434 2135.67428589 C1877.50922667 2137.02846361 1878.31286307 2138.38272796 1879.11633301 2139.73709106 C1883.22652045 2146.66537184 1887.34715915 2153.58702905 1891.49609375 2160.4921875 C1895.66973449 2167.43861685 1899.80890946 2174.40512896 1903.94052124 2181.37661743 C1910.16147431 2191.87224183 1916.40232549 2202.35518605 1922.6875 2212.8125 C1975.4349436 2300.724906 1946 2267.38606657 1946 2449 C1757.24 2449 1568.48 2449 1374 2449 C1369.38 2440.75 1364.76 2432.5 1360 2424 C1356.00907889 2416.99465976 1352.01078826 2409.99393083 1348 2403 C1345.37322086 2398.41768354 1342.74791488 2393.83452916 1340.125 2389.25 C1339.61679718 2388.36178558 1339.61679718 2388.36178558 1339.09832764 2387.45562744 C1333.67883517 2377.97932957 1328.32650692 2368.46690774 1323.00390625 2358.93579102 C1317.40518837 2348.91724246 1311.70932157 2338.9557986 1306 2329 C1303.37322086 2324.41768354 1300.74791488 2319.83452916 1298.125 2315.25 C1297.61679718 2314.36178558 1297.61679718 2314.36178558 1297.09832764 2313.45562744 C1291.68095658 2303.98303898 1286.32995313 2294.47476131 1281.01049805 2284.94677734 C1276.87071365 2277.53737313 1272.67952558 2270.15905586 1268.45898438 2262.79541016 C1264.86520875 2256.52291869 1261.3014296 2250.23405354 1257.75 2243.9375 C1253.22228377 2235.91103176 1248.66247048 2227.90344897 1244.08276367 2219.90655518 C1238.59150157 2210.31787071 1233.13740809 2200.71010234 1227.75 2191.0625 C1221.57213944 2179.99969895 1215.30335281 2168.99165818 1209 2158 C1206.37322086 2153.41768354 1203.74791488 2148.83452916 1201.125 2144.25 C1200.61679718 2143.36178558 1200.61679718 2143.36178558 1200.09832764 2142.45562744 C1194.68095658 2132.98303898 1189.32995313 2123.47476131 1184.01049805 2113.94677734 C1179.87071365 2106.53737313 1175.67952558 2099.15905586 1171.45898438 2091.79541016 C1167.86520875 2085.52291869 1164.3014296 2079.23405354 1160.75 2072.9375 C1156.22228377 2064.91103176 1151.66247048 2056.90344897 1147.08276367 2048.90655518 C1141.59150157 2039.31787071 1136.13740809 2029.71010234 1130.75 2020.0625 C1124.57213944 2008.99969895 1118.30335281 1997.99165818 1112 1987 C1109.37322086 1982.41768354 1106.74791488 1977.83452916 1104.125 1973.25 C1103.78619812 1972.65785706 1103.44739624 1972.06571411 1103.09832764 1971.45562744 C1097.68095658 1961.98303898 1092.32995313 1952.47476131 1087.01049805 1942.94677734 C1082.87071365 1935.53737313 1078.67952558 1928.15905586 1074.45898438 1920.79541016 C1070.86520875 1914.52291869 1067.3014296 1908.23405354 1063.75 1901.9375 C1059.22228377 1893.91103176 1054.66247048 1885.90344897 1050.08276367 1877.90655518 C1044.59150157 1868.31787071 1039.13740809 1858.71010234 1033.75 1849.0625 C1027.57213944 1837.99969895 1021.30335281 1826.99165818 1015 1816 C1012.37322086 1811.41768354 1009.74791488 1806.83452916 1007.125 1802.25 C1006.78619812 1801.65785706 1006.44739624 1801.06571411 1006.09832764 1800.45562744 C1000.67883517 1790.97932957 995.32650692 1781.46690774 990.00390625 1771.93579102 C984.40518837 1761.91724246 978.70932157 1751.9557986 973 1742 C970.3732208 1737.41768343 967.7480647 1732.8344435 965.125 1728.25 C964.78553345 1727.65686005 964.44606689 1727.06372009 964.09631348 1726.4526062 C958.71749381 1717.05052004 953.4171369 1707.60665652 948.14453125 1698.14453125 C944.22291828 1691.12831213 940.20039423 1684.1778252 936.125 1677.25 C930.89264421 1668.34953249 925.84142641 1659.36283507 920.875 1650.3125 C914.89488416 1639.41582931 908.8166648 1628.5831959 902.61621094 1617.81005859 C899.44411518 1612.29482866 896.28384467 1606.77282646 893.125 1601.25 C892.78601685 1600.65749451 892.44703369 1600.06498901 892.09777832 1599.45452881 C886.6784534 1589.97860492 881.32630825 1580.46655199 876.00390625 1570.93579102 C870.40518837 1560.91724246 864.70932157 1550.9557986 859 1541 C856.7060428 1536.99827878 854.41334803 1532.99584025 852.12249756 1528.99234009 C851.18564095 1527.35592223 850.24740895 1525.72029202 849.30908203 1524.0847168 C842.45231646 1512.10378989 835.7459353 1500.04631304 829 1488 C754.42 1487.67 679.84 1487.34 603 1487 C603 1804.46 603 2121.92 603 2449 C404.01 2449 205.02 2449 0 2449 C0 1640.83 0 832.66 0 0 Z " fill="#FFFFFF" transform="translate(7171,1200)"/>
<path d="M0 0 C1.42312475 0.00394052 1.42312475 0.00394052 2.87499949 0.00796065 C4.37853865 0.00622988 4.37853865 0.00622988 5.91245234 0.00446415 C9.31621057 0.00178915 12.71992276 0.00632687 16.12367865 0.01075396 C18.57054844 0.01031844 21.01741818 0.00944388 23.46428767 0.00816479 C28.80742246 0.00638711 34.1505431 0.00774458 39.49367568 0.011803 C47.43880229 0.01782109 55.38392186 0.01814039 63.32905033 0.01726101 C76.69195675 0.01594494 90.05485823 0.01929674 103.4177632 0.02527842 C116.65506178 0.03118873 129.89235831 0.03504301 143.12965819 0.03613123 C143.95169309 0.03619997 144.77372799 0.03626871 145.62067304 0.03633953 C149.79511072 0.03667785 153.96954839 0.03697924 158.14398607 0.03726641 C187.73706676 0.03936868 217.33014477 0.0461112 246.92322394 0.05556902 C275.67843213 0.06474848 304.43363958 0.07183453 333.18884894 0.07607684 C334.07469257 0.07620836 334.9605362 0.07633989 335.87322358 0.0764754 C344.76896011 0.07779388 353.66469664 0.0790697 362.56043318 0.08031426 C380.68323013 0.0828507 398.80602704 0.08567195 416.92882392 0.08866534 C417.76214156 0.08880263 418.5954592 0.08893992 419.45402889 0.08908137 C475.13297069 0.09828719 530.81191096 0.11415373 586.4908509 0.13100848 C586.83380037 1.09280756 586.83380037 1.09280756 587.18367812 2.07403693 C589.38907129 8.25858909 591.59525736 14.44285784 593.80223426 20.62684503 C594.93554882 23.80249176 596.06851782 26.97826067 597.20096442 30.15421709 C603.52819589 47.89822434 609.91505332 65.6190775 616.3658509 83.31850848 C616.89968513 84.78426394 617.43348808 86.2500308 617.96724364 87.71581492 C618.73269497 89.81725163 619.49846137 91.91857363 620.26460883 94.01975664 C626.10700587 110.04322548 631.89665338 126.0855717 637.6783509 142.13100848 C638.146537 143.43021457 638.6147275 144.72941908 639.08292243 146.028622 C640.00966005 148.6002703 640.93639244 151.17192048 641.86311957 153.74357256 C642.20300627 154.68674428 642.20300627 154.68674428 642.54975936 155.64896998 C643.00443208 156.91068788 643.4590919 158.17241043 643.9137387 159.43413767 C648.36780596 171.79473627 652.83282468 184.15135434 657.3033509 196.50600848 C657.64671485 197.45494982 657.9900788 198.40389117 658.34384772 199.38158831 C659.71237917 203.16361405 661.08099234 206.9456102 662.44975898 210.72755083 C664.82769106 217.29788997 667.20451849 223.86862787 669.58069465 230.43960223 C677.37930508 252.00513447 685.18296097 273.5688341 692.9908509 295.13100848 C701.47589443 318.56320209 709.95520921 341.99746103 718.43030402 365.43325457 C721.59456393 374.18312927 724.75947594 382.9327681 727.92432258 391.6824306 C729.69652385 396.58194745 731.46868542 401.48147867 733.2408509 406.38100848 C733.94918404 408.33934188 734.65751737 410.29767521 735.3658509 412.25600848 C736.78251756 416.17267514 738.19918423 420.08934181 739.6158509 424.00600848 C739.96649604 424.97543887 740.31714118 425.94486925 740.67841193 426.94367632 C741.38654258 428.90144989 742.09467246 430.85922373 742.80280158 432.81699786 C744.57672971 437.72139788 746.35067125 442.62579305 748.12463996 447.5301784 C751.27521809 456.24043321 754.42571777 464.95071633 757.57568976 473.66119036 C765.70936331 496.15283768 773.84763889 518.6428127 781.9908509 541.13100848 C790.47589443 564.56320209 798.95520921 587.99746103 807.43030402 611.43325457 C810.59456393 620.18312927 813.75947594 628.9327681 816.92432258 637.6824306 C818.69652385 642.58194745 820.46868542 647.48147867 822.2408509 652.38100848 C822.94918404 654.33934188 823.65751737 656.29767521 824.3658509 658.25600848 C825.78251756 662.17267514 827.19918423 666.08934181 828.6158509 670.00600848 C828.96649604 670.97543887 829.31714118 671.94486925 829.67841193 672.94367632 C830.38654258 674.90144989 831.09467246 676.85922373 831.80280158 678.81699786 C833.57672971 683.72139788 835.35067125 688.62579305 837.12463996 693.5301784 C840.27521809 702.24043321 843.42571777 710.95071633 846.57568976 719.66119036 C854.70936331 742.15283768 862.84763889 764.6428127 870.9908509 787.13100848 C879.47589443 810.56320209 887.95520921 833.99746103 896.43030402 857.43325457 C899.59456393 866.18312927 902.75947594 874.9327681 905.92432258 883.6824306 C907.69652385 888.58194745 909.46868542 893.48147867 911.2408509 898.38100848 C911.94918404 900.33934188 912.65751737 902.29767521 913.3658509 904.25600848 C914.78251756 908.17267514 916.19918423 912.08934181 917.6158509 916.00600848 C917.96649604 916.97543887 918.31714118 917.94486925 918.67841193 918.94367632 C919.38654258 920.90144989 920.09467246 922.85922373 920.80280158 924.81699786 C922.57672971 929.72139788 924.35067125 934.62579305 926.12463996 939.5301784 C929.27521809 948.24043321 932.42571777 956.95071633 935.57568976 965.66119036 C943.70936331 988.15283768 951.84763889 1010.6428127 959.9908509 1033.13100848 C968.47589443 1056.56320209 976.95520921 1079.99746103 985.43030402 1103.43325457 C988.59456393 1112.18312927 991.75947594 1120.9327681 994.92432258 1129.6824306 C996.69652385 1134.58194745 998.46868542 1139.48147867 1000.2408509 1144.38100848 C1000.94918404 1146.33934188 1001.65751737 1148.29767521 1002.3658509 1150.25600848 C1003.78251756 1154.17267514 1005.19918423 1158.08934181 1006.6158509 1162.00600848 C1006.96649604 1162.97543887 1007.31714118 1163.94486925 1007.67841193 1164.94367632 C1008.38654258 1166.90144989 1009.09467246 1168.85922373 1009.80280158 1170.81699786 C1011.57672971 1175.72139788 1013.35067125 1180.62579305 1015.12463996 1185.5301784 C1018.27521809 1194.24043321 1021.42571777 1202.95071633 1024.57568976 1211.66119036 C1032.70936331 1234.15283768 1040.84763889 1256.6428127 1048.9908509 1279.13100848 C1057.47589443 1302.56320209 1065.95520921 1325.99746103 1074.43030402 1349.43325457 C1077.59456393 1358.18312927 1080.75947594 1366.9327681 1083.92432258 1375.6824306 C1085.69652385 1380.58194745 1087.46868542 1385.48147867 1089.2408509 1390.38100848 C1089.94918404 1392.33934188 1090.65751737 1394.29767521 1091.3658509 1396.25600848 C1092.78251756 1400.17267514 1094.19918423 1404.08934181 1095.6158509 1408.00600848 C1095.96649604 1408.97543887 1096.31714118 1409.94486925 1096.67841193 1410.94367632 C1097.38654258 1412.90144989 1098.09467246 1414.85922373 1098.80280158 1416.81699786 C1100.57672971 1421.72139788 1102.35067125 1426.62579305 1104.12463996 1431.5301784 C1107.27521809 1440.24043321 1110.42571777 1448.95071633 1113.57568976 1457.66119036 C1121.70936331 1480.15283768 1129.84763889 1502.6428127 1137.9908509 1525.13100848 C1146.47589443 1548.56320209 1154.95520921 1571.99746103 1163.43030402 1595.43325457 C1166.59456393 1604.18312927 1169.75947594 1612.9327681 1172.92432258 1621.6824306 C1174.69652385 1626.58194745 1176.46868542 1631.48147867 1178.2408509 1636.38100848 C1178.94918404 1638.33934188 1179.65751737 1640.29767521 1180.3658509 1642.25600848 C1187.44918423 1661.83934181 1194.53251756 1681.42267514 1201.6158509 1701.00600848 C1201.96649604 1701.97543887 1202.31714118 1702.94486925 1202.67841193 1703.94367632 C1203.38654258 1705.90144989 1204.09467246 1707.85922373 1204.80280158 1709.81699786 C1206.57672971 1714.72139788 1208.35067125 1719.62579305 1210.12463996 1724.5301784 C1213.27521809 1733.24043321 1216.42571777 1741.95071633 1219.57568976 1750.66119036 C1227.70936331 1773.15283768 1235.84763889 1795.6428127 1243.9908509 1818.13100848 C1252.47589443 1841.56320209 1260.95520921 1864.99746103 1269.43030402 1888.43325457 C1272.59456393 1897.18312927 1275.75947594 1905.9327681 1278.92432258 1914.6824306 C1280.69652385 1919.58194745 1282.46868542 1924.48147867 1284.2408509 1929.38100848 C1284.94918404 1931.33934188 1285.65751737 1933.29767521 1286.3658509 1935.25600848 C1287.78251756 1939.17267514 1289.19918423 1943.08934181 1290.6158509 1947.00600848 C1291.14181861 1948.46015406 1291.14181861 1948.46015406 1291.67841193 1949.94367632 C1292.38654258 1951.90144989 1293.09467246 1953.85922373 1293.80280158 1955.81699786 C1295.57672971 1960.72139788 1297.35067125 1965.62579305 1299.12463996 1970.5301784 C1302.27521809 1979.24043321 1305.42571777 1987.95071633 1308.57568976 1996.66119036 C1316.70936331 2019.15283768 1324.84763889 2041.6428127 1332.9908509 2064.13100848 C1341.47589443 2087.56320209 1349.95520921 2110.99746103 1358.43030402 2134.43325457 C1360.52839187 2140.234929 1362.62677551 2146.03649642 1364.7252259 2151.83803973 C1365.25339156 2153.29828066 1365.25339156 2153.29828066 1365.79222724 2154.78802142 C1367.55886626 2159.67226911 1369.32563905 2164.55646836 1371.09265754 2169.44057879 C1374.38406786 2178.53860988 1377.67421205 2187.63709282 1380.95993659 2196.73717913 C1382.49611717 2200.99151724 1384.03300932 2205.24559814 1385.56995246 2209.49966082 C1386.29572946 2211.50913592 1387.02116573 2213.51873414 1387.74622199 2215.52846941 C1388.75786393 2218.33250285 1389.77073 2221.13609157 1390.78381965 2223.93960223 C1391.07069144 2224.73575442 1391.35756324 2225.53190661 1391.65312812 2226.35218462 C1394.52986237 2234.30595609 1397.52024279 2242.20938685 1400.4908509 2250.13100848 C1400.4908509 2315.80100848 1400.4908509 2381.47100848 1400.4908509 2449.13100848 C1214.3708509 2449.13100848 1028.2508509 2449.13100848 836.4908509 2449.13100848 C829.04406469 2426.79064986 821.6001995 2404.45068362 814.24490973 2382.08019671 C813.48328 2379.7638858 812.72163144 2377.44758122 811.95971915 2375.13136324 C805.00720991 2353.99557329 798.11473398 2332.84302744 791.37183234 2311.63924822 C785.6867955 2293.7670575 779.85438706 2275.94518548 773.9908509 2258.13100848 C767.41910638 2238.16493463 760.91600876 2218.17990909 754.54212043 2198.14956316 C748.79790935 2180.10809323 742.91030056 2162.1155009 736.9908509 2144.13100848 C730.41917245 2124.16491234 723.91600905 2104.17991002 717.54212043 2084.14956316 C711.57913902 2065.42097743 705.45996118 2046.74546171 699.31446311 2028.07622942 C692.37840348 2007.00447705 685.52781246 1985.90806581 678.81506965 1964.76382098 C678.22148762 1962.89658007 677.62774109 1961.02939145 677.03381965 1959.16225848 C676.75065894 1958.27071062 676.46749823 1957.37916277 676.1757569 1956.46059832 C674.58035601 1951.46145365 672.94329273 1946.47856113 671.2667298 1941.50600848 C670.89606894 1940.40575335 670.52540809 1939.30549822 670.14351508 1938.17190203 C669.42307327 1936.04065611 668.69853987 1933.91078779 667.9694123 1931.78249773 C667.6456008 1930.82565081 667.32178931 1929.86880389 666.98816535 1928.8829616 C666.69875571 1928.03641009 666.40934607 1927.18985857 666.11116645 1926.31765398 C665.4908509 1924.13100848 665.4908509 1924.13100848 665.4908509 1921.13100848 C409.4108509 1921.13100848 153.3308509 1921.13100848 -110.5091491 1921.13100848 C-111.4991491 1924.76100848 -112.4891491 1928.39100848 -113.5091491 1932.13100848 C-114.10845123 1934.07074009 -114.72467882 1936.00549567 -115.37169793 1937.9298366 C-115.70667794 1938.93139788 -116.04165795 1939.93295916 -116.38678887 1940.96487078 C-116.74298806 1942.02000872 -117.09918725 1943.07514666 -117.46618035 1944.16225848 C-117.85045694 1945.30988665 -118.23473352 1946.45751482 -118.63065484 1947.63991961 C-119.85809771 1951.30459218 -121.08951612 1954.96791042 -122.3216491 1958.63100848 C-123.9138881 1963.36979146 -125.50383183 1968.10933503 -127.09118035 1972.84975848 C-127.29937024 1973.47131319 -127.50756013 1974.09286791 -127.7220588 1974.73325762 C-131.26773461 1985.32728127 -134.7343759 1995.94607806 -138.18156388 2006.57250628 C-143.7277834 2023.66885271 -149.34945095 2040.73852523 -155.0403991 2057.78725848 C-155.40571426 2058.88175814 -155.77102941 2059.9762578 -156.14741471 2061.10392413 C-159.14199786 2070.07379009 -162.140538 2079.04233227 -165.13921502 2088.01083025 C-167.75393531 2095.83153056 -170.3671341 2103.65273684 -172.9778991 2111.47475848 C-173.52728898 2113.12064707 -173.52728898 2113.12064707 -174.08777764 2114.79978594 C-178.95577503 2129.39072662 -183.76580176 2143.99909547 -188.5091491 2158.63100848 C-193.61284677 2174.37450245 -198.80027432 2190.08864084 -204.0403991 2205.78725848 C-204.40637704 2206.88375216 -204.77235498 2207.98024584 -205.14942315 2209.10996661 C-208.14333655 2218.0778185 -211.14121105 2227.04434525 -214.13921502 2236.01083025 C-216.75393531 2243.83153056 -219.36713496 2251.65273655 -221.9778991 2259.47475848 C-222.3445329 2260.57313918 -222.7111667 2261.67151987 -223.08891061 2262.80318484 C-227.93307416 2277.32270363 -232.71956 2291.85950847 -237.4388366 2306.42007098 C-242.74988997 2322.8062171 -248.1572312 2339.15890465 -253.6107116 2355.49819598 C-254.00010163 2356.66492594 -254.38949166 2357.83165591 -254.79068139 2359.03374133 C-257.5696691 2367.35855524 -260.35164062 2375.68237082 -263.1341491 2384.00600848 C-265.95640096 2392.44892035 -268.77755875 2400.89219511 -271.5962272 2409.33630404 C-272.70499479 2412.65622239 -273.8155884 2415.9755259 -274.92629388 2419.29479632 C-275.60846089 2421.33766415 -276.29054345 2423.38056019 -276.97252801 2425.42348894 C-277.27277887 2426.31907519 -277.57302972 2427.21466143 -277.88237908 2428.13738665 C-280.2056607 2435.10666316 -282.34680806 2442.10340007 -284.5091491 2449.13100848 C-460.7291491 2449.13100848 -636.9491491 2449.13100848 -818.5091491 2449.13100848 C-818.5091491 2252.13100848 -818.5091491 2252.13100848 -801.5091491 2205.13100848 C-797.64809171 2194.42054398 -797.64809171 2194.42054398 -793.79308465 2183.70791277 C-791.96638699 2178.62722339 -790.1381145 2173.54710062 -788.30993035 2168.46694598 C-787.73385537 2166.86608141 -787.73385537 2166.86608141 -787.14614251 2165.23287615 C-782.50876601 2152.34817355 -777.86131866 2139.46710303 -773.21436074 2126.5858539 C-766.22348578 2107.20716075 -759.23612052 2087.82721294 -752.2591491 2068.44350848 C-751.71091485 2066.92039553 -751.71091485 2066.92039553 -751.15160516 2065.36651263 C-748.6038549 2058.28810657 -746.05645686 2051.20957379 -743.5091491 2044.13100848 C-740.59273369 2036.02675137 -737.67614651 2027.92255613 -734.7591491 2019.81850848 C-734.39398187 2018.80398608 -734.02881463 2017.78946368 -733.65258172 2016.74419817 C-726.80799038 1997.72942203 -719.9519064 1978.71879706 -713.09423211 1959.70873675 C-706.89304128 1942.51837691 -700.69706013 1925.32615401 -694.5091491 1908.13100848 C-688.08591993 1890.28195406 -681.65364865 1872.43617365 -675.21659234 1854.59210238 C-668.22516396 1835.2112576 -661.23686961 1815.82929408 -654.2591491 1796.44350848 C-653.8936596 1795.42809985 -653.5281701 1794.41269122 -653.15160516 1793.36651263 C-650.6038549 1786.28810657 -648.05645686 1779.20957379 -645.5091491 1772.13100848 C-642.59273369 1764.02675137 -639.67614651 1755.92255613 -636.7591491 1747.81850848 C-636.39398187 1746.80398608 -636.02881463 1745.78946368 -635.65258172 1744.74419817 C-629.04395483 1726.38494857 -622.42462984 1708.02956378 -615.80349115 1689.67482409 C-609.28324497 1671.59968539 -602.7667551 1653.52320292 -596.2591491 1635.44350848 C-595.8936596 1634.42809985 -595.5281701 1633.41269122 -595.15160516 1632.36651263 C-592.6038549 1625.28810657 -590.05645686 1618.20957379 -587.5091491 1611.13100848 C-584.59273369 1603.02675137 -581.67614651 1594.92255613 -578.7591491 1586.81850848 C-578.39398187 1585.80398608 -578.02881463 1584.78946368 -577.65258172 1583.74419817 C-571.04395483 1565.38494857 -564.42462984 1547.02956378 -557.80349115 1528.67482409 C-551.28324497 1510.59968539 -544.7667551 1492.52320292 -538.2591491 1474.44350848 C-537.8936596 1473.42809985 -537.5281701 1472.41269122 -537.15160516 1471.36651263 C-534.6038549 1464.28810657 -532.05645686 1457.20957379 -529.5091491 1450.13100848 C-526.59273369 1442.02675137 -523.67614651 1433.92255613 -520.7591491 1425.81850848 C-520.39398187 1424.80398608 -520.02881463 1423.78946368 -519.65258172 1422.74419817 C-513.04395483 1404.38494857 -506.42462984 1386.02956378 -499.80349115 1367.67482409 C-493.28324497 1349.59968539 -486.7667551 1331.52320292 -480.2591491 1313.44350848 C-479.8936596 1312.42809985 -479.5281701 1311.41269122 -479.15160516 1310.36651263 C-476.6038549 1303.28810657 -474.05645686 1296.20957379 -471.5091491 1289.13100848 C-468.59273369 1281.02675137 -465.67614651 1272.92255613 -462.7591491 1264.81850848 C-462.39398187 1263.80398608 -462.02881463 1262.78946368 -461.65258172 1261.74419817 C-455.04395483 1243.38494857 -448.42462984 1225.02956378 -441.80349115 1206.67482409 C-435.28324497 1188.59968539 -428.7667551 1170.52320292 -422.2591491 1152.44350848 C-421.8936596 1151.42809985 -421.5281701 1150.41269122 -421.15160516 1149.36651263 C-418.6038549 1142.28810657 -416.05645686 1135.20957379 -413.5091491 1128.13100848 C-410.59273369 1120.02675137 -407.67614651 1111.92255613 -404.7591491 1103.81850848 C-404.39398187 1102.80398608 -404.02881463 1101.78946368 -403.65258172 1100.74419817 C-397.04395483 1082.38494857 -390.42462984 1064.02956378 -383.80349115 1045.67482409 C-377.28324497 1027.59968539 -370.7667551 1009.52320292 -364.2591491 991.44350848 C-363.8936596 990.42809985 -363.5281701 989.41269122 -363.15160516 988.36651263 C-360.6038549 981.28810657 -358.05645686 974.20957379 -355.5091491 967.13100848 C-352.59273369 959.02675137 -349.67614651 950.92255613 -346.7591491 942.81850848 C-346.39398187 941.80398608 -346.02881463 940.78946368 -345.65258172 939.74419817 C-338.80799038 920.72942203 -331.9519064 901.71879706 -325.09423211 882.70873675 C-318.89304128 865.51837691 -312.69706013 848.32615401 -306.5091491 831.13100848 C-300.08591993 813.28195406 -293.65364865 795.43617365 -287.21659234 777.59210238 C-280.22516396 758.2112576 -273.23686961 738.82929408 -266.2591491 719.44350848 C-265.8936596 718.42809985 -265.5281701 717.41269122 -265.15160516 716.36651263 C-262.6038549 709.28810657 -260.05645686 702.20957379 -257.5091491 695.13100848 C-254.59273369 687.02675137 -251.67614651 678.92255613 -248.7591491 670.81850848 C-248.21139825 669.29672488 -248.21139825 669.29672488 -247.65258172 667.74419817 C-241.04395483 649.38494857 -234.42462984 631.02956378 -227.80349115 612.67482409 C-221.28324497 594.59968539 -214.7667551 576.52320292 -208.2591491 558.44350848 C-207.8936596 557.42809985 -207.5281701 556.41269122 -207.15160516 555.36651263 C-204.6038549 548.28810657 -202.05645686 541.20957379 -199.5091491 534.13100848 C-196.59273369 526.02675137 -193.67614651 517.92255613 -190.7591491 509.81850848 C-190.39398187 508.80398608 -190.02881463 507.78946368 -189.65258172 506.74419817 C-183.04395483 488.38494857 -176.42462984 470.02956378 -169.80349115 451.67482409 C-163.28324497 433.59968539 -156.7667551 415.52320292 -150.2591491 397.44350848 C-149.8936596 396.42809985 -149.5281701 395.41269122 -149.15160516 394.36651263 C-146.6038549 387.28810657 -144.05645686 380.20957379 -141.5091491 373.13100848 C-138.59273369 365.02675137 -135.67614651 356.92255613 -132.7591491 348.81850848 C-132.39398187 347.80398608 -132.02881463 346.78946368 -131.65258172 345.74419817 C-125.04395483 327.38494857 -118.42462984 309.02956378 -111.80349115 290.67482409 C-105.28324497 272.59968539 -98.7667551 254.52320292 -92.2591491 236.44350848 C-91.8936596 235.42809985 -91.5281701 234.41269122 -91.15160516 233.36651263 C-88.6038549 226.28810657 -86.05645686 219.20957379 -83.5091491 212.13100848 C-80.59273369 204.02675137 -77.67614651 195.92255613 -74.7591491 187.81850848 C-74.21139825 186.29672488 -74.21139825 186.29672488 -73.65258172 184.74419817 C-67.04395483 166.38494857 -60.42462984 148.02956378 -53.80349115 129.67482409 C-47.65084265 112.61872345 -41.50090785 95.56165314 -35.35994866 78.50133929 C-34.2713796 75.47748267 -33.18241735 72.45376788 -32.09337762 69.43008074 C-28.62742444 59.80529698 -25.1664152 50.1787805 -21.7160888 40.54838213 C-20.03375921 35.8535964 -18.34936998 31.15955088 -16.66478875 26.46557269 C-15.85735244 24.21384974 -15.05094372 21.96175803 -14.2455993 19.70928606 C-13.13674509 16.60806654 -12.02449992 13.50808327 -10.91149285 10.40835223 C-10.58013833 9.47874682 -10.24878381 8.54914141 -9.90738824 7.59136614 C-9.60444345 6.74971911 -9.30149865 5.90807207 -8.98937371 5.04092059 C-8.72611795 4.30570681 -8.46286218 3.57049303 -8.19162896 2.81300005 C-6.62187598 -1.05570209 -3.76397441 0.00992504 0 0 Z M280.4908509 751.13100848 C269.24215188 784.24950112 258.04032622 817.38295644 246.9908509 850.56850848 C246.63679175 851.631749 246.63679175 851.631749 246.2755799 852.71646914 C242.6779701 863.52041764 239.08404828 874.32559185 235.4908509 885.13100848 C231.63868171 896.71500706 227.78524919 908.29858349 223.9283509 919.88100848 C223.69511556 920.5815038 223.46188022 921.28199911 223.22157714 922.00372157 C217.75818777 938.41107892 212.26771751 954.8079556 206.6471009 971.16225848 C200.2814119 989.68617729 194.0854256 1008.26603957 187.8971009 1026.84975848 C187.63716975 1027.63026064 187.37723861 1028.41076281 187.10943076 1029.21491656 C183.067276 1041.35273955 179.0287284 1053.49176203 174.9908509 1065.63100848 C170.690701 1078.55873582 166.38941581 1091.48608369 162.0846009 1104.41225848 C161.69318506 1105.58768993 161.69318506 1105.58768993 161.29386184 1106.78686747 C155.16778111 1125.18232036 149.01420284 1143.56654928 142.71005866 1161.90191302 C136.65924975 1179.51329982 130.78044832 1197.18192034 124.8971009 1214.84975848 C124.63700295 1215.63076104 124.37690501 1216.4117636 124.10892531 1217.2164329 C120.06693811 1229.35375014 116.02856023 1241.49226758 111.9908509 1253.63100848 C107.69070101 1266.55873579 103.3894843 1279.48610652 99.0846009 1292.41225848 C98.82603198 1293.18871769 98.56746307 1293.9651769 98.30105874 1294.76516518 C90.81028521 1317.2574279 83.24989347 1339.72371496 75.54469344 1362.14359507 C72.32723971 1371.50913137 69.16365002 1380.89275104 66.02600715 1390.28530535 C65.39624451 1392.16783614 64.76426183 1394.04962518 64.13049933 1395.93081316 C63.17595933 1398.76433931 62.22720544 1401.59973981 61.2799134 1404.43569598 C60.99572547 1405.27591296 60.71153754 1406.11612994 60.41873786 1406.98180804 C58.93124638 1411.46002772 58.93124638 1411.46002772 58.4908509 1416.13100848 C203.0308509 1416.13100848 347.5708509 1416.13100848 496.4908509 1416.13100848 C495.29682061 1410.75787218 494.20396008 1405.89528169 492.49817511 1400.75234637 C492.10886817 1399.57100619 491.71956122 1398.38966601 491.3184571 1397.17252764 C490.89418707 1395.89956127 490.46987973 1394.62660733 490.0455384 1393.35366473 C489.59890537 1392.00260724 489.15271883 1390.6514021 488.70694587 1389.3000606 C487.75845211 1386.42694975 486.8075325 1383.55465887 485.85462043 1380.68301043 C483.57922979 1373.82478814 481.31747536 1366.96206621 479.05607459 1360.0992206 C478.54806702 1358.55753216 478.03992338 1357.01588854 477.53164527 1355.47428927 C473.1067066 1342.051108 468.77062643 1328.60120987 464.4908509 1315.13100848 C458.27777896 1295.59085056 451.9049033 1276.10584541 445.4908509 1256.63100848 C438.73167366 1236.10819373 432.03547741 1215.56880833 425.48499152 1194.97817644 C419.76060436 1176.99356833 413.89152388 1159.05830614 407.9908509 1141.13100848 C401.41915042 1121.16491977 394.91600895 1101.17990971 388.54212043 1081.14956316 C382.5770956 1062.41455943 376.45525675 1043.73284872 370.30821463 1025.05703768 C364.31111678 1006.83554441 358.36890523 988.59897508 352.5533509 970.31850848 C346.31724759 950.7165614 339.92546627 931.16842537 333.4908509 911.63100848 C326.73578323 891.12060255 320.04212865 870.59408962 313.49707648 850.01543841 C306.85507779 829.14198202 300.02457072 808.33141169 293.16802356 787.52765307 C292.28979481 784.86254587 291.41240261 782.19716356 290.53504607 779.53176913 C289.9368483 777.71595035 289.33714919 775.90062637 288.73738715 774.08532366 C286.22702712 766.46195721 283.82364867 758.81055144 281.4908509 751.13100848 C281.1608509 751.13100848 280.8308509 751.13100848 280.4908509 751.13100848 Z " fill="#FFFFFF" transform="translate(3281.5091491043568,1199.868991523981)"/>
<path d="M0 0 C190.74 0 381.48 0 578 0 C593.88256502 46.51322612 593.88256502 46.51322612 600.77340698 67.67202759 C602.9788491 74.44243255 605.19402657 81.20964951 607.41015625 87.9765625 C607.63822527 88.67317049 607.86629429 89.36977848 608.10127449 90.0874958 C613.48206307 106.51739422 618.95730612 122.9155498 624.4375 139.3125 C630.58328153 157.70319509 636.69437353 176.10305633 642.66012573 194.5531311 C648.65372683 213.07527112 654.83184261 231.53546887 661 250 C673.79305588 288.29640368 673.79305588 288.29640368 679.9375 307.3125 C686.32666548 327.08558527 692.9167222 346.79092936 699.5 366.5 C706.32432908 386.93074422 713.14039508 407.36187639 719.76220703 427.859375 C726.15155821 447.62075426 732.75810559 467.3098698 739.33787155 487.00842667 C745.90515454 506.6704995 752.45581025 526.3356696 758.82958984 546.06152344 C764.76438473 564.41494198 770.88846151 582.7048929 777 601 C789.79367331 639.29831454 789.79367331 639.29831454 795.9375 658.3125 C802.32666546 678.08558523 808.91671925 697.79093037 815.5 717.5 C822.34683593 737.99810286 829.18476453 758.49682537 835.82958984 779.06152344 C841.76438473 797.41494198 847.88846151 815.7048929 854 834 C866.79367331 872.29831454 866.79367331 872.29831454 872.9375 891.3125 C879.32666546 911.08558523 885.91671925 930.79093037 892.5 950.5 C899.34683593 970.99810286 906.18476453 991.49682537 912.82958984 1012.06152344 C918.76438473 1030.41494198 924.88846151 1048.7048929 931 1067 C943.79367331 1105.29831454 943.79367331 1105.29831454 949.9375 1124.3125 C956.32666546 1144.08558523 962.91671925 1163.79093037 969.5 1183.5 C976.34683593 1203.99810286 983.18476453 1224.49682537 989.82958984 1245.06152344 C995.76438473 1263.41494198 1001.88846151 1281.7048929 1008 1300 C1020.79367331 1338.29831454 1020.79367331 1338.29831454 1026.9375 1357.3125 C1033.32666546 1377.08558523 1039.91671925 1396.79093037 1046.5 1416.5 C1053.34683593 1436.99810286 1060.18476453 1457.49682537 1066.82958984 1478.06152344 C1073.02168202 1497.2106367 1079.41832557 1516.29140416 1085.79494095 1535.37963486 C1093.60538826 1558.76100317 1101.33193722 1582.16658523 1108.92581177 1605.61933899 C1112.21607058 1615.76873577 1115.59753846 1625.88771523 1119 1636 C1121.99593624 1628.80921987 1124.54526794 1621.53984399 1126.9140625 1614.12109375 C1127.2807756 1612.98193512 1127.64748871 1611.84277649 1128.02531433 1610.6690979 C1129.02077761 1607.57349423 1130.01294229 1604.47685889 1131.00342178 1601.37965775 C1131.84545204 1598.74868462 1132.69027868 1596.11861248 1133.53498554 1593.48849773 C1139.72682507 1574.20595278 1145.8319202 1554.89645115 1151.90875244 1535.57736206 C1158.39812515 1514.95519216 1165.03352357 1494.38265262 1171.70764542 1473.81975174 C1178.22464581 1453.73974211 1184.67138091 1433.64040263 1191 1413.5 C1197.55768923 1392.63059713 1204.24665935 1371.80666082 1211 1351 C1218.14739671 1328.97907517 1225.20936754 1306.93491022 1232.15136719 1284.84814453 C1238.38995028 1265.00699286 1244.7595584 1245.21056588 1251.17246246 1225.4253006 C1257.50988363 1205.87145957 1263.77409301 1186.29708411 1269.9375 1166.6875 C1276.74589351 1145.02637176 1283.69832453 1123.41510593 1290.70804977 1101.81853867 C1297.22495025 1081.73894525 1303.67150894 1061.63999521 1310 1041.5 C1316.55768923 1020.63059713 1323.24665935 999.80666082 1330 979 C1337.14739671 956.97907517 1344.20936754 934.93491022 1351.15136719 912.84814453 C1357.38995028 893.00699286 1363.7595584 873.21056588 1370.17246246 853.4253006 C1376.50988363 833.87145957 1382.77409301 814.29708411 1388.9375 794.6875 C1395.74589351 773.02637176 1402.69832453 751.41510593 1409.70804977 729.81853867 C1416.22495025 709.73894525 1422.67150894 689.63999521 1429 669.5 C1435.55768923 648.63059713 1442.24665935 627.80666082 1449 607 C1456.14739671 584.97907517 1463.20936754 562.93491022 1470.15136719 540.84814453 C1476.38995028 521.00699286 1482.7595584 501.21056588 1489.17246246 481.4253006 C1495.50988363 461.87145957 1501.77409301 442.29708411 1507.9375 422.6875 C1514.74575282 401.02681936 1521.69812834 379.41603213 1528.70760345 357.81987762 C1535.61860347 336.5255569 1542.4384827 315.20595415 1549.15136719 293.84814453 C1555.38995028 274.00699286 1561.7595584 254.21056588 1568.17246246 234.4253006 C1574.50988363 214.87145957 1580.77409301 195.29708411 1586.9375 175.6875 C1593.51664325 154.75573901 1600.22647918 133.86944084 1607 113 C1615.80942374 85.85746284 1624.48341541 58.67559194 1633.02415466 31.44717407 C1636.318438 20.95472965 1639.66543064 10.48007512 1643 0 C1831.76 0 2020.52 0 2215 0 C2215 202.50052083 2215 202.50052083 2184.34375 287.00390625 C2179.71613509 299.76130918 2175.13729245 312.53607775 2170.5625 325.3125 C2164.39045115 342.54725936 2158.2052408 359.77716244 2152 377 C2145.81737877 394.16096828 2139.65208632 411.32806189 2133.5 428.5 C2127.42996453 445.44230445 2121.3487682 462.38051673 2115.25 479.3125 C2108.34744114 498.47675205 2101.45163067 517.64341739 2094.5625 536.8125 C2094.31861164 537.49110455 2094.07472328 538.16970909 2093.82344437 538.86887741 C2086.54428568 559.1229781 2079.27627994 579.38105154 2072.01687622 599.64224243 C2065.98850976 616.46662259 2059.9412923 633.28414099 2053.88388062 650.0980835 C2048.07377075 666.22652251 2042.28180272 682.36139289 2036.5 698.5 C2029.97823689 716.70404078 2023.43934942 734.9018146 2016.88525391 753.09423828 C2011.07468882 769.22396009 2005.28233121 785.36013644 1999.5 801.5 C1993.42996453 818.44230445 1987.3487682 835.38051673 1981.25 852.3125 C1974.34744114 871.47675205 1967.45163067 890.64341739 1960.5625 909.8125 C1960.31861164 910.49110455 1960.07472328 911.16970909 1959.82344437 911.86887741 C1952.54428568 932.1229781 1945.27627994 952.38105154 1938.01687622 972.64224243 C1931.98850976 989.46662259 1925.9412923 1006.28414099 1919.88388062 1023.0980835 C1914.0737707 1039.22652265 1908.28187219 1055.3614177 1902.5 1071.5 C1896.42996453 1088.44230445 1890.3487682 1105.38051673 1884.25 1122.3125 C1877.34744114 1141.47675205 1870.45163067 1160.64341739 1863.5625 1179.8125 C1863.31861164 1180.49110455 1863.07472328 1181.16970909 1862.82344437 1181.86887741 C1855.54428568 1202.1229781 1848.27627994 1222.38105154 1841.01687622 1242.64224243 C1834.98850976 1259.46662259 1828.9412923 1276.28414099 1822.88388062 1293.0980835 C1817.07377075 1309.22652251 1811.28180272 1325.36139289 1805.5 1341.5 C1798.97823689 1359.70404078 1792.43934942 1377.9018146 1785.88525391 1396.09423828 C1780.07468882 1412.22396009 1774.28233121 1428.36013644 1768.5 1444.5 C1762.42996453 1461.44230445 1756.3487682 1478.38051673 1750.25 1495.3125 C1743.34744114 1514.47675205 1736.45163067 1533.64341739 1729.5625 1552.8125 C1729.31861164 1553.49110455 1729.07472328 1554.16970909 1728.82344437 1554.86887741 C1721.54428568 1575.1229781 1714.27627994 1595.38105154 1707.01687622 1615.64224243 C1700.98850976 1632.46662259 1694.9412923 1649.28414099 1688.88388062 1666.0980835 C1683.0737707 1682.22652265 1677.28187219 1698.3614177 1671.5 1714.5 C1665.42996453 1731.44230445 1659.3487682 1748.38051673 1653.25 1765.3125 C1646.34744114 1784.47675205 1639.45163067 1803.64341739 1632.5625 1822.8125 C1632.31861164 1823.49110455 1632.07472328 1824.16970909 1631.82344437 1824.86887741 C1624.54428568 1845.1229781 1617.27627994 1865.38105154 1610.01687622 1885.64224243 C1603.98850976 1902.46662259 1597.9412923 1919.28414099 1591.88388062 1936.0980835 C1586.07377075 1952.22652251 1580.28180272 1968.36139289 1574.5 1984.5 C1567.97823689 2002.70404078 1561.43934942 2020.9018146 1554.88525391 2039.09423828 C1549.07468882 2055.22396009 1543.28233121 2071.36013644 1537.5 2087.5 C1531.42996453 2104.44230445 1525.3487682 2121.38051673 1519.25 2138.3125 C1512.34744114 2157.47675205 1505.45163067 2176.64341739 1498.5625 2195.8125 C1498.31861164 2196.49110455 1498.07472328 2197.16970909 1497.82344437 2197.86887741 C1490.54428568 2218.1229781 1483.27627994 2238.38105154 1476.01687622 2258.64224243 C1469.98850976 2275.46662259 1463.9412923 2292.28414099 1457.88388062 2309.0980835 C1451.67727832 2326.32715644 1445.49257838 2343.5640051 1439.31634521 2360.8039856 C1432.52067851 2379.77192679 1425.70323434 2398.73196322 1418.87304688 2417.6875 C1418.518172 2418.67259552 1418.16329712 2419.65769104 1417.79766846 2420.67263794 C1417.11667081 2422.56263926 1416.4353281 2424.45251629 1415.75360107 2426.34225464 C1414.29738285 2430.38174514 1412.84698518 2434.42290762 1411.42089844 2438.47314453 C1411.18660126 2439.13693619 1410.95230408 2439.80072784 1410.71090698 2440.4846344 C1410.10672889 2442.19990958 1409.50607848 2443.91642625 1408.90576172 2445.63305664 C1408 2448 1408 2448 1407 2449 C1403.8491888 2449.09917613 1400.72025888 2449.13172938 1397.56899929 2449.12304783 C1396.56157473 2449.12420167 1395.55415017 2449.12535552 1394.51619759 2449.12654433 C1391.09520923 2449.12921935 1387.67426668 2449.1246816 1384.25328064 2449.12025452 C1381.79403645 2449.12069004 1379.33479231 2449.12156459 1376.87554842 2449.12284368 C1371.50537652 2449.12462137 1366.13521868 2449.12326388 1360.76504898 2449.11920547 C1352.77971861 2449.11318741 1344.79439525 2449.11286809 1336.80906303 2449.11374746 C1323.37853988 2449.11506354 1309.94802164 2449.11171173 1296.51749992 2449.10573006 C1283.21321526 2449.09981975 1269.90893265 2449.09596547 1256.60464668 2449.09487724 C1255.77845274 2449.0948085 1254.9522588 2449.09473976 1254.10102868 2449.09466894 C1249.90547087 2449.09433062 1245.70991306 2449.09402923 1241.51435525 2449.09374207 C1211.77153166 2449.0916398 1182.02871075 2449.08489727 1152.28588867 2449.07543945 C1123.38517267 2449.06626 1094.4844574 2449.05917395 1065.58374023 2449.05493164 C1064.24825154 2449.05473435 1064.24825154 2449.05473435 1062.88578327 2449.05453308 C1053.94503654 2449.05321459 1045.00428981 2449.05193877 1036.06354307 2449.05069422 C1017.84904841 2449.04815778 999.6345538 2449.04533652 981.4200592 2449.04234314 C980.16375804 2449.0421372 980.16375804 2449.0421372 978.88207706 2449.04192711 C922.92138358 2449.03272128 866.96069163 2449.01685474 811 2449 C810.20315069 2447.10251543 809.40784325 2445.2043833 808.61317444 2443.3059845 C808.17011994 2442.24903287 807.72706545 2441.19208124 807.27058506 2440.10310078 C805.53694013 2435.86908678 803.99701784 2431.58255109 802.49609375 2427.26171875 C801.84228833 2425.40104055 801.18847958 2423.54036352 800.53466797 2421.6796875 C800.02441071 2420.22127441 800.02441071 2420.22127441 799.50384521 2418.73339844 C792.92480172 2399.94108052 786.20016569 2381.20417794 779.375 2362.5 C772.31736167 2343.14997925 765.30922515 2323.78304345 758.35084152 2304.39716721 C757.13910183 2301.02130596 755.92706923 2297.64554988 754.71508789 2294.26977539 C754.22940521 2292.91696694 753.74372304 2291.56415831 753.25804138 2290.21134949 C753.01760038 2289.54163809 752.77715939 2288.87192669 752.5294323 2288.18192101 C752.04357373 2286.82861546 751.55773007 2285.47530455 751.07190132 2284.1219883 C745.66338144 2269.05642584 740.24197912 2253.99552093 734.8125 2238.9375 C734.58534428 2238.30744804 734.35818855 2237.67739609 734.12414932 2237.02825165 C726.97423687 2217.19772545 719.77997475 2197.38357406 712.56552124 2177.57644653 C705.74413965 2158.84399278 698.99510356 2140.08641201 692.27783203 2121.31640625 C686.27185749 2104.53554426 680.23717709 2087.76514645 674.1875 2071 C673.72397849 2069.71539313 673.26045717 2068.4307862 672.79693604 2067.1461792 C670.93216441 2061.97828413 669.06720735 2056.81045602 667.20196533 2051.64273071 C662.81820418 2039.49733082 658.43740379 2027.35086409 654.05711842 2015.20421028 C652.45665076 2010.76611499 650.85594304 2006.32810634 649.25512695 2001.89013672 C644.87686733 1989.75198496 640.49993601 1977.61335786 636.12656975 1965.47344208 C634.04318407 1959.69045835 631.95920879 1953.90768712 629.875 1948.125 C629.64685482 1947.49197968 629.41870964 1946.85895935 629.18365097 1946.20675659 C622.42648321 1927.45904442 615.63308022 1908.72474399 608.8125 1890 C601.57386332 1870.12688398 594.40435442 1850.22997767 587.27783203 1830.31640625 C581.27185777 1813.53554506 575.23743441 1796.76505317 569.1875 1780 C568.95848495 1779.36537338 568.72946991 1778.73074677 568.49351501 1778.07688904 C566.39957194 1772.27448764 564.30542041 1766.47216148 562.21102905 1760.66992188 C559.17577815 1752.26071313 556.14369415 1743.85036812 553.11374664 1735.43924713 C551.03460145 1729.66767395 548.95494277 1723.89628579 546.875 1718.125 C546.64705498 1717.49251343 546.41910995 1716.86002686 546.18425751 1716.20837402 C539.42696783 1697.46009404 532.63327711 1678.72528453 525.8125 1660 C518.57386332 1640.12688398 511.40435442 1620.22997767 504.27783203 1600.31640625 C498.27185749 1583.53554426 492.23717709 1566.76514645 486.1875 1550 C485.72397849 1548.71539313 485.26045717 1547.4307862 484.79693604 1546.1461792 C482.93216441 1540.97828413 481.06720735 1535.81045602 479.20196533 1530.64273071 C474.81820418 1518.49733082 470.43740379 1506.35086409 466.05711842 1494.20421028 C464.45665076 1489.76611499 462.85594304 1485.32810634 461.25512695 1480.89013672 C456.87686733 1468.75198496 452.49993601 1456.61335786 448.12656975 1444.47344208 C446.04318407 1438.69045835 443.95920879 1432.90768712 441.875 1427.125 C441.64685482 1426.49197968 441.41870964 1425.85895935 441.18365097 1425.20675659 C434.42648321 1406.45904442 427.63308022 1387.72474399 420.8125 1369 C413.57386332 1349.12688398 406.40435442 1329.22997767 399.27783203 1309.31640625 C393.27185749 1292.53554426 387.23717709 1275.76514645 381.1875 1259 C380.72397849 1257.71539313 380.26045717 1256.4307862 379.79693604 1255.1461792 C377.93216441 1249.97828413 376.06720735 1244.81045602 374.20196533 1239.64273071 C369.81793034 1227.49657213 365.43685312 1215.34934776 361.05626869 1203.20194435 C359.45819942 1198.77049338 357.85999811 1194.33909005 356.26171875 1189.90771484 C351.85218881 1177.68183276 347.44310176 1165.45579129 343.03504562 1153.22937775 C340.91933706 1147.36120136 338.80347187 1141.49308145 336.6875 1135.625 C336.45634491 1134.98395325 336.22518982 1134.34290649 335.98703003 1133.68243408 C329.83375647 1116.61833693 323.67301487 1099.55696605 317.5 1082.5 C308.73193442 1058.27251957 299.99201707 1034.03490045 291.25332642 1009.79681396 C287.99623609 1000.76278935 284.73858127 991.7289685 281.48046875 982.6953125 C281.25413443 982.06775558 281.0278001 981.44019867 280.79460716 980.79362488 C278.51056188 974.46065696 276.22644024 968.12771659 273.94212627 961.79484558 C272.79732176 958.62105488 271.65255731 955.44724973 270.5078125 952.2734375 C270.16782195 951.3308181 270.16782195 951.3308181 269.82096291 950.36915588 C266.58764055 941.40458689 263.35647153 932.439244 260.12656975 923.47344208 C258.04318407 917.69045835 255.95920879 911.90768712 253.875 906.125 C253.64685482 905.49197968 253.41870964 904.85895935 253.18365097 904.20675659 C246.42648321 885.45904442 239.63308022 866.72474399 232.8125 848 C225.57386332 828.12688398 218.40435442 808.22997767 211.27783203 788.31640625 C205.27185749 771.53554426 199.23717709 754.76514645 193.1875 738 C192.72397849 736.71539313 192.26045717 735.4307862 191.79693604 734.1461792 C189.93216441 728.97828413 188.06720735 723.81045602 186.20196533 718.64273071 C181.81820418 706.49733082 177.43740379 694.35086409 173.05711842 682.20421028 C171.45665076 677.76611499 169.85594304 673.32810634 168.25512695 668.89013672 C163.87686733 656.75198496 159.49993601 644.61335786 155.12656975 632.47344208 C153.04318407 626.69045835 150.95920879 620.90768712 148.875 615.125 C148.64685482 614.49197968 148.41870964 613.85895935 148.18365097 613.20675659 C141.42648321 594.45904442 134.63308022 575.72474399 127.8125 557 C120.57386332 537.12688398 113.40435442 517.22997767 106.27783203 497.31640625 C100.27185777 480.53554506 94.23743441 463.76505317 88.1875 447 C87.95848495 446.36537338 87.72946991 445.73074677 87.49351501 445.07688904 C85.39957194 439.27448764 83.30542041 433.47216148 81.21102905 427.66992188 C78.17577815 419.26071313 75.14369415 410.85036812 72.11374664 402.43924713 C70.03460145 396.66767395 67.95494277 390.89628579 65.875 385.125 C65.64705498 384.49251343 65.41910995 383.86002686 65.18425751 383.20837402 C58.01730368 363.32346996 50.80690824 343.4546167 43.57183838 323.59439087 C36.69863306 304.72304315 29.89474201 285.82753848 23.14379883 266.91210938 C15.5183918 245.57461616 7.74415967 224.29643908 0 203 C0 136.01 0 69.02 0 0 Z " fill="#FFFFFF" transform="translate(10199,1200)"/>
<path d="M0 0 C247.5 0 495 0 750 0 C750 1091.31 750 2182.62 750 3307 C502.5 3307 255 3307 0 3307 C0 3141.67 0 2976.34 0 2806 C83.16 2806 166.32 2806 252 2806 C252 2045.68 252 1285.36 252 502 C168.84 502 85.68 502 0 502 C0 336.34 0 170.68 0 0 Z " fill="#FFFFFF" transform="translate(13240,902)"/>
<path d="M0 0 C247.5 0 495 0 750 0 C750 165.66 750 331.32 750 502 C666.84 502 583.68 502 498 502 C498 1262.32 498 2022.64 498 2806 C581.16 2806 664.32 2806 750 2806 C750 2971.33 750 3136.66 750 3307 C502.5 3307 255 3307 0 3307 C0 2215.69 0 1124.38 0 0 Z " fill="#FFFFFF" transform="translate(853,902)"/>
<path d="M0 0 C198.99 0 397.98 0 603 0 C603 808.17 603 1616.34 603 2449 C404.01 2449 205.02 2449 0 2449 C0 1640.83 0 832.66 0 0 Z " fill="#FFFFFF" transform="translate(9334,1200)"/>
</svg>
