<?xml version="1.0" encoding="UTF-8"?>
<svg version="1.1" xmlns="http://www.w3.org/2000/svg" width="14844" height="5111">
<path d="M0 0 C1143.32915603 0 1143.32915603 0 1185 3.8125 C1185.93905182 3.89648041 1186.87810364 3.98046082 1187.84561157 4.06698608 C1260.24665047 10.57092936 1331.78089267 23.60775816 1401 46 C1402.09891571 46.35481445 1402.09891571 46.35481445 1403.22003174 46.71679688 C1435.03913142 57.01820298 1465.86043496 69.48943351 1496 84 C1497.51811279 84.73017334 1497.51811279 84.73017334 1499.06689453 85.47509766 C1536.48987673 103.58684235 1572.14565062 125.49988687 1605 151 C1605.8971875 151.69101807 1605.8971875 151.69101807 1606.8125 152.39599609 C1614.83433265 158.57877174 1622.64587992 164.97712332 1630.33056641 171.57324219 C1632.07089176 173.06058664 1633.82155931 174.53502924 1635.57421875 176.0078125 C1641.9141694 181.35580972 1647.96589988 186.81984351 1653.765625 192.76171875 C1655.817584 194.81726509 1657.92219653 196.73383346 1660.125 198.625 C1666.36185021 203.9834206 1671.94179424 209.84515424 1677.29296875 216.078125 C1678.92002562 217.9099602 1680.61302329 219.61128111 1682.375 221.3125 C1686.14140094 225.01164378 1689.38192973 229.0778721 1692.6875 233.1875 C1694.84349735 235.80965894 1697.07567103 238.31608568 1699.375 240.8125 C1704.93862999 246.93538569 1709.9713589 253.43740055 1715 260 C1715.46245117 260.60021973 1715.92490234 261.20043945 1716.40136719 261.81884766 C1729.93460636 279.42524336 1742.5405668 297.60565444 1753.7109375 316.80273438 C1754.87935298 318.79435167 1756.07111984 320.76791349 1757.28125 322.734375 C1778.68962759 357.55488211 1795.59470802 394.81340305 1810 433 C1810.44843262 434.1873877 1810.89686523 435.37477539 1811.35888672 436.59814453 C1839.49984621 511.81972981 1854.29808175 591.6297965 1865.31805801 771.59181213 C1865.31239647 774.55416925 1865.30958968 777.5165206 1865.30697632 780.47888184 C1865.27102351 808.53150811 1864.96739338 836.4610707 1862.25 864.40466309 C1861.98836405 867.12079682 1861.74115241 869.83798714 1861.49609375 872.55566406 C1855.31868486 940.30059591 1842.03660012 1007.39314126 1820.66278076 1071.99664307 C1820.01764774 1073.946657 1819.37608356 1075.89781767 1818.73486328 1077.84912109 C1791.14523901 1161.34029269 1749.20891382 1241.41679735 1694 1310 C1693.48969238 1310.63647461 1692.97938477 1311.27294922 1692.45361328 1311.92871094 C1682.23861752 1324.65630371 1671.77985856 1337.12988862 1660.66796875 1349.0859375 C1658.67847203 1351.25894563 1656.74406202 1353.45190059 1654.82324219 1355.68383789 C1651.09602879 1359.94836772 1647.16984384 1363.97486132 1643.16015625 1367.97265625 C1642.43436874 1368.69940048 1641.70858124 1369.42614471 1640.96080017 1370.1749115 C1639.43676444 1371.69962296 1637.91148431 1373.2230915 1636.38500977 1374.74536133 C1634.06867537 1377.05633891 1631.75772922 1379.37260771 1629.44726562 1381.68945312 C1627.95604966 1383.1800082 1626.46452347 1384.670253 1624.97265625 1386.16015625 C1624.29219742 1386.84263931 1623.61173859 1387.52512238 1622.91065979 1388.22828674 C1618.97980618 1392.14029542 1614.94633531 1395.87645741 1610.7432251 1399.49488831 C1608.34179025 1401.56830251 1606.01781117 1403.72227086 1603.6875 1405.875 C1598.80663191 1410.32186477 1593.77624476 1414.52428901 1588.63720703 1418.66748047 C1586.77611932 1420.18221604 1584.93242794 1421.71671785 1583.08984375 1423.25390625 C1573.61152544 1431.15049106 1563.95608185 1438.71614359 1554 1446 C1553.27135742 1446.53512207 1552.54271484 1447.07024414 1551.79199219 1447.62158203 C1534.67456787 1460.17411424 1517.00341744 1471.75675167 1499 1483 C1498.11779785 1483.55695557 1497.2355957 1484.11391113 1496.32666016 1484.68774414 C1494 1486 1494 1486 1492 1486 C1495.31552489 1492.98210536 1498.90220151 1499.6601331 1502.92333984 1506.26098633 C1507.05005166 1513.04365848 1511.0556271 1519.89617077 1515.0625 1526.75 C1520.67921829 1536.35081902 1526.32116024 1545.93574974 1532 1555.5 C1537.59243244 1564.92018175 1543.15247504 1574.35851463 1548.6875 1583.8125 C1555.76073161 1595.89338034 1562.8686026 1607.95335464 1570 1620 C1577.56231509 1632.77456896 1585.09563789 1645.56567983 1592.59838867 1658.37530518 C1599.36925825 1669.93447032 1606.1757818 1681.47225418 1613 1693 C1620.56231509 1705.77456896 1628.09563789 1718.56567983 1635.59838867 1731.37530518 C1642.36925825 1742.93447032 1649.1757818 1754.47225418 1656 1766 C1663.56231509 1778.77456896 1671.09563789 1791.56567983 1678.59838867 1804.37530518 C1685.36925825 1815.93447032 1692.1757818 1827.47225418 1699 1839 C1706.56231509 1851.77456896 1714.09563789 1864.56567983 1721.59838867 1877.37530518 C1728.36925825 1888.93447032 1735.1757818 1900.47225418 1742 1912 C1749.56231509 1924.77456896 1757.09563789 1937.56567983 1764.59838867 1950.37530518 C1771.36925825 1961.93447032 1778.1757818 1973.47225418 1785 1985 C1792.56369267 1997.77689604 1800.09880903 2010.57009578 1807.60241699 2023.38235474 C1812.73183703 2032.14020318 1817.88013992 2040.88657248 1823.05126953 2049.61987305 C1826.0653909 2054.7142872 1829.06660079 2059.81605524 1832.0546875 2064.92578125 C1832.40606781 2065.52656998 1832.75744812 2066.1273587 1833.11947632 2066.74635315 C1833.47466339 2067.35365768 1833.82985046 2067.96096222 1834.19580078 2068.58666992 C1834.92218242 2069.82862387 1835.64858225 2071.07056718 1836.375 2072.3125 C1836.73527283 2072.92848053 1837.09554565 2073.54446106 1837.46673584 2074.17910767 C1842.46261363 2082.71674737 1847.51590126 2091.21693974 1852.625 2099.6875 C1858.32883348 2109.14599359 1863.87779236 2118.68509428 1869.37329102 2128.26586914 C1873.68734231 2135.76976517 1878.09312857 2143.21266601 1882.5625 2150.625 C1889.19226079 2161.62028245 1895.68028521 2172.69251336 1902.1328125 2183.79248047 C1910.9346319 2198.9125515 1919.79769166 2213.99741247 1928.70880127 2229.05331421 C1929.71831277 2230.75896197 1930.72708827 2232.46504528 1931.73583984 2234.17114258 C1932.35410645 2235.21423584 1932.97237305 2236.2573291 1933.609375 2237.33203125 C1934.4132666 2238.68905151 1934.4132666 2238.68905151 1935.23339844 2240.07348633 C1936.18982407 2241.6578802 1937.16719798 2243.2333417 1938.24513119 2244.73770666 C1941.73202989 2249.76771662 1942.71942892 2253.41777639 1942.60127258 2259.47888184 C1942.60554471 2260.2942606 1942.60981683 2261.10963937 1942.61421841 2261.94972658 C1942.6224058 2264.66171804 1942.59503526 2267.37213723 1942.56762695 2270.08398438 C1942.56621556 2272.03587813 1942.56701025 2273.98777453 1942.56983948 2275.93966675 C1942.57127146 2281.22438242 1942.54191666 2286.5085283 1942.50696969 2291.7931118 C1942.47567001 2297.32107005 1942.47277259 2302.849042 1942.46684265 2308.3770752 C1942.45131487 2318.83881121 1942.41030064 2329.30028534 1942.3600952 2339.76190615 C1942.30416874 2351.67476632 1942.2767069 2363.58763914 1942.25161803 2375.50059795 C1942.19938399 2400.00054371 1942.11146224 2424.50025717 1942 2449 C1886.31265022 2449.1540273 1830.62527952 2449.29731776 1774.93777466 2449.38108826 C1774.11390654 2449.38233077 1773.29003842 2449.38357328 1772.4412046 2449.38485345 C1754.53739365 2449.41178807 1736.63358045 2449.43671993 1718.72976386 2449.45958797 C1709.9500504 2449.47081424 1701.17033756 2449.48248319 1692.390625 2449.49438477 C1691.08007737 2449.49615001 1691.08007737 2449.49615001 1689.74305403 2449.49795092 C1661.41134784 2449.53631999 1633.07980294 2449.60393426 1604.74819451 2449.68667499 C1575.63976418 2449.77153021 1546.53142314 2449.82696009 1517.42287121 2449.84523491 C1513.3138264 2449.8478284 1509.20478189 2449.85075913 1505.09573746 2449.85389519 C1504.28699896 2449.85450199 1503.47826047 2449.8551088 1502.64501475 2449.855734 C1489.61352914 2449.86637973 1476.58231922 2449.90814952 1463.55094614 2449.96148831 C1450.45780067 2450.01441826 1437.36492916 2450.03472588 1424.2716804 2450.0215124 C1416.4874138 2450.01465413 1408.70414801 2450.03302901 1400.92006168 2450.08717789 C1395.11485369 2450.12481076 1389.31034232 2450.11570239 1383.5050564 2450.08809005 C1381.15096758 2450.08427087 1378.79679567 2450.09583129 1376.44287167 2450.12394864 C1373.25171504 2450.15986401 1370.0655225 2450.14074767 1366.87444878 2450.10743046 C1365.49027877 2450.14289514 1365.49027877 2450.14289514 1364.07814574 2450.17907628 C1361.43011464 2450.11621706 1359.46976856 2449.96616238 1357 2449 C1354.40963297 2446.27962281 1352.70098708 2443.33057319 1351 2440 C1350.44425293 2439.04577148 1349.88850586 2438.09154297 1349.31591797 2437.10839844 C1348.87908691 2436.2837207 1348.44225586 2435.45904297 1347.9921875 2434.609375 C1347.48695557 2433.66392822 1346.98172363 2432.71848145 1346.46118164 2431.74438477 C1345.9377417 2430.75623779 1345.41430176 2429.76809082 1344.875 2428.75 C1340.70321801 2420.96128004 1336.47074852 2413.2200209 1332.0625 2405.5625 C1327.70215191 2397.98455554 1323.39163749 2390.38114877 1319.125 2382.75 C1318.54057129 2381.70481201 1317.95614258 2380.65962402 1317.35400391 2379.58276367 C1316.1646078 2377.45473989 1314.97548147 2375.32656531 1313.78662109 2373.19824219 C1310.83941465 2367.92242851 1307.88910271 2362.64835522 1304.9375 2357.375 C1304.35758301 2356.33891602 1303.77766602 2355.30283203 1303.18017578 2354.23535156 C1298.77242858 2346.36622279 1294.3376676 2338.51262311 1289.89428711 2330.66357422 C1285.31436491 2322.56847336 1280.77032338 2314.45355836 1276.23046875 2306.3359375 C1272.33841963 2299.38030205 1268.42666228 2292.43614796 1264.5 2285.5 C1259.38265197 2276.46059691 1254.3006682 2267.40185704 1249.23046875 2258.3359375 C1245.33841963 2251.38030205 1241.42666228 2244.43614796 1237.5 2237.5 C1232.38265197 2228.46059691 1227.3006682 2219.40185704 1222.23046875 2210.3359375 C1218.33841963 2203.38030205 1214.42666228 2196.43614796 1210.5 2189.5 C1205.38265197 2180.46059691 1200.3006682 2171.40185704 1195.23046875 2162.3359375 C1191.33841963 2155.38030205 1187.42666228 2148.43614796 1183.5 2141.5 C1178.38265197 2132.46059691 1173.3006682 2123.40185704 1168.23046875 2114.3359375 C1164.33841963 2107.38030205 1160.42666228 2100.43614796 1156.5 2093.5 C1151.38265197 2084.46059691 1146.3006682 2075.40185704 1141.23046875 2066.3359375 C1137.33841963 2059.38030205 1133.42666228 2052.43614796 1129.5 2045.5 C1124.38265197 2036.46059691 1119.3006682 2027.40185704 1114.23046875 2018.3359375 C1110.33841963 2011.38030205 1106.42666228 2004.43614796 1102.5 1997.5 C1097.38265197 1988.46059691 1092.3006682 1979.40185704 1087.23046875 1970.3359375 C1083.33841963 1963.38030205 1079.42666228 1956.43614796 1075.5 1949.5 C1070.38265197 1940.46059691 1065.3006682 1931.40185704 1060.23046875 1922.3359375 C1056.33841963 1915.38030205 1052.42666228 1908.43614796 1048.5 1901.5 C1043.38265197 1892.46059691 1038.3006682 1883.40185704 1033.23046875 1874.3359375 C1029.33841963 1867.38030205 1025.42666228 1860.43614796 1021.5 1853.5 C1016.38265197 1844.46059691 1011.3006682 1835.40185704 1006.23046875 1826.3359375 C1002.33841963 1819.38030205 998.42666228 1812.43614796 994.5 1805.5 C989.38265197 1796.46059691 984.3006682 1787.40185704 979.23046875 1778.3359375 C975.33841963 1771.38030205 971.42666228 1764.43614796 967.5 1757.5 C962.38265197 1748.46059691 957.3006682 1739.40185704 952.23046875 1730.3359375 C948.33841963 1723.38030205 944.42666228 1716.43614796 940.5 1709.5 C935.38265197 1700.46059691 930.3006682 1691.40185704 925.23046875 1682.3359375 C921.33841963 1675.38030205 917.42666228 1668.43614796 913.5 1661.5 C908.38265197 1652.46059691 903.3006682 1643.40185704 898.23046875 1634.3359375 C893.80876984 1626.43374388 889.35835943 1618.54815785 884.89672852 1610.66845703 C880.29941482 1602.54358784 875.74080396 1594.39735767 871.19091797 1586.24584961 C868.30703263 1581.08758496 865.40171593 1575.94356657 862.44921875 1570.82421875 C861.88920166 1569.85242676 861.32918457 1568.88063477 860.75219727 1567.87939453 C859.69016749 1566.04087998 858.62441478 1564.20450954 857.55444336 1562.37060547 C857.08530518 1561.55865723 856.61616699 1560.74670898 856.1328125 1559.91015625 C855.71918457 1559.19996338 855.30555664 1558.48977051 854.87939453 1557.75805664 C854 1556 854 1556 854 1554 C771.17 1554 688.34 1554 603 1554 C603 1849.35 603 2144.7 603 2449 C404.01 2449 205.02 2449 0 2449 C0 1640.83 0 832.66 0 0 Z M603 526 C603 700.9 603 875.8 603 1056 C668.54625 1056.04125 734.0925 1056.0825 801.625 1056.125 C822.28689941 1056.14320801 842.94879883 1056.16141602 864.23681641 1056.18017578 C882.83097806 1056.18686651 882.83097806 1056.18686651 901.42514038 1056.19088745 C909.67800043 1056.1927434 917.93083302 1056.20004083 926.1836853 1056.21115112 C935.72577808 1056.2239778 945.26784476 1056.22964971 954.8099462 1056.2268899 C959.68002001 1056.22569686 964.55003568 1056.22744524 969.42009854 1056.23843026 C996.22828077 1056.29596565 1022.94587994 1055.85776134 1049.5625 1052.25 C1050.82586182 1052.08153564 1052.08922363 1051.91307129 1053.39086914 1051.73950195 C1111.81485024 1043.59027315 1169.84512381 1023.14522612 1207 975 C1213.3625797 966.38287758 1218.90841331 957.42171973 1224 948 C1224.32323242 947.41476562 1224.64646484 946.82953125 1224.97949219 946.2265625 C1249.03779359 902.37103198 1254.99998057 849.25929063 1256 800 C1256.02191406 799.04625488 1256.04382812 798.09250977 1256.06640625 797.10986328 C1257.40198545 730.58688943 1249.25781808 654.22752207 1204 602 C1202.94039062 600.77603516 1202.94039062 600.77603516 1201.859375 599.52734375 C1199.60922607 596.9821578 1197.31683781 594.48455503 1195 592 C1194.27554688 591.20980469 1193.55109375 590.41960937 1192.8046875 589.60546875 C1181.38264252 577.62200122 1167.57703211 567.78212111 1153 560 C1151.80721436 559.36263916 1151.80721436 559.36263916 1150.59033203 558.71240234 C1126.18780011 545.90994129 1100.01979435 538.03745073 1073 533 C1071.97084473 532.80712402 1070.94168945 532.61424805 1069.88134766 532.41552734 C1037.59841963 526.54636925 1005.06258691 525.54232179 972.34588641 525.65178181 C967.29450862 525.66515801 962.24313646 525.66048026 957.19174576 525.65832806 C947.44595319 525.6567517 937.70024551 525.67041919 927.95447458 525.68983204 C916.64949219 525.71166438 905.34455881 525.71382885 894.03955078 525.71618652 C864.276354 525.73185671 834.51317567 525.77374051 804.75 525.8125 C738.1725 525.874375 671.595 525.93625 603 526 Z " fill="#000000" transform="translate(4942,1200)"/>
<path d="M0 0 C198.99 0 397.98 0 603 0 C603 317.46 603 634.92 603 962 C709.92 961.505 709.92 961.505 819 961 C822.96 953.74 826.92 946.48 831 939 C833.11319606 935.22108066 835.23029253 931.44807279 837.375 927.6875 C838.46531908 925.76719689 839.55514454 923.84661344 840.64453125 921.92578125 C841.19318848 920.95850098 841.7418457 919.9912207 842.30712891 918.99462891 C845.24443513 913.79863841 848.15170609 908.58587302 851.0625 903.375 C855.81536269 894.87169894 860.61723963 886.39866723 865.46337891 877.94824219 C869.93438979 870.14058989 874.32976155 862.29147932 878.71875 854.4375 C883.15659058 846.49815443 887.62446553 838.57629665 892.10742188 830.66235352 C894.89780274 825.73237136 897.67587416 820.79599316 900.43359375 815.84765625 C906.21065634 805.48318761 912.04452492 795.16429901 918.0625 784.9375 C923.32431326 775.98926668 928.34091079 766.93325213 933.24853516 757.78662109 C937.18935677 750.45460932 941.26143113 743.209804 945.41503906 735.99658203 C949.29256703 729.25839578 953.09206771 722.47917822 956.875 715.6875 C961.50668835 707.37804423 966.2370989 699.13585378 971.0625 690.9375 C976.32440809 681.98932482 981.34091301 672.933248 986.24853516 663.78662109 C990.18935677 656.45460932 994.26143113 649.209804 998.41503906 641.99658203 C1002.29256703 635.25839578 1006.09206771 628.47917822 1009.875 621.6875 C1014.50668835 613.37804423 1019.2370989 605.13585378 1024.0625 596.9375 C1029.32440809 587.98932482 1034.34091301 578.933248 1039.24853516 569.78662109 C1043.18889207 562.4554739 1047.26170574 555.21226263 1051.4128418 547.9987793 C1055.30345765 541.23456489 1059.13167992 534.4372609 1062.9375 527.625 C1070.11597573 514.78039554 1077.35501024 501.97063925 1084.60449219 489.16601562 C1086.21595102 486.31926829 1087.82686239 483.47221205 1089.4375 480.625 C1089.97197754 479.68052002 1090.50645508 478.73604004 1091.05712891 477.76293945 C1093.86476317 472.79639505 1096.66008636 467.82335767 1099.4375 462.83984375 C1105.21363669 452.47820141 1111.04600435 442.16178491 1117.0625 431.9375 C1122.32431326 422.98926668 1127.34091079 413.93325213 1132.24853516 404.78662109 C1136.18935677 397.45460932 1140.26143113 390.209804 1144.41503906 382.99658203 C1148.29256703 376.25839578 1152.09206771 369.47917822 1155.875 362.6875 C1160.50668835 354.37804423 1165.2370989 346.13585378 1170.0625 337.9375 C1175.32440809 328.98932482 1180.34091301 319.933248 1185.24853516 310.78662109 C1189.18889207 303.4554739 1193.26170574 296.21226263 1197.4128418 288.9987793 C1201.30345765 282.23456489 1205.13167992 275.4372609 1208.9375 268.625 C1216.11597573 255.78039554 1223.35501024 242.97063925 1230.60449219 230.16601562 C1232.21595104 227.31926826 1233.82691824 224.47224369 1235.4375 221.625 C1235.97052734 220.68269531 1236.50355469 219.74039062 1237.05273438 218.76953125 C1241.07650454 211.64943854 1245.07245882 204.51403621 1249.0625 197.375 C1253.81558275 188.8718205 1258.61723825 180.39866964 1263.46337891 171.94824219 C1267.93438979 164.14058989 1272.32976155 156.29147932 1276.71875 148.4375 C1281.15659058 140.49815443 1285.62446553 132.57629665 1290.10742188 124.66235352 C1292.89780274 119.73237136 1295.67587416 114.79599316 1298.43359375 109.84765625 C1304.21065634 99.48318761 1310.04452492 89.16429901 1316.0625 78.9375 C1321.32265703 69.99208325 1326.33731067 60.93874619 1331.24414062 51.79541016 C1336.156823 42.65668402 1341.28387916 33.65145419 1346.46777344 24.66455078 C1348.11461743 21.80067964 1349.74989246 18.93042542 1351.3828125 16.05859375 C1351.93573975 15.08688232 1352.48866699 14.1151709 1353.05834961 13.11401367 C1354.12524629 11.23843074 1355.19120044 9.36231127 1356.25610352 7.4855957 C1356.73233154 6.64988037 1357.20855957 5.81416504 1357.69921875 4.953125 C1358.33089966 3.84179199 1358.33089966 3.84179199 1358.9753418 2.70800781 C1360 1 1360 1 1361 0 C1363.82368774 -0.09901654 1366.62293996 -0.13175072 1369.44710636 -0.12304783 C1370.34816338 -0.12420167 1371.2492204 -0.12535552 1372.17758217 -0.12654433 C1375.23673798 -0.12921891 1378.29584252 -0.12468196 1381.35499573 -0.12025452 C1383.5543775 -0.12069005 1385.75375923 -0.12156462 1387.95314068 -0.12284368 C1394.02792672 -0.12509222 1400.10269533 -0.12106249 1406.17747915 -0.11606562 C1412.04613605 -0.11220729 1417.91479097 -0.1130248 1423.78344882 -0.11374746 C1435.79402055 -0.11506349 1447.8045868 -0.11171191 1459.81515694 -0.10573006 C1471.71273386 -0.09981963 1483.6103085 -0.09596545 1495.50788689 -0.09487724 C1496.24674098 -0.0948085 1496.98559507 -0.09473976 1497.74683869 -0.09466894 C1501.49887366 -0.09433062 1505.25090865 -0.09402923 1509.00294363 -0.09374207 C1535.60116645 -0.09163983 1562.19938628 -0.08489739 1588.79760742 -0.07543945 C1614.64265934 -0.06625991 1640.48771045 -0.05917391 1666.33276367 -0.05493164 C1667.52706408 -0.05473435 1667.52706408 -0.05473435 1668.74549178 -0.05453308 C1676.74102431 -0.05321459 1684.73655685 -0.05193877 1692.7320894 -0.05069422 C1709.02093216 -0.04815778 1725.30977487 -0.04533653 1741.59861755 -0.04234314 C1742.34760586 -0.04220585 1743.09659417 -0.04206856 1743.86827909 -0.04192711 C1793.91218733 -0.03272138 1843.95609382 -0.01685484 1894 0 C1894.30473041 25.8268004 1894.53343606 51.65332835 1894.67355824 77.48156929 C1894.74037182 89.47628277 1894.83133216 101.46987428 1894.98071289 113.46386719 C1895.11096927 123.92739609 1895.19431618 134.39011189 1895.22315043 144.85442913 C1895.23998616 150.387164 1895.27906906 155.91757443 1895.37449074 161.44955826 C1896.09556722 204.91680459 1896.09556722 204.91680459 1882.55589867 221.07116032 C1880.16920696 224.02992992 1878.42123034 227.22429034 1876.57421875 230.54296875 C1875.61008057 232.19075317 1875.61008057 232.19075317 1874.62646484 233.87182617 C1873.98660645 234.96599854 1873.34674805 236.0601709 1872.6875 237.1875 C1867.11661599 246.70754607 1861.5110594 256.20585348 1855.875 265.6875 C1849.97962437 275.60962127 1844.18079449 285.58359272 1838.42871094 295.58935547 C1834.02138749 303.24937181 1829.55470255 310.87163055 1825.04736328 318.47314453 C1820.56786662 326.02933028 1816.12451257 333.60633455 1811.6875 341.1875 C1806.11581168 350.70707917 1800.51106372 360.20584622 1794.875 369.6875 C1788.97962437 379.60962127 1783.18079449 389.58359272 1777.42871094 399.58935547 C1773.02138749 407.24937181 1768.55470255 414.87163055 1764.04736328 422.47314453 C1759.56786662 430.02933028 1755.12451257 437.60633455 1750.6875 445.1875 C1745.11581168 454.70707917 1739.51106372 464.20584622 1733.875 473.6875 C1727.97962437 483.60962127 1722.18079449 493.58359272 1716.42871094 503.58935547 C1712.02138749 511.24937181 1707.55470255 518.87163055 1703.04736328 526.47314453 C1698.56786662 534.02933028 1694.12451257 541.60633455 1689.6875 549.1875 C1684.11581168 558.70707917 1678.51106372 568.20584622 1672.875 577.6875 C1666.97962437 587.60962127 1661.18079449 597.58359272 1655.42871094 607.58935547 C1651.02138749 615.24937181 1646.55470255 622.87163055 1642.04736328 630.47314453 C1637.56786662 638.02933028 1633.12451257 645.60633455 1628.6875 653.1875 C1623.11581168 662.70707917 1617.51106372 672.20584622 1611.875 681.6875 C1605.97962437 691.60962127 1600.18079449 701.58359272 1594.42871094 711.58935547 C1590.02138749 719.24937181 1585.55470255 726.87163055 1581.04736328 734.47314453 C1576.56786662 742.02933028 1572.12451257 749.60633455 1567.6875 757.1875 C1562.11581168 766.70707917 1556.51106372 776.20584622 1550.875 785.6875 C1544.97962437 795.60962127 1539.18079449 805.58359272 1533.42871094 815.58935547 C1529.02138749 823.24937181 1524.55470255 830.87163055 1520.04736328 838.47314453 C1515.56786662 846.02933028 1511.12451257 853.60633455 1506.6875 861.1875 C1501.11581168 870.70707917 1495.51106372 880.20584622 1489.875 889.6875 C1483.97962437 899.60962127 1478.18079449 909.58359272 1472.42871094 919.58935547 C1468.02138749 927.24937181 1463.55470255 934.87163055 1459.04736328 942.47314453 C1454.56786662 950.02933028 1450.12451257 957.60633455 1445.6875 965.1875 C1440.11581168 974.70707917 1434.51106372 984.20584622 1428.875 993.6875 C1422.97962437 1003.60962127 1417.18079449 1013.58359272 1411.42871094 1023.58935547 C1407.02138749 1031.24937181 1402.55470255 1038.87163055 1398.04736328 1046.47314453 C1393.56786662 1054.02933028 1389.12451257 1061.60633455 1384.6875 1069.1875 C1379.11581168 1078.70707917 1373.51106372 1088.20584622 1367.875 1097.6875 C1361.97962437 1107.60962127 1356.18079449 1117.58359272 1350.42871094 1127.58935547 C1346.5356814 1134.3555187 1342.60295314 1141.09594353 1338.625 1147.8125 C1338.11670654 1148.67456055 1337.60841309 1149.53662109 1337.0847168 1150.42480469 C1334.27615231 1155.18261936 1331.44417274 1159.92491541 1328.57974243 1164.64924622 C1326.97928187 1167.29472722 1325.39079034 1169.94728701 1323.80389404 1172.60092163 C1323.02312491 1173.90005437 1322.23709003 1175.19603811 1321.44561768 1176.48867798 C1320.33820248 1178.29847471 1319.24947516 1180.11835366 1318.1640625 1181.94140625 C1317.21200928 1183.51450562 1317.21200928 1183.51450562 1316.24072266 1185.11938477 C1314.79183214 1188.48330826 1314.75494766 1189.5978681 1316 1193 C1317.1218687 1195.1608381 1318.32864489 1197.27832898 1319.5859375 1199.36328125 C1319.95447845 1199.97930206 1320.32301941 1200.59532288 1320.70272827 1201.23001099 C1321.92014052 1203.26160265 1323.14758717 1205.28693751 1324.375 1207.3125 C1325.23416254 1208.74246111 1326.09254852 1210.17288905 1326.95019531 1211.60375977 C1328.73629842 1214.58235739 1330.52574913 1217.55890578 1332.31738281 1220.53417969 C1336.09504962 1226.81439319 1339.82605765 1233.1221812 1343.55996704 1239.4284668 C1350.17405382 1250.59447682 1356.83131799 1261.73397951 1363.51757812 1272.85693359 C1369.65313536 1283.07135404 1375.7224869 1293.32465359 1381.79095459 1303.57902527 C1386.04322769 1310.76392831 1390.30141437 1317.94532021 1394.5625 1325.125 C1394.96577515 1325.80450714 1395.36905029 1326.48401428 1395.7845459 1327.18411255 C1401.00002352 1335.96997938 1406.2358949 1344.74315081 1411.5 1353.5 C1417.11272905 1362.83684344 1422.69066056 1372.19381158 1428.25 1381.5625 C1428.84645325 1382.56762131 1428.84645325 1382.56762131 1429.45495605 1383.5930481 C1432.71400335 1389.08563111 1435.97152687 1394.57911747 1439.22900391 1400.07263184 C1442.06863652 1404.86133634 1444.90886499 1409.6496867 1447.75 1414.4375 C1448.14696075 1415.10648315 1448.54392151 1415.77546631 1448.95291138 1416.46472168 C1454.77828039 1426.27996968 1460.6371609 1436.07454261 1466.51757812 1445.85693359 C1472.65313536 1456.07135404 1478.7224869 1466.32465359 1484.79095459 1476.57902527 C1489.04322772 1483.76392835 1493.30143746 1490.94530647 1497.5625 1498.125 C1497.96477814 1498.80284546 1498.36705627 1499.48069092 1498.78152466 1500.17907715 C1504.66405868 1510.08896062 1510.57946655 1519.97857008 1516.5168457 1529.85571289 C1522.65264527 1540.0705414 1528.72224519 1550.32424515 1534.79095459 1560.57902527 C1539.04322769 1567.76392831 1543.30141437 1574.94532021 1547.5625 1582.125 C1547.96577515 1582.80450714 1548.36905029 1583.48401428 1548.7845459 1584.18411255 C1554.00002352 1592.96997938 1559.2358949 1601.74315081 1564.5 1610.5 C1570.11272905 1619.83684344 1575.69066056 1629.19381158 1581.25 1638.5625 C1581.84645325 1639.56762131 1581.84645325 1639.56762131 1582.45495605 1640.5930481 C1585.71400335 1646.08563111 1588.97152687 1651.57911747 1592.22900391 1657.07263184 C1595.06863652 1661.86133634 1597.90886499 1666.6496867 1600.75 1671.4375 C1601.14696075 1672.10648315 1601.54392151 1672.77546631 1601.95291138 1673.46472168 C1607.77828039 1683.27996968 1613.6371609 1693.07454261 1619.51757812 1702.85693359 C1625.65313536 1713.07135404 1631.7224869 1723.32465359 1637.79095459 1733.57902527 C1642.04322772 1740.76392835 1646.30143746 1747.94530647 1650.5625 1755.125 C1650.96477814 1755.80284546 1651.36705627 1756.48069092 1651.78152466 1757.17907715 C1657.66405868 1767.08896062 1663.57946655 1776.97857008 1669.5168457 1786.85571289 C1675.64357541 1797.05544197 1681.70424957 1807.29395234 1687.76376343 1817.53370667 C1691.73897886 1824.25040405 1695.72143459 1830.96280195 1699.70544434 1837.67428589 C1700.50922667 1839.02846361 1701.31286307 1840.38272796 1702.11633301 1841.73709106 C1706.22652045 1848.66537184 1710.34715915 1855.58702905 1714.49609375 1862.4921875 C1718.66973449 1869.43861685 1722.80890946 1876.40512896 1726.94052124 1883.37661743 C1733.1614664 1893.87222848 1739.40046211 1904.35631423 1745.6875 1914.8125 C1752.43664675 1926.03974078 1759.11939004 1937.30555293 1765.79095459 1948.57902527 C1770.04322772 1955.76392835 1774.30143746 1962.94530647 1778.5625 1970.125 C1778.96477814 1970.80284546 1779.36705627 1971.48069092 1779.78152466 1972.17907715 C1785.66405868 1982.08896062 1791.57946655 1991.97857008 1797.5168457 2001.85571289 C1803.65264527 2012.0705414 1809.72224519 2022.32424515 1815.79095459 2032.57902527 C1820.04322769 2039.76392831 1824.30141437 2046.94532021 1828.5625 2054.125 C1828.96577515 2054.80450714 1829.36905029 2055.48401428 1829.7845459 2056.18411255 C1835.00002352 2064.96997938 1840.2358949 2073.74315081 1845.5 2082.5 C1851.11272905 2091.83684344 1856.69066056 2101.19381158 1862.25 2110.5625 C1862.6476355 2111.23258087 1863.045271 2111.90266174 1863.45495605 2112.5930481 C1866.71400335 2118.08563111 1869.97152687 2123.57911747 1873.22900391 2129.07263184 C1876.06863652 2133.86133634 1878.90886499 2138.6496867 1881.75 2143.4375 C1882.14696075 2144.10648315 1882.54392151 2144.77546631 1882.95291138 2145.46472168 C1888.77828039 2155.27996968 1894.6371609 2165.07454261 1900.51757812 2174.85693359 C1906.63779274 2185.04581179 1912.69217724 2195.27335213 1918.74563599 2205.50198364 C1922.80217566 2212.35621837 1926.86182225 2219.20860686 1930.9251709 2226.05880737 C1931.75650919 2227.46071095 1932.58749163 2228.86282562 1933.41809082 2230.26516724 C1934.58383075 2232.23329459 1935.75077209 2234.20070506 1936.91796875 2236.16796875 C1937.58594482 2237.29485107 1938.2539209 2238.4217334 1938.94213867 2239.58276367 C1940.00451809 2241.34692605 1941.07776794 2243.10903537 1942.27357453 2244.7856288 C1945.75029711 2249.79441233 1946.71897013 2253.44131111 1946.60127258 2259.47888184 C1946.60554471 2260.2942606 1946.60981683 2261.10963937 1946.61421841 2261.94972658 C1946.6224058 2264.66171804 1946.59503526 2267.37213723 1946.56762695 2270.08398438 C1946.56621556 2272.03587813 1946.56701025 2273.98777453 1946.56983948 2275.93966675 C1946.57127146 2281.22438242 1946.54191666 2286.5085283 1946.50696969 2291.7931118 C1946.47567001 2297.32107005 1946.47277259 2302.849042 1946.46684265 2308.3770752 C1946.45131487 2318.83881121 1946.41030064 2329.30028534 1946.3600952 2339.76190615 C1946.30416874 2351.67476632 1946.2767069 2363.58763914 1946.25161803 2375.50059795 C1946.19938399 2400.00054371 1946.11146224 2424.50025717 1946 2449 C1891.64736817 2449.15402851 1837.29471567 2449.29731882 1782.94192505 2449.38108826 C1782.13779325 2449.38233077 1781.33366146 2449.38357328 1780.50516204 2449.38485345 C1763.03021594 2449.41178812 1745.55526752 2449.43671997 1728.08031564 2449.45958797 C1719.51090002 2449.47081423 1710.94148502 2449.48248318 1702.37207031 2449.49438477 C1701.51929969 2449.4955616 1700.66652907 2449.49673843 1699.78791691 2449.49795092 C1672.13523393 2449.53631945 1644.4827162 2449.60393331 1616.83013338 2449.68667499 C1588.41915883 2449.77153173 1560.00827576 2449.82696044 1531.59717662 2449.84523491 C1527.58651397 2449.8478284 1523.57585162 2449.85075913 1519.56518936 2449.85389519 C1518.38112778 2449.8548054 1518.38112778 2449.8548054 1517.17314577 2449.855734 C1504.4540809 2449.86637941 1491.73529851 2449.90814831 1479.01634895 2449.96148831 C1466.23686017 2450.01442045 1453.45765209 2450.03472534 1440.67805748 2450.0215124 C1433.08041111 2450.01465453 1425.4837902 2450.03302527 1417.88632857 2450.08717789 C1412.21997644 2450.12481523 1406.55448143 2450.11570034 1400.8881072 2450.08809005 C1398.59054492 2450.08427129 1396.29289748 2450.09582822 1393.99550413 2450.12394864 C1390.88054861 2450.15987256 1387.77067646 2450.14074375 1384.65580559 2450.10743046 C1383.75548642 2450.13107358 1382.85516726 2450.1547167 1381.92756569 2450.17907628 C1379.32561411 2450.11582106 1377.42114011 2449.96484966 1375 2449 C1372.42665226 2446.27407853 1370.70734777 2443.31968826 1369 2440 C1368.4745459 2439.10635742 1367.9490918 2438.21271484 1367.40771484 2437.29199219 C1367.01277832 2436.55110352 1366.6178418 2435.81021484 1366.2109375 2435.046875 C1365.75106445 2434.19206543 1365.29119141 2433.33725586 1364.81738281 2432.45654297 C1364.34139648 2431.56338379 1363.86541016 2430.67022461 1363.375 2429.75 C1359.41547191 2422.40945431 1355.40166036 2415.10874042 1351.25 2407.875 C1350.7643457 2407.02873047 1350.27869141 2406.18246094 1349.77832031 2405.31054688 C1348.74632367 2403.5143292 1347.71375211 2401.71844174 1346.68066406 2399.92285156 C1343.48757813 2394.3697393 1340.30535319 2388.8104109 1337.125 2383.25 C1336.78637939 2382.65812897 1336.44775879 2382.06625793 1336.09887695 2381.45645142 C1330.68130733 2371.9835958 1325.33011443 2362.47505022 1320.01049805 2352.94677734 C1315.87071365 2345.53737313 1311.67952558 2338.15905586 1307.45898438 2330.79541016 C1303.86520875 2324.52291869 1300.3014296 2318.23405354 1296.75 2311.9375 C1292.22228377 2303.91103176 1287.66247048 2295.90344897 1283.08276367 2287.90655518 C1277.59150157 2278.31787071 1272.13740809 2268.71010234 1266.75 2259.0625 C1260.57213944 2247.99969895 1254.30335281 2236.99165818 1248 2226 C1245.37322086 2221.41768354 1242.74791488 2216.83452916 1240.125 2212.25 C1239.61679718 2211.36178558 1239.61679718 2211.36178558 1239.09832764 2210.45562744 C1233.67883517 2200.97932957 1228.32650692 2191.46690774 1223.00390625 2181.93579102 C1217.40518837 2171.91724246 1211.70932157 2161.9557986 1206 2152 C1203.3732208 2147.41768343 1200.7480647 2142.8344435 1198.125 2138.25 C1197.78553345 2137.65686005 1197.44606689 2137.06372009 1197.09631348 2136.4526062 C1191.71749381 2127.05052004 1186.4171369 2117.60665652 1181.14453125 2108.14453125 C1177.22291972 2101.1283147 1173.20049388 2094.17776478 1169.125 2087.25 C1163.57092491 2077.80510225 1158.24321922 2068.24833255 1152.98104858 2058.63934326 C1147.87534026 2049.32229466 1142.61104203 2040.11167248 1137.21875 2030.95703125 C1132.1975792 2022.40623926 1127.39278406 2013.74349688 1122.60302734 2005.06152344 C1118.52360125 1997.68754144 1114.33929213 1990.38606695 1110.0625 1983.125 C1104.84870064 1974.26717122 1099.81884353 1965.32254098 1094.875 1956.3125 C1088.89500436 1945.41576473 1082.8166633 1934.58319329 1076.61621094 1923.81005859 C1073.44411518 1918.29482866 1070.28384467 1912.77282646 1067.125 1907.25 C1066.78601685 1906.65749451 1066.44703369 1906.06498901 1066.09777832 1905.45452881 C1060.6784534 1895.97860492 1055.32630825 1886.46655199 1050.00390625 1876.93579102 C1044.40518837 1866.91724246 1038.70932157 1856.9557986 1033 1847 C1030.37322086 1842.41768354 1027.74791488 1837.83452916 1025.125 1833.25 C1024.78619812 1832.65785706 1024.44739624 1832.06571411 1024.09832764 1831.45562744 C1018.67883517 1821.97932957 1013.32650692 1812.46690774 1008.00390625 1802.93579102 C1002.40518837 1792.91724246 996.70932157 1782.9557986 991 1773 C988.3732208 1768.41768343 985.7480647 1763.8344435 983.125 1759.25 C982.78553345 1758.65686005 982.44606689 1758.06372009 982.09631348 1757.4526062 C976.71749381 1748.05052004 971.4171369 1738.60665652 966.14453125 1729.14453125 C962.22291972 1722.1283147 958.20049388 1715.17776478 954.125 1708.25 C948.57092491 1698.80510225 943.24321922 1689.24833255 937.98104858 1679.63934326 C932.87534026 1670.32229466 927.61104203 1661.11167248 922.21875 1651.95703125 C917.1975792 1643.40623926 912.39278406 1634.74349688 907.60302734 1626.06152344 C903.52360311 1618.6875448 899.33939623 1611.38600337 895.0625 1604.125 C889.52660149 1594.72275968 884.22073285 1585.20746916 878.98077393 1575.63879395 C873.87515324 1566.32193211 868.61093733 1557.11149474 863.21875 1547.95703125 C858.28105065 1539.54838677 853.53300301 1531.04141731 848.85131836 1522.48779297 C842.4515591 1510.85337537 835.70013722 1499.48594952 829 1488 C754.42 1487.67 679.84 1487.34 603 1487 C603 1804.46 603 2121.92 603 2449 C404.01 2449 205.02 2449 0 2449 C0 1640.83 0 832.66 0 0 Z " fill="#000000" transform="translate(7171,1200)"/>
<path d="M0 0 C195.69 0 391.38 0 593 0 C609.01236165 43.46212449 609.01236165 43.46212449 616.48574829 64.24749756 C617.87486163 68.11094206 619.26564912 71.97378037 620.65698242 75.83642578 C621.13685676 77.16870093 621.61673042 78.50097632 622.09660339 79.83325195 C622.45242524 80.82110687 622.45242524 80.82110687 622.81543541 81.82891846 C623.52600088 83.80183187 624.23639121 85.77480826 624.94673157 87.74780273 C629.22409075 99.62759989 633.51570702 111.50221928 637.8125 123.375 C638.50399068 125.28596895 639.19547832 127.196939 639.88696289 129.10791016 C640.91091422 131.93756274 641.93490755 134.76720011 642.95899963 137.59680176 C645.33690534 144.16705293 647.71369877 150.73770562 650.08984375 157.30859375 C657.88845418 178.87412599 665.69211008 200.43782562 673.5 222 C681.98504354 245.43219361 690.46435832 268.86645255 698.93945312 292.30224609 C702.10371303 301.05212079 705.26862505 309.80175963 708.43347168 318.55142212 C710.20567296 323.45093898 711.97783452 328.3504702 713.75 333.25 C714.45833314 335.2083334 715.16666648 337.16666674 715.875 339.125 C717.29166667 343.04166667 718.70833333 346.95833333 720.125 350.875 C720.47564514 351.84443039 720.82629028 352.81386078 721.18756104 353.81266785 C721.89569168 355.77044141 722.60382157 357.72821526 723.31195068 359.68598938 C725.08587881 364.5903894 726.85982036 369.49478457 728.63378906 374.39916992 C731.78436719 383.10942473 734.93486688 391.81970785 738.08483887 400.53018188 C746.21851242 423.02182921 754.356788 445.51180423 762.5 468 C770.98504354 491.43219361 779.46435832 514.86645255 787.93945312 538.30224609 C791.10371303 547.05212079 794.26862505 555.80175963 797.43347168 564.55142212 C799.20567296 569.45093898 800.97783452 574.3504702 802.75 579.25 C803.45833314 581.2083334 804.16666648 583.16666674 804.875 585.125 C806.29166667 589.04166667 807.70833333 592.95833333 809.125 596.875 C809.47564514 597.84443039 809.82629028 598.81386078 810.18756104 599.81266785 C810.89569168 601.77044141 811.60382157 603.72821526 812.31195068 605.68598938 C814.08587881 610.5903894 815.85982036 615.49478457 817.63378906 620.39916992 C820.78436719 629.10942473 823.93486688 637.81970785 827.08483887 646.53018188 C835.21851242 669.02182921 843.356788 691.51180423 851.5 714 C859.98504354 737.43219361 868.46435832 760.86645255 876.93945312 784.30224609 C880.10371303 793.05212079 883.26862505 801.80175963 886.43347168 810.55142212 C888.20567296 815.45093898 889.97783452 820.3504702 891.75 825.25 C892.45833314 827.2083334 893.16666648 829.16666674 893.875 831.125 C900.95833333 850.70833333 908.04166667 870.29166667 915.125 889.875 C915.47564514 890.84443039 915.82629028 891.81386078 916.18756104 892.81266785 C916.89569168 894.77044141 917.60382157 896.72821526 918.31195068 898.68598938 C920.08587881 903.5903894 921.85982036 908.49478457 923.63378906 913.39916992 C926.78436719 922.10942473 929.93486688 930.81970785 933.08483887 939.53018188 C941.21851242 962.02182921 949.356788 984.51180423 957.5 1007 C965.98504354 1030.43219361 974.46435832 1053.86645255 982.93945312 1077.30224609 C986.10371303 1086.05212079 989.26862505 1094.80175963 992.43347168 1103.55142212 C994.20567296 1108.45093898 995.97783452 1113.3504702 997.75 1118.25 C998.45833314 1120.2083334 999.16666648 1122.16666674 999.875 1124.125 C1001.29166667 1128.04166667 1002.70833333 1131.95833333 1004.125 1135.875 C1004.47564514 1136.84443039 1004.82629028 1137.81386078 1005.18756104 1138.81266785 C1005.89569168 1140.77044141 1006.60382157 1142.72821526 1007.31195068 1144.68598938 C1009.08587881 1149.5903894 1010.85982036 1154.49478457 1012.63378906 1159.39916992 C1015.78436719 1168.10942473 1018.93486688 1176.81970785 1022.08483887 1185.53018188 C1030.21851242 1208.02182921 1038.356788 1230.51180423 1046.5 1253 C1054.98504354 1276.43219361 1063.46435832 1299.86645255 1071.93945312 1323.30224609 C1075.10371303 1332.05212079 1078.26862505 1340.80175963 1081.43347168 1349.55142212 C1083.20567296 1354.45093898 1084.97783452 1359.3504702 1086.75 1364.25 C1087.45833314 1366.2083334 1088.16666648 1368.16666674 1088.875 1370.125 C1090.29166667 1374.04166667 1091.70833333 1377.95833333 1093.125 1381.875 C1093.47564514 1382.84443039 1093.82629028 1383.81386078 1094.18756104 1384.81266785 C1094.89569168 1386.77044141 1095.60382157 1388.72821526 1096.31195068 1390.68598938 C1098.08587881 1395.5903894 1099.85982036 1400.49478457 1101.63378906 1405.39916992 C1104.78436719 1414.10942473 1107.93486688 1422.81970785 1111.08483887 1431.53018188 C1119.21851242 1454.02182921 1127.356788 1476.51180423 1135.5 1499 C1143.98504354 1522.43219361 1152.46435832 1545.86645255 1160.93945312 1569.30224609 C1164.10371303 1578.05212079 1167.26862505 1586.80175963 1170.43347168 1595.55142212 C1172.20567296 1600.45093898 1173.97783452 1605.3504702 1175.75 1610.25 C1176.45833314 1612.2083334 1177.16666648 1614.16666674 1177.875 1616.125 C1179.29166667 1620.04166667 1180.70833333 1623.95833333 1182.125 1627.875 C1182.47564514 1628.84443039 1182.82629028 1629.81386078 1183.18756104 1630.81266785 C1183.89569168 1632.77044141 1184.60382157 1634.72821526 1185.31195068 1636.68598938 C1187.08587881 1641.5903894 1188.85982036 1646.49478457 1190.63378906 1651.39916992 C1193.78436719 1660.10942473 1196.93486688 1668.81970785 1200.08483887 1677.53018188 C1208.21851242 1700.02182921 1216.356788 1722.51180423 1224.5 1745 C1232.98504354 1768.43219361 1241.46435832 1791.86645255 1249.93945312 1815.30224609 C1253.10371303 1824.05212079 1256.26862505 1832.80175963 1259.43347168 1841.55142212 C1261.20567296 1846.45093898 1262.97783452 1851.3504702 1264.75 1856.25 C1265.45833314 1858.2083334 1266.16666648 1860.16666674 1266.875 1862.125 C1268.29166667 1866.04166667 1269.70833333 1869.95833333 1271.125 1873.875 C1271.65096771 1875.32914558 1271.65096771 1875.32914558 1272.18756104 1876.81266785 C1272.89569168 1878.77044141 1273.60382157 1880.72821526 1274.31195068 1882.68598938 C1276.08587881 1887.5903894 1277.85982036 1892.49478457 1279.63378906 1897.39916992 C1282.78436719 1906.10942473 1285.93486688 1914.81970785 1289.08483887 1923.53018188 C1297.21851242 1946.02182921 1305.356788 1968.51180423 1313.5 1991 C1321.98504354 2014.43219361 1330.46435832 2037.86645255 1338.93945312 2061.30224609 C1342.10371303 2070.05212079 1345.26862505 2078.80175963 1348.43347168 2087.55142212 C1350.20567296 2092.45093898 1351.97783452 2097.3504702 1353.75 2102.25 C1354.45833314 2104.2083334 1355.16666648 2106.16666674 1355.875 2108.125 C1357.29166667 2112.04166667 1358.70833333 2115.95833333 1360.125 2119.875 C1360.47561996 2120.84435989 1360.82623993 2121.81371979 1361.18748474 2122.81245422 C1361.895872 2124.77093904 1362.6042562 2126.72942496 1363.31263733 2128.68791199 C1365.08262051 2133.58143676 1366.85265677 2138.47494232 1368.62280273 2143.3684082 C1371.81985927 2152.20664801 1375.01654717 2161.04502017 1378.21121216 2169.88412476 C1379.65052263 2173.86634929 1381.09014613 2177.84846064 1382.52978516 2181.83056641 C1383.18700096 2183.64870808 1383.84407995 2185.46689923 1384.50097656 2187.28515625 C1392.29903215 2208.86950691 1400.15703707 2230.43185195 1408 2252 C1408 2317.01 1408 2382.02 1408 2449 C1221.55 2449 1035.1 2449 843 2449 C832.30035974 2416.36609721 821.61953832 2383.75847087 811.19140625 2351.04296875 C806.16308232 2335.30660764 800.98286205 2319.61989774 795.81801224 2303.9279747 C789.47408902 2284.65246612 783.20464792 2265.35593422 777.05126953 2246.01855469 C771.08624471 2227.28355096 764.96440585 2208.60184025 758.81736374 2189.92602921 C752.82026588 2171.70453593 746.87805434 2153.46796661 741.0625 2135.1875 C734.82639669 2115.58555293 728.43461537 2096.0374169 722 2076.5 C715.24559808 2055.99161549 708.55205719 2035.46728608 702.00823975 2014.89047241 C695.3138063 1993.84978949 688.42566345 1972.87361304 681.51290989 1951.90385628 C680.62611786 1949.2132791 679.7402455 1946.52239952 678.85444069 1943.83149719 C678.24403589 1941.97881592 677.63201331 1940.12666791 677.01994324 1938.27453613 C676.65065201 1937.15309204 676.28136078 1936.03164795 675.90087891 1934.8762207 C675.58051666 1933.9056221 675.26015442 1932.9350235 674.93008423 1931.93501282 C673.88706827 1928.64362789 672.94852804 1925.31984813 672 1922 C415.92 1921.67 159.84 1921.34 -104 1921 C-104.66 1923.97 -105.32 1926.94 -106 1930 C-106.77462996 1932.59333221 -107.57214444 1935.15443411 -108.42895508 1937.71923828 C-108.66613282 1938.44096316 -108.90331057 1939.16268805 -109.14767551 1939.90628338 C-109.9341082 1942.29569649 -110.7267657 1944.68299377 -111.51953125 1947.0703125 C-112.08780397 1948.79209517 -112.65571639 1950.51399679 -113.22329712 1952.23600769 C-114.76021411 1956.89494314 -116.30273868 1961.5520044 -117.84638596 1966.20871353 C-119.1431755 1970.12316836 -120.43658509 1974.03873646 -121.73000813 1977.9543047 C-128.74942059 1999.20267368 -135.8051111 2020.43894979 -142.8828125 2041.66796875 C-143.20218718 2042.62593353 -143.52156185 2043.58389832 -143.85061455 2044.57089233 C-146.91962799 2053.77533966 -149.99069093 2062.97909458 -153.06915569 2072.18038559 C-159.03650937 2090.01778548 -164.95068706 2107.87019026 -170.75390625 2125.76171875 C-175.94065503 2141.75093632 -181.20898486 2157.71163157 -186.53125 2173.65625 C-186.89687105 2174.75167303 -187.2624921 2175.84709606 -187.63919258 2176.97571373 C-190.63346652 2185.94464707 -193.63170046 2194.91225564 -196.63006592 2203.87982178 C-199.2447862 2211.70052209 -201.857985 2219.52172836 -204.46875 2227.34375 C-205.01813988 2228.9896386 -205.01813988 2228.9896386 -205.57862854 2230.66877747 C-210.44662592 2245.25971815 -215.25665266 2259.868087 -220 2274.5 C-225.10369767 2290.24349397 -230.29112522 2305.95763237 -235.53125 2321.65625 C-235.89722794 2322.75274368 -236.26320587 2323.84923737 -236.64027405 2324.97895813 C-239.63418744 2333.94681002 -242.63206195 2342.91333677 -245.63006592 2351.87982178 C-248.24478622 2359.70052214 -250.85777816 2367.52179738 -253.46875 2375.34375 C-253.8298587 2376.42522308 -254.19096741 2377.50669617 -254.5630188 2378.62094116 C-260.37471007 2396.03379742 -266.09652979 2413.47471184 -271.73718262 2430.94372559 C-272.01195435 2431.79280487 -272.28672607 2432.64188416 -272.56982422 2433.51669312 C-273.07660271 2435.0831547 -273.58196678 2436.65007494 -274.08557129 2438.21755981 C-275.27153545 2441.88164613 -276.5672815 2445.41820376 -278 2449 C-453.89 2449 -629.78 2449 -811 2449 C-811 2250.23746831 -811 2250.23746831 -781.11901855 2167.56680298 C-779.78447316 2163.87454106 -778.45115089 2160.18183846 -777.11816406 2156.48901367 C-776.65087937 2155.19450362 -776.18359422 2153.89999373 -775.71630859 2152.60548401 C-775.36971191 2151.64530459 -775.36971191 2151.64530459 -775.01611328 2150.66572762 C-774.32870494 2148.76152924 -773.6411768 2146.85737416 -772.95361328 2144.95323181 C-768.54476428 2132.74240484 -764.14617243 2120.5278955 -759.75 2108.3125 C-759.01253737 2106.26358876 -758.27506994 2104.21467925 -757.53759766 2102.16577148 C-755.3582035 2096.11058447 -753.17907409 2090.0553022 -751 2084 C-748.08358459 2075.89574289 -745.1669974 2067.79154765 -742.25 2059.6875 C-741.88483276 2058.6729776 -741.51966553 2057.6584552 -741.14343262 2056.6131897 C-734.53480573 2038.2539401 -727.91548074 2019.8985553 -721.29434204 2001.54381561 C-714.77409587 1983.46867691 -708.257606 1965.39219445 -701.75 1947.3125 C-701.3845105 1946.29709137 -701.019021 1945.28168274 -700.64245605 1944.23550415 C-698.0947058 1937.15709809 -695.54730775 1930.07856531 -693 1923 C-690.08358459 1914.89574289 -687.1669974 1906.79154765 -684.25 1898.6875 C-683.88483276 1897.6729776 -683.51966553 1896.6584552 -683.14343262 1895.6131897 C-676.29884127 1876.59841355 -669.44275729 1857.58778858 -662.58508301 1838.57772827 C-656.38389217 1821.38736843 -650.18791102 1804.19514553 -644 1787 C-637.57677082 1769.15094558 -631.14449955 1751.30516518 -624.70744324 1733.4610939 C-617.71601485 1714.08024912 -610.7277205 1694.6982856 -603.75 1675.3125 C-603.3845105 1674.29709137 -603.019021 1673.28168274 -602.64245605 1672.23550415 C-600.0947058 1665.15709809 -597.54730775 1658.07856531 -595 1651 C-592.08358459 1642.89574289 -589.1669974 1634.79154765 -586.25 1626.6875 C-585.88483276 1625.6729776 -585.51966553 1624.6584552 -585.14343262 1623.6131897 C-578.53480573 1605.2539401 -571.91548074 1586.8985553 -565.29434204 1568.54381561 C-558.77409587 1550.46867691 -552.257606 1532.39219445 -545.75 1514.3125 C-545.3845105 1513.29709137 -545.019021 1512.28168274 -544.64245605 1511.23550415 C-542.0947058 1504.15709809 -539.54730775 1497.07856531 -537 1490 C-534.08358459 1481.89574289 -531.1669974 1473.79154765 -528.25 1465.6875 C-527.88483276 1464.6729776 -527.51966553 1463.6584552 -527.14343262 1462.6131897 C-520.53480573 1444.2539401 -513.91548074 1425.8985553 -507.29434204 1407.54381561 C-500.77409587 1389.46867691 -494.257606 1371.39219445 -487.75 1353.3125 C-487.3845105 1352.29709137 -487.019021 1351.28168274 -486.64245605 1350.23550415 C-484.0947058 1343.15709809 -481.54730775 1336.07856531 -479 1329 C-476.08358459 1320.89574289 -473.1669974 1312.79154765 -470.25 1304.6875 C-469.88483276 1303.6729776 -469.51966553 1302.6584552 -469.14343262 1301.6131897 C-462.53480573 1283.2539401 -455.91548074 1264.8985553 -449.29434204 1246.54381561 C-442.77409587 1228.46867691 -436.257606 1210.39219445 -429.75 1192.3125 C-429.3845105 1191.29709137 -429.019021 1190.28168274 -428.64245605 1189.23550415 C-426.0947058 1182.15709809 -423.54730775 1175.07856531 -421 1168 C-418.08358459 1159.89574289 -415.1669974 1151.79154765 -412.25 1143.6875 C-411.88483276 1142.6729776 -411.51966553 1141.6584552 -411.14343262 1140.6131897 C-404.53480573 1122.2539401 -397.91548074 1103.8985553 -391.29434204 1085.54381561 C-384.77409587 1067.46867691 -378.257606 1049.39219445 -371.75 1031.3125 C-371.3845105 1030.29709137 -371.019021 1029.28168274 -370.64245605 1028.23550415 C-368.0947058 1021.15709809 -365.54730775 1014.07856531 -363 1007 C-360.08358459 998.89574289 -357.1669974 990.79154765 -354.25 982.6875 C-353.88483276 981.6729776 -353.51966553 980.6584552 -353.14343262 979.6131897 C-346.53480573 961.2539401 -339.91548074 942.8985553 -333.29434204 924.54381561 C-326.77409587 906.46867691 -320.257606 888.39219445 -313.75 870.3125 C-313.3845105 869.29709137 -313.019021 868.28168274 -312.64245605 867.23550415 C-310.0947058 860.15709809 -307.54730775 853.07856531 -305 846 C-302.08358459 837.89574289 -299.1669974 829.79154765 -296.25 821.6875 C-295.70224915 820.1657164 -295.70224915 820.1657164 -295.14343262 818.6131897 C-288.29884127 799.59841355 -281.44275729 780.58778858 -274.58508301 761.57772827 C-268.38389217 744.38736843 -262.18791102 727.19514553 -256 710 C-249.57677082 692.15094558 -243.14449955 674.30516518 -236.70744324 656.4610939 C-229.71601485 637.08024912 -222.7277205 617.6982856 -215.75 598.3125 C-215.3845105 597.29709137 -215.019021 596.28168274 -214.64245605 595.23550415 C-212.0947058 588.15709809 -209.54730775 581.07856531 -207 574 C-204.08358459 565.89574289 -201.1669974 557.79154765 -198.25 549.6875 C-197.70224915 548.1657164 -197.70224915 548.1657164 -197.14343262 546.6131897 C-190.53480573 528.2539401 -183.91548074 509.8985553 -177.29434204 491.54381561 C-170.77409587 473.46867691 -164.257606 455.39219445 -157.75 437.3125 C-157.3845105 436.29709137 -157.019021 435.28168274 -156.64245605 434.23550415 C-154.0947058 427.15709809 -151.54730775 420.07856531 -149 413 C-146.08358459 404.89574289 -143.1669974 396.79154765 -140.25 388.6875 C-139.88483276 387.6729776 -139.51966553 386.6584552 -139.14343262 385.6131897 C-132.53480573 367.2539401 -125.91548074 348.8985553 -119.29434204 330.54381561 C-112.77409587 312.46867691 -106.257606 294.39219445 -99.75 276.3125 C-99.3845105 275.29709137 -99.019021 274.28168274 -98.64245605 273.23550415 C-96.0947058 266.15709809 -93.54730775 259.07856531 -91 252 C-88.08358459 243.89574289 -85.1669974 235.79154765 -82.25 227.6875 C-81.70224915 226.1657164 -81.70224915 226.1657164 -81.14343262 224.6131897 C-74.53480573 206.2539401 -67.91548074 187.8985553 -61.29434204 169.54381561 C-54.7740958 151.46867672 -48.25789082 133.39209205 -41.75 115.3125 C-41.01782374 113.27872668 -40.28564601 111.24495389 -39.5534668 109.21118164 C-36.22250108 99.95796159 -32.89314846 90.70416664 -29.56796265 81.4488678 C-28.02081061 77.14296985 -26.47277981 72.83738805 -24.92468262 68.53182983 C-24.21355725 66.55332702 -23.50282536 64.5746827 -22.79260254 62.59585571 C-15.29093435 41.69501779 -7.62995661 20.85521475 0 0 Z M287 752 C286.80558319 752.58547104 286.61116638 753.17094208 286.41085815 753.77415466 C284.30216473 760.12315134 282.19097686 766.4713153 280.07861328 772.8190918 C279.30068609 775.15776499 278.52330437 777.49661973 277.74658203 779.83569336 C273.9140231 791.37606577 270.06885811 802.91141546 266.12011719 814.41259766 C265.86689257 815.15025769 265.61366795 815.88791773 265.35276985 816.6479311 C265.09211172 817.40724021 264.83145359 818.16654932 264.56289673 818.9488678 C257.39452573 839.83369498 250.38244241 860.76914381 243.40625 881.71875 C243.14712782 882.49682109 242.88800565 883.27489218 242.62103128 884.07654119 C238.57805564 896.21681857 234.53869435 908.35829782 230.5 920.5 C226.1998501 933.42772734 221.89856491 946.35507521 217.59375 959.28125 C217.33280611 960.06487097 217.07186222 960.84849194 216.80301094 961.65585899 C210.67693022 980.05131188 204.52335195 998.43554081 198.21920776 1016.77090454 C192.16839886 1034.38229135 186.28959743 1052.05091187 180.40625 1069.71875 C180.14615206 1070.49975256 179.88605412 1071.28075512 179.61807442 1072.08542442 C175.57608721 1084.22274166 171.53770934 1096.3612591 167.5 1108.5 C163.1998501 1121.42772734 158.89856491 1134.35507521 154.59375 1147.28125 C154.20233417 1148.45668145 154.20233417 1148.45668145 153.80301094 1149.65585899 C147.67693022 1168.05131188 141.52335195 1186.43554081 135.21920776 1204.77090454 C129.16839886 1222.38229135 123.28959743 1240.05091187 117.40625 1257.71875 C117.14615206 1258.49975256 116.88605412 1259.28075512 116.61807442 1260.08542442 C112.57608721 1272.22274166 108.53770934 1284.3612591 104.5 1296.5 C100.46075025 1308.64337192 96.42047305 1320.78640038 92.37717438 1332.92842484 C91.59722126 1335.27082491 90.81748956 1337.61329861 90.03778076 1339.95578003 C83.39407225 1359.91256193 76.70773377 1379.85321241 69.81774902 1399.72668457 C69.55837051 1400.47824829 69.298992 1401.22981201 69.03175354 1402.00415039 C68.3603769 1403.94868682 67.68531758 1405.89195074 67.0098877 1407.83508301 C65.8502475 1411.2666822 65.8502475 1411.2666822 65 1416 C209.87 1416 354.74 1416 504 1416 C496.53788344 1392.46563239 489.07405384 1368.95255254 481.33125687 1345.5126915 C479.28025294 1339.29939789 477.23741578 1333.08341107 475.1953125 1326.8671875 C474.97044977 1326.18279036 474.74558704 1325.49839321 474.51391029 1324.79325676 C470.29482006 1311.94643956 466.16121814 1299.07319517 462.0625 1286.1875 C455.82662276 1266.58548273 449.4346145 1247.03741424 443 1227.5 C436.24084322 1206.97717832 429.54462661 1186.43780017 422.99414062 1165.84716797 C417.26975356 1147.86256017 411.40069273 1129.92729095 405.5 1112 C399.27495715 1093.08727916 393.09871368 1074.16158163 387.0625 1055.1875 C380.82639669 1035.58555293 374.43461537 1016.0374169 368 996.5 C361.24084322 975.97717832 354.54462661 955.43780017 347.99414062 934.84716797 C342.26975286 916.86255796 336.40055426 898.92733798 330.5 881 C324.13115628 861.6492708 317.81333702 842.28443745 311.625 822.875 C310.98561167 820.8717951 310.34612698 818.86862095 309.70654297 816.86547852 C309.39321014 815.88411423 309.07987732 814.90274994 308.75704956 813.89164734 C307.17195004 808.92757819 305.58652435 803.96361399 304 799 C303.65694824 797.92663391 303.31389648 796.85326782 302.96044922 795.74737549 C300.85961452 789.17865819 298.74998075 782.6128678 296.62908936 776.05059814 C295.96460105 773.99040569 295.30281586 771.92933924 294.64385986 769.86737061 C293.7409652 767.0433667 292.82876153 764.22254233 291.9140625 761.40234375 C291.647146 760.56026871 291.38022949 759.71819366 291.10522461 758.8506012 C290.46069847 756.88075124 289.73807348 754.93674219 289 753 C288.01 752.505 288.01 752.505 287 752 Z " fill="#000000" transform="translate(3275,1200)"/>
<path d="M0 0 C190.74 0 381.48 0 578 0 C582.50053271 11.25133177 582.50053271 11.25133177 584.43505859 17.06225586 C584.75380699 18.01568752 584.75380699 18.01568752 585.07899475 18.98838043 C585.77170764 21.06291489 586.46014287 23.13883965 587.1484375 25.21484375 C587.64191213 26.69612617 588.13562082 28.17733064 588.62954712 29.65846252 C589.94313837 33.60038133 591.25277892 37.54360165 592.5614624 41.4871521 C593.38085268 43.95512809 594.20144798 46.4227001 595.02246094 48.89013672 C601.33649628 67.86615134 607.61819305 86.85164843 613.76971436 105.881073 C619.72517661 124.29441842 625.8683734 142.64478048 632 161 C644.7934676 199.29767789 644.7934676 199.29767789 650.9375 218.3125 C657.32666546 238.08558523 663.91671925 257.79093037 670.5 277.5 C677.34683593 297.99810286 684.18476453 318.49682537 690.82958984 339.06152344 C696.76438473 357.41494198 702.88846151 375.7048929 709 394 C721.79367331 432.29831454 721.79367331 432.29831454 727.9375 451.3125 C734.32666546 471.08558523 740.91671925 490.79093037 747.5 510.5 C754.34683593 530.99810286 761.18476453 551.49682537 767.82958984 572.06152344 C773.76438473 590.41494198 779.88846151 608.7048929 786 627 C798.79367331 665.29831454 798.79367331 665.29831454 804.9375 684.3125 C811.32666546 704.08558523 817.91671925 723.79093037 824.5 743.5 C831.34683593 763.99810286 838.18476453 784.49682537 844.82958984 805.06152344 C850.76438473 823.41494198 856.88846151 841.7048929 863 860 C875.79367331 898.29831454 875.79367331 898.29831454 881.9375 917.3125 C888.32666548 937.08558527 894.9167222 956.79092936 901.5 976.5 C908.32432908 996.93074422 915.14039508 1017.36187639 921.76220703 1037.859375 C928.15155821 1057.62075426 934.75810559 1077.3098698 941.33787155 1097.00842667 C947.90515454 1116.6704995 954.45581025 1136.3356696 960.82958984 1156.06152344 C966.76438473 1174.41494198 972.88846151 1192.7048929 979 1211 C991.79367331 1249.29831454 991.79367331 1249.29831454 997.9375 1268.3125 C1004.32666546 1288.08558523 1010.91671925 1307.79093037 1017.5 1327.5 C1024.34683593 1347.99810286 1031.18476453 1368.49682537 1037.82958984 1389.06152344 C1043.76438473 1407.41494198 1049.88846151 1425.7048929 1056 1444 C1062.63816596 1463.87158511 1069.26163362 1483.74550576 1075.70306396 1503.6819458 C1079.72981726 1516.1342272 1083.83942516 1528.55801102 1087.98046875 1540.97265625 C1088.25039831 1541.78193636 1088.52032787 1542.59121647 1088.79843712 1543.42502022 C1091.52642448 1551.60236889 1094.25760559 1559.77864431 1096.99373913 1567.95327091 C1098.28078652 1571.79920694 1099.56648749 1575.64559202 1100.8515625 1579.4921875 C1101.10269617 1580.24369017 1101.35382984 1580.99519283 1101.61257362 1581.76946831 C1106.25463225 1595.6703727 1110.78809141 1609.60565041 1115.27505493 1623.55734253 C1115.639932 1624.68911989 1115.639932 1624.68911989 1116.01218033 1625.84376144 C1116.46718403 1627.25535391 1116.92086949 1628.66737222 1117.37301254 1630.07988358 C1118.51014511 1633.60972373 1118.51014511 1633.60972373 1120 1637 C1120.24817474 1636.22233276 1120.49634949 1635.44466553 1120.75204468 1634.64343262 C1123.69548745 1625.42046121 1126.63976169 1616.19775544 1129.58462906 1606.9752388 C1130.11115165 1605.32630526 1130.63765873 1603.67736677 1131.16415024 1602.02842331 C1138.18769089 1580.03137458 1145.23181291 1558.04122713 1152.3125 1536.0625 C1158.56889258 1516.64217298 1164.73390249 1497.19449347 1170.85684204 1477.73171997 C1177.36426368 1457.05908208 1184.01648606 1436.43558951 1190.70699692 1415.82169724 C1197.61814384 1394.52675118 1204.4382906 1373.20656532 1211.15136719 1351.84814453 C1217.38995028 1332.00699286 1223.7595584 1312.21056588 1230.17246246 1292.4253006 C1236.50988363 1272.87145957 1242.77409301 1253.29708411 1248.9375 1233.6875 C1255.74575282 1212.02681936 1262.69812834 1190.41603213 1269.70760345 1168.81987762 C1276.61860347 1147.5255569 1283.4384827 1126.20595415 1290.15136719 1104.84814453 C1296.38995028 1085.00699286 1302.7595584 1065.21056588 1309.17246246 1045.4253006 C1315.50988363 1025.87145957 1321.77409301 1006.29708411 1327.9375 986.6875 C1334.74589351 965.02637176 1341.69832453 943.41510593 1348.70804977 921.81853867 C1355.22495025 901.73894525 1361.67150894 881.63999521 1368 861.5 C1374.55768923 840.63059713 1381.24665935 819.80666082 1388 799 C1395.14739671 776.97907517 1402.20936754 754.93491022 1409.15136719 732.84814453 C1415.38995028 713.00699286 1421.7595584 693.21056588 1428.17246246 673.4253006 C1434.50988363 653.87145957 1440.77409301 634.29708411 1446.9375 614.6875 C1453.74575282 593.02681936 1460.69812834 571.41603213 1467.70760345 549.81987762 C1474.61860347 528.5255569 1481.4384827 507.20595415 1488.15136719 485.84814453 C1494.38995028 466.00699286 1500.7595584 446.21056588 1507.17246246 426.4253006 C1513.50988363 406.87145957 1519.77409301 387.29708411 1525.9375 367.6875 C1532.74589351 346.02637176 1539.69832453 324.41510593 1546.70804977 302.81853867 C1553.22495025 282.73894525 1559.67150894 262.63999521 1566 242.5 C1572.55768923 221.63059713 1579.24665935 200.80666082 1586 180 C1592.77364482 159.13059404 1599.4827926 138.24408561 1606.0625 117.3125 C1612.43840595 97.0338725 1618.90340345 76.78576855 1625.43973923 56.55837631 C1626.11111401 54.48047701 1626.7820572 52.40243878 1627.45291138 50.32437134 C1628.71944027 46.4018711 1629.98838533 42.48015702 1631.2578125 38.55859375 C1631.79910545 36.88339157 1631.79910545 36.88339157 1632.35133362 35.17434692 C1636.16123126 23.42428239 1640.09337377 11.71987868 1644 0 C1832.43 0 2020.86 0 2215 0 C2215 203 2215 203 2202 239 C2198.60568149 248.43456382 2195.21238988 257.86947744 2191.82327271 267.3059082 C2190.60181374 270.70662592 2189.37999189 274.10721326 2188.15820312 277.5078125 C2186.37251036 282.47799892 2184.58690599 287.44821708 2182.80142593 292.41847992 C2179.60525073 301.31568011 2176.40831628 310.21260727 2173.2109375 319.109375 C2172.97491444 319.76611458 2172.73889137 320.42285416 2172.49571609 321.09949493 C2171.30629775 324.40906652 2170.11686642 327.71863344 2168.9274292 331.02819824 C2166.77467199 337.01818479 2164.62203062 343.00821296 2162.46937943 348.99823761 C2161.27125759 352.33216007 2160.07312843 355.66607991 2158.875 359 C2158.3958333 360.33333332 2157.91666663 361.66666665 2157.4375 363 C2154.56249895 371.00000293 2154.56249895 371.00000293 2153.84374619 373.00001049 C2153.36459213 374.33330882 2152.88543818 375.66660718 2152.40628433 376.99990559 C2151.2081756 380.33377482 2150.01006503 383.6676434 2148.81195068 387.00151062 C2146.65799225 392.99511061 2144.50404646 398.98871513 2142.35017014 404.98234463 C2141.15533092 408.30724346 2139.96048082 411.63213838 2138.765625 414.95703125 C2138.52892342 415.61569498 2138.29222183 416.27435871 2138.04834747 416.95298195 C2134.6483876 426.41389895 2131.24780618 435.87459238 2127.84687233 445.3351593 C2125.64778158 451.45255828 2123.44885677 457.57001691 2121.25 463.6875 C2121.01012486 464.3548542 2120.77024971 465.0222084 2120.52310562 465.70978546 C2113.73513091 484.59481168 2106.95654102 503.48317727 2100.1875 522.375 C2094.22146883 539.02557746 2088.24360558 555.67182802 2082.25 572.3125 C2075.34750611 591.47677548 2068.45163069 610.64341734 2061.5625 629.8125 C2061.31861164 630.49110455 2061.07472328 631.16970909 2060.82344437 631.86887741 C2053.54428568 652.1229781 2046.27627994 672.38105154 2039.01687622 692.64224243 C2032.98850976 709.46662259 2026.9412923 726.28414099 2020.88388062 743.0980835 C2015.07377075 759.22652251 2009.28180272 775.36139289 2003.5 791.5 C1996.97823689 809.70404078 1990.43934942 827.9018146 1983.88525391 846.09423828 C1978.07468882 862.22396009 1972.28233121 878.36013644 1966.5 894.5 C1960.42996453 911.44230445 1954.3487682 928.38051673 1948.25 945.3125 C1941.34744114 964.47675205 1934.45163067 983.64341739 1927.5625 1002.8125 C1927.31861164 1003.49110455 1927.07472328 1004.16970909 1926.82344437 1004.86887741 C1919.54428568 1025.1229781 1912.27627994 1045.38105154 1905.01687622 1065.64224243 C1898.98850976 1082.46662259 1892.9412923 1099.28414099 1886.88388062 1116.0980835 C1881.0737707 1132.22652265 1875.28187219 1148.3614177 1869.5 1164.5 C1863.42996453 1181.44230445 1857.3487682 1198.38051673 1851.25 1215.3125 C1844.34744114 1234.47675205 1837.45163067 1253.64341739 1830.5625 1272.8125 C1830.31861164 1273.49110455 1830.07472328 1274.16970909 1829.82344437 1274.86887741 C1822.54428568 1295.1229781 1815.27627994 1315.38105154 1808.01687622 1335.64224243 C1801.98850976 1352.46662259 1795.9412923 1369.28414099 1789.88388062 1386.0980835 C1784.07377075 1402.22652251 1778.28180272 1418.36139289 1772.5 1434.5 C1765.97823689 1452.70404078 1759.43934942 1470.9018146 1752.88525391 1489.09423828 C1747.07468882 1505.22396009 1741.28233121 1521.36013644 1735.5 1537.5 C1729.42996453 1554.44230445 1723.3487682 1571.38051673 1717.25 1588.3125 C1710.34744114 1607.47675205 1703.45163067 1626.64341739 1696.5625 1645.8125 C1696.31861164 1646.49110455 1696.07472328 1647.16970909 1695.82344437 1647.86887741 C1688.54428568 1668.1229781 1681.27627994 1688.38105154 1674.01687622 1708.64224243 C1667.98850976 1725.46662259 1661.9412923 1742.28414099 1655.88388062 1759.0980835 C1650.0737707 1775.22652265 1644.28187219 1791.3614177 1638.5 1807.5 C1632.42996453 1824.44230445 1626.3487682 1841.38051673 1620.25 1858.3125 C1613.34744114 1877.47675205 1606.45163067 1896.64341739 1599.5625 1915.8125 C1599.31861164 1916.49110455 1599.07472328 1917.16970909 1598.82344437 1917.86887741 C1591.54428568 1938.1229781 1584.27627994 1958.38105154 1577.01687622 1978.64224243 C1570.98850976 1995.46662259 1564.9412923 2012.28414099 1558.88388062 2029.0980835 C1553.07377075 2045.22652251 1547.28180272 2061.36139289 1541.5 2077.5 C1534.97823689 2095.70404078 1528.43934942 2113.9018146 1521.88525391 2132.09423828 C1516.07468882 2148.22396009 1510.28233121 2164.36013644 1504.5 2180.5 C1498.42996453 2197.44230445 1492.3487682 2214.38051673 1486.25 2231.3125 C1479.34744114 2250.47675205 1472.45163067 2269.64341739 1465.5625 2288.8125 C1465.31861164 2289.49110455 1465.07472328 2290.16970909 1464.82344437 2290.86887741 C1457.5476613 2311.11358552 1450.28316367 2331.36231351 1443.02694702 2351.61404419 C1434.37767861 2375.75220281 1425.69031722 2399.87659588 1417 2424 C1412.545 2436.375 1412.545 2436.375 1408 2449 C1210.99 2449 1013.98 2449 811 2449 C800.11 2418.805 800.11 2418.805 789 2388 C781.42888741 2367.19098662 781.42888741 2367.19098662 773.85546875 2346.3828125 C768.28199464 2331.0443445 762.77666953 2315.68175377 757.27783203 2300.31640625 C751.27185749 2283.53554426 745.23717709 2266.76514645 739.1875 2250 C738.72397849 2248.71539313 738.26045717 2247.4307862 737.79693604 2246.1461792 C735.93216441 2240.97828413 734.06720735 2235.81045602 732.20196533 2230.64273071 C727.81820418 2218.49733082 723.43740379 2206.35086409 719.05711842 2194.20421028 C717.45665076 2189.76611499 715.85594304 2185.32810634 714.25512695 2180.89013672 C709.87686733 2168.75198496 705.49993601 2156.61335786 701.12656975 2144.47344208 C699.04318407 2138.69045835 696.95920879 2132.90768712 694.875 2127.125 C694.64685482 2126.49197968 694.41870964 2125.85895935 694.18365097 2125.20675659 C687.42648321 2106.45904442 680.63308022 2087.72474399 673.8125 2069 C666.57386332 2049.12688398 659.40435442 2029.22997767 652.27783203 2009.31640625 C646.27185777 1992.53554506 640.23743441 1975.76505317 634.1875 1959 C633.95848495 1958.36537338 633.72946991 1957.73074677 633.49351501 1957.07688904 C631.39957194 1951.27448764 629.30542041 1945.47216148 627.21102905 1939.66992188 C624.17577815 1931.26071313 621.14369415 1922.85036812 618.11374664 1914.43924713 C616.03460145 1908.66767395 613.95494277 1902.89628579 611.875 1897.125 C611.64705498 1896.49251343 611.41910995 1895.86002686 611.18425751 1895.20837402 C604.42696783 1876.46009404 597.63327711 1857.72528453 590.8125 1839 C583.57386332 1819.12688398 576.40435442 1799.22997767 569.27783203 1779.31640625 C563.27185749 1762.53554426 557.23717709 1745.76514645 551.1875 1729 C550.72397849 1727.71539313 550.26045717 1726.4307862 549.79693604 1725.1461792 C547.93216441 1719.97828413 546.06720735 1714.81045602 544.20196533 1709.64273071 C539.81820418 1697.49733082 535.43740379 1685.35086409 531.05711842 1673.20421028 C529.45665076 1668.76611499 527.85594304 1664.32810634 526.25512695 1659.89013672 C521.87686733 1647.75198496 517.49993601 1635.61335786 513.12656975 1623.47344208 C511.04318407 1617.69045835 508.95920879 1611.90768712 506.875 1606.125 C506.64685482 1605.49197968 506.41870964 1604.85895935 506.18365097 1604.20675659 C499.42648321 1585.45904442 492.63308022 1566.72474399 485.8125 1548 C478.57386332 1528.12688398 471.40435442 1508.22997767 464.27783203 1488.31640625 C458.27185749 1471.53554426 452.23717709 1454.76514645 446.1875 1438 C445.72397849 1436.71539313 445.26045717 1435.4307862 444.79693604 1434.1461792 C442.93216441 1428.97828413 441.06720735 1423.81045602 439.20196533 1418.64273071 C434.81793034 1406.49657213 430.43685312 1394.34934776 426.05626869 1382.20194435 C424.45819942 1377.77049338 422.85999811 1373.33909005 421.26171875 1368.90771484 C416.85218881 1356.68183276 412.44310176 1344.45579129 408.03504562 1332.22937775 C405.91933706 1326.36120136 403.80347187 1320.49308145 401.6875 1314.625 C401.45634491 1313.98395325 401.22518982 1313.34290649 400.98703003 1312.68243408 C394.83375647 1295.61833693 388.67301487 1278.55696605 382.5 1261.5 C373.73193442 1237.27251957 364.99201707 1213.03490045 356.25332642 1188.79681396 C352.99623609 1179.76278935 349.73858127 1170.7289685 346.48046875 1161.6953125 C346.25413443 1161.06775558 346.0278001 1160.44019867 345.79460716 1159.79362488 C343.51056188 1153.46065696 341.22644024 1147.12771659 338.94212627 1140.79484558 C337.79732176 1137.62105488 336.65255731 1134.44724973 335.5078125 1131.2734375 C335.16782195 1130.3308181 335.16782195 1130.3308181 334.82096291 1129.36915588 C331.58764055 1120.40458689 328.35647153 1111.439244 325.12656975 1102.47344208 C323.04318407 1096.69045835 320.95920879 1090.90768712 318.875 1085.125 C318.64685482 1084.49197968 318.41870964 1083.85895935 318.18365097 1083.20675659 C311.42648321 1064.45904442 304.63308022 1045.72474399 297.8125 1027 C290.57386332 1007.12688398 283.40435442 987.22997767 276.27783203 967.31640625 C270.27185749 950.53554426 264.23717709 933.76514645 258.1875 917 C257.72397849 915.71539313 257.26045717 914.4307862 256.79693604 913.1461792 C254.93216441 907.97828413 253.06720735 902.81045602 251.20196533 897.64273071 C246.81820418 885.49733082 242.43740379 873.35086409 238.05711842 861.20421028 C236.45665076 856.76611499 234.85594304 852.32810634 233.25512695 847.89013672 C228.87686733 835.75198496 224.49993601 823.61335786 220.12656975 811.47344208 C218.04318407 805.69045835 215.95920879 799.90768712 213.875 794.125 C213.64685482 793.49197968 213.41870964 792.85895935 213.18365097 792.20675659 C206.42648321 773.45904442 199.63308022 754.72474399 192.8125 736 C185.57386332 716.12688398 178.40435442 696.22997767 171.27783203 676.31640625 C165.27185777 659.53554506 159.23743441 642.76505317 153.1875 626 C152.95848495 625.36537338 152.72946991 624.73074677 152.49351501 624.07688904 C150.39957194 618.27448764 148.30542041 612.47216148 146.21102905 606.66992188 C143.17577815 598.26071313 140.14369415 589.85036812 137.11374664 581.43924713 C135.03460145 575.66767395 132.95494277 569.89628579 130.875 564.125 C130.64705498 563.49251343 130.41910995 562.86002686 130.18425751 562.20837402 C123.42696783 543.46009404 116.63327711 524.72528453 109.8125 506 C102.57386332 486.12688398 95.40435442 466.22997767 88.27783203 446.31640625 C82.27185749 429.53554426 76.23717709 412.76514645 70.1875 396 C69.72397849 394.71539313 69.26045717 393.4307862 68.79693604 392.1461792 C66.93216441 386.97828413 65.06720735 381.81045602 63.20196533 376.64273071 C58.81772767 364.49601062 54.43645297 352.34822292 50.05570221 340.2002449 C48.45940349 335.77371277 46.86281979 331.34728349 45.26611328 326.92089844 C41.07409886 315.29951746 36.88324361 303.6777231 32.69717407 292.05419922 C31.01526208 287.38404359 29.3326749 282.71413129 27.64995766 278.04426575 C26.524145 274.9197633 25.39878771 271.79509886 24.27416992 268.67016602 C16.26507651 246.41609374 8.12642318 224.21222337 0 202 C0 135.34 0 68.68 0 0 Z " fill="#000000" transform="translate(10199,1200)"/>
<path d="M0 0 C247.5 0 495 0 750 0 C750 1091.31 750 2182.62 750 3307 C502.5 3307 255 3307 0 3307 C0 3141.67 0 2976.34 0 2806 C83.16 2806 166.32 2806 252 2806 C252 2045.68 252 1285.36 252 502 C168.84 502 85.68 502 0 502 C0 336.34 0 170.68 0 0 Z " fill="#000000" transform="translate(13240,902)"/>
<path d="M0 0 C247.17 0 494.34 0 749 0 C749 165.66 749 331.32 749 502 C666.17 502 583.34 502 498 502 C498 1262.32 498 2022.64 498 2806 C580.83 2806 663.66 2806 749 2806 C749 2971.33 749 3136.66 749 3307 C501.83 3307 254.66 3307 0 3307 C0 2215.69 0 1124.38 0 0 Z " fill="#000000" transform="translate(854,902)"/>
<path d="M0 0 C198.99 0 397.98 0 603 0 C603 808.17 603 1616.34 603 2449 C404.01 2449 205.02 2449 0 2449 C0 1640.83 0 832.66 0 0 Z " fill="#000000" transform="translate(9334,1200)"/>
</svg>
