<?xml version="1.0" encoding="UTF-8"?>
<svg version="1.1" xmlns="http://www.w3.org/2000/svg" width="15939" height="13262">
<path d="M0 0 C415.8 0 831.6 0 1260 0 C1270.32324501 27.52865335 1270.32324501 27.52865335 1274.34765625 38.796875 C1274.80613894 40.07614856 1275.264804 41.35535677 1275.72363281 42.63450623 C1276.68059642 45.3031662 1277.63663103 47.97215594 1278.59182739 50.64144897 C1281.12959986 57.73264391 1283.67440681 64.82131689 1286.21875 71.91015625 C1286.47116014 72.61355448 1286.72357029 73.31695271 1286.98362923 74.04166603 C1291.31171291 86.10180558 1295.67286836 98.14962441 1300.0625 110.1875 C1306.09244006 126.72679228 1312.07478742 143.28298903 1318.04130173 159.84524918 C1325.32908468 180.07515175 1332.64188165 200.29553949 1340 220.5 C1347.01324317 239.75860774 1353.98953656 259.03026848 1360.9375 278.3125 C1361.39936315 279.59425864 1361.86122635 280.87601727 1362.3230896 282.15777588 C1362.55158065 282.79188385 1362.7800717 283.42599182 1363.01548672 284.07931519 C1364.1691011 287.28076932 1365.32279359 290.4821953 1366.4765625 293.68359375 C1366.70496386 294.3173568 1366.93336521 294.95111984 1367.16868782 295.60408783 C1372.36908837 310.03287094 1377.5889672 324.45457536 1382.8125 338.875 C1383.24887787 340.07972961 1383.68525574 341.28445923 1384.13485718 342.5256958 C1385.85932284 347.28642172 1387.58383311 352.04713148 1389.30845642 356.80780029 C1393.45929083 368.26637918 1397.60527323 379.72671072 1401.75 391.1875 C1402.09398834 392.13864685 1402.43797668 393.0897937 1402.79238892 394.06976318 C1404.5081343 398.81390343 1406.22381543 403.5580669 1407.93945312 408.30224609 C1410.03754097 414.10392052 1412.13591952 419.90548978 1414.234375 425.70703125 C1414.58580566 426.67862183 1414.93723633 427.6502124 1415.29931641 428.65124512 C1416.36620636 431.60083173 1417.43310204 434.55041628 1418.5 437.5 C1426.32525446 459.13397441 1426.32525446 459.13397441 1430.08483887 469.53018188 C1438.21851242 492.02182921 1446.356788 514.51180423 1454.5 537 C1462.98504354 560.43219361 1471.46435832 583.86645255 1479.93945312 607.30224609 C1482.03754097 613.10392052 1484.13591952 618.90548978 1486.234375 624.70703125 C1486.58580566 625.67862183 1486.93723633 626.6502124 1487.29931641 627.65124512 C1488.36620636 630.60083173 1489.43310204 633.55041628 1490.5 636.5 C1498.32525446 658.1339744 1498.32525446 658.1339744 1502.08483887 668.53018188 C1510.21851242 691.02182921 1518.356788 713.51180423 1526.5 736 C1534.98504354 759.43219361 1543.46435832 782.86645255 1551.93945312 806.30224609 C1555.10371303 815.05212079 1558.26862505 823.80175963 1561.43347168 832.55142212 C1563.20567296 837.45093898 1564.97783452 842.3504702 1566.75 847.25 C1567.45833314 849.2083334 1568.16666648 851.16666674 1568.875 853.125 C1570.29166667 857.04166667 1571.70833333 860.95833333 1573.125 864.875 C1573.47564514 865.84443039 1573.82629028 866.81386078 1574.18756104 867.81266785 C1574.89569168 869.77044141 1575.60382157 871.72821526 1576.31195068 873.68598938 C1578.08587881 878.5903894 1579.85982036 883.49478457 1581.63378906 888.39916992 C1584.78436719 897.10942473 1587.93486688 905.81970785 1591.08483887 914.53018188 C1599.21851242 937.02182921 1607.356788 959.51180423 1615.5 982 C1623.98504354 1005.43219361 1632.46435832 1028.86645255 1640.93945312 1052.30224609 C1643.03754097 1058.10392052 1645.13591952 1063.90548978 1647.234375 1069.70703125 C1647.58580566 1070.67862183 1647.93723633 1071.6502124 1648.29931641 1072.65124512 C1649.36620636 1075.60083173 1650.43310204 1078.55041628 1651.5 1081.5 C1659.32525446 1103.1339744 1659.32525446 1103.1339744 1663.08483887 1113.53018188 C1671.21851242 1136.02182921 1679.356788 1158.51180423 1687.5 1181 C1695.98504354 1204.43219361 1704.46435832 1227.86645255 1712.93945312 1251.30224609 C1715.03754097 1257.10392052 1717.13591952 1262.90548978 1719.234375 1268.70703125 C1719.58580566 1269.67862183 1719.93723633 1270.6502124 1720.29931641 1271.65124512 C1721.36620636 1274.60083173 1722.43310204 1277.55041628 1723.5 1280.5 C1731.32525446 1302.1339744 1731.32525446 1302.1339744 1735.08483887 1312.53018188 C1743.21851242 1335.02182921 1751.356788 1357.51180423 1759.5 1380 C1767.98504354 1403.43219361 1776.46435832 1426.86645255 1784.93945312 1450.30224609 C1788.10371303 1459.05212079 1791.26862505 1467.80175963 1794.43347168 1476.55142212 C1796.20567296 1481.45093898 1797.97783452 1486.3504702 1799.75 1491.25 C1800.45833314 1493.2083334 1801.16666648 1495.16666674 1801.875 1497.125 C1803.29166667 1501.04166667 1804.70833333 1504.95833333 1806.125 1508.875 C1806.65096771 1510.32914558 1806.65096771 1510.32914558 1807.18756104 1511.81266785 C1807.89569168 1513.77044141 1808.60382157 1515.72821526 1809.31195068 1517.68598938 C1811.08587881 1522.5903894 1812.85982036 1527.49478457 1814.63378906 1532.39916992 C1817.78436719 1541.10942473 1820.93486688 1549.81970785 1824.08483887 1558.53018188 C1832.21851242 1581.02182921 1840.356788 1603.51180423 1848.5 1626 C1856.98504354 1649.43219361 1865.46435832 1672.86645255 1873.93945312 1696.30224609 C1876.03754097 1702.10392052 1878.13591952 1707.90548978 1880.234375 1713.70703125 C1880.58580566 1714.67862183 1880.93723633 1715.6502124 1881.29931641 1716.65124512 C1882.36620636 1719.60083173 1883.43310204 1722.55041628 1884.5 1725.5 C1892.32525446 1747.1339744 1892.32525446 1747.1339744 1896.08483887 1757.53018188 C1904.21851242 1780.02182921 1912.356788 1802.51180423 1920.5 1825 C1928.98504354 1848.43219361 1937.46435832 1871.86645255 1945.93945312 1895.30224609 C1948.03754097 1901.10392052 1950.13591952 1906.90548978 1952.234375 1912.70703125 C1952.58580566 1913.67862183 1952.93723633 1914.6502124 1953.29931641 1915.65124512 C1954.36620636 1918.60083173 1955.43310204 1921.55041628 1956.5 1924.5 C1964.32525446 1946.1339744 1964.32525446 1946.1339744 1968.08483887 1956.53018188 C1976.21851242 1979.02182921 1984.356788 2001.51180423 1992.5 2024 C2000.98504354 2047.43219361 2009.46435832 2070.86645255 2017.93945312 2094.30224609 C2021.10371303 2103.05212079 2024.26862505 2111.80175963 2027.43347168 2120.55142212 C2029.20567296 2125.45093898 2030.97783452 2130.3504702 2032.75 2135.25 C2033.45833314 2137.2083334 2034.16666648 2139.16666674 2034.875 2141.125 C2036.29166667 2145.04166667 2037.70833333 2148.95833333 2039.125 2152.875 C2039.65096771 2154.32914558 2039.65096771 2154.32914558 2040.18756104 2155.81266785 C2040.89569168 2157.77044141 2041.60382157 2159.72821526 2042.31195068 2161.68598938 C2044.08587881 2166.5903894 2045.85982036 2171.49478457 2047.63378906 2176.39916992 C2050.78436719 2185.10942473 2053.93486688 2193.81970785 2057.08483887 2202.53018188 C2065.21851242 2225.02182921 2073.356788 2247.51180423 2081.5 2270 C2089.98504354 2293.43219361 2098.46435832 2316.86645255 2106.93945312 2340.30224609 C2109.03754097 2346.10392052 2111.13591952 2351.90548978 2113.234375 2357.70703125 C2113.58580566 2358.67862183 2113.93723633 2359.6502124 2114.29931641 2360.65124512 C2115.36620636 2363.60083173 2116.43310204 2366.55041628 2117.5 2369.5 C2125.32525445 2391.1339744 2125.32525445 2391.1339744 2129.08483887 2401.53018188 C2137.21851242 2424.02182921 2145.356788 2446.51180423 2153.5 2469 C2161.98504354 2492.43219361 2170.46435832 2515.86645255 2178.93945312 2539.30224609 C2181.03754097 2545.10392052 2183.13591952 2550.90548978 2185.234375 2556.70703125 C2185.58580566 2557.67862183 2185.93723633 2558.6502124 2186.29931641 2559.65124512 C2187.36620636 2562.60083173 2188.43310204 2565.55041628 2189.5 2568.5 C2197.32525446 2590.1339744 2197.32525446 2590.1339744 2201.08483887 2600.53018188 C2209.21851242 2623.02182921 2217.356788 2645.51180423 2225.5 2668 C2233.98504354 2691.43219361 2242.46435832 2714.86645255 2250.93945312 2738.30224609 C2254.10371303 2747.05212079 2257.26862505 2755.80175963 2260.43347168 2764.55142212 C2262.20567296 2769.45093898 2263.97783452 2774.3504702 2265.75 2779.25 C2266.45833314 2781.2083334 2267.16666648 2783.16666674 2267.875 2785.125 C2269.29166667 2789.04166667 2270.70833333 2792.95833333 2272.125 2796.875 C2272.65096771 2798.32914558 2272.65096771 2798.32914558 2273.18756104 2799.81266785 C2273.89569168 2801.77044141 2274.60382157 2803.72821526 2275.31195068 2805.68598938 C2277.08587881 2810.5903894 2278.85982036 2815.49478457 2280.63378906 2820.39916992 C2283.78436719 2829.10942473 2286.93486688 2837.81970785 2290.08483887 2846.53018188 C2298.21851242 2869.02182921 2306.356788 2891.51180423 2314.5 2914 C2322.98504354 2937.43219361 2331.46435832 2960.86645255 2339.93945312 2984.30224609 C2342.03754097 2990.10392052 2344.13591952 2995.90548978 2346.234375 3001.70703125 C2346.58580566 3002.67862183 2346.93723633 3003.6502124 2347.29931641 3004.65124512 C2348.36620636 3007.60083173 2349.43310204 3010.55041628 2350.5 3013.5 C2358.32525446 3035.13397441 2358.32525446 3035.13397441 2362.08483887 3045.53018188 C2370.21851242 3068.02182921 2378.356788 3090.51180423 2386.5 3113 C2394.98504354 3136.43219361 2403.46435832 3159.86645255 2411.93945312 3183.30224609 C2414.03754097 3189.10392052 2416.13591952 3194.90548978 2418.234375 3200.70703125 C2418.58580566 3201.67862183 2418.93723633 3202.6502124 2419.29931641 3203.65124512 C2420.36620636 3206.60083173 2421.43310204 3209.55041628 2422.5 3212.5 C2430.32525446 3234.13397441 2430.32525446 3234.13397441 2434.08483887 3244.53018188 C2442.21851242 3267.02182921 2450.356788 3289.51180423 2458.5 3312 C2466.98504354 3335.43219361 2475.46435832 3358.86645255 2483.93945312 3382.30224609 C2487.10371303 3391.05212079 2490.26862505 3399.80175963 2493.43347168 3408.55142212 C2495.20567296 3413.45093898 2496.97783452 3418.3504702 2498.75 3423.25 C2499.45833314 3425.2083334 2500.16666648 3427.16666674 2500.875 3429.125 C2502.29166667 3433.04166667 2503.70833333 3436.95833333 2505.125 3440.875 C2505.65096771 3442.32914558 2505.65096771 3442.32914558 2506.18756104 3443.81266785 C2506.89569168 3445.77044141 2507.60382157 3447.72821526 2508.31195068 3449.68598938 C2510.08587881 3454.5903894 2511.85982036 3459.49478457 2513.63378906 3464.39916992 C2516.78436719 3473.10942473 2519.93486688 3481.81970785 2523.08483887 3490.53018188 C2531.21851242 3513.02182921 2539.356788 3535.51180423 2547.5 3558 C2555.98504354 3581.43219361 2564.46435832 3604.86645255 2572.93945312 3628.30224609 C2575.03754097 3634.10392052 2577.13591952 3639.90548978 2579.234375 3645.70703125 C2579.58580566 3646.67862183 2579.93723633 3647.6502124 2580.29931641 3648.65124512 C2581.36620636 3651.60083173 2582.43310204 3654.55041628 2583.5 3657.5 C2591.32525446 3679.1339744 2591.32525446 3679.1339744 2595.08483887 3689.53018188 C2603.21851242 3712.02182921 2611.356788 3734.51180423 2619.5 3757 C2627.98504354 3780.43219361 2636.46435832 3803.86645255 2644.93945312 3827.30224609 C2647.03754097 3833.10392052 2649.13591952 3838.90548978 2651.234375 3844.70703125 C2651.58580566 3845.67862183 2651.93723633 3846.6502124 2652.29931641 3847.65124512 C2653.36620636 3850.60083173 2654.43310204 3853.55041628 2655.5 3856.5 C2663.32525446 3878.1339744 2663.32525446 3878.1339744 2667.08483887 3888.53018188 C2675.21851242 3911.02182921 2683.356788 3933.51180423 2691.5 3956 C2699.98504354 3979.43219361 2708.46435832 4002.86645255 2716.93945312 4026.30224609 C2720.10371303 4035.05212079 2723.26862505 4043.80175963 2726.43347168 4052.55142212 C2728.20567296 4057.45093898 2729.97783452 4062.3504702 2731.75 4067.25 C2732.45833314 4069.2083334 2733.16666648 4071.16666674 2733.875 4073.125 C2735.29166667 4077.04166667 2736.70833333 4080.95833333 2738.125 4084.875 C2738.65096771 4086.32914558 2738.65096771 4086.32914558 2739.18756104 4087.81266785 C2739.89569168 4089.77044141 2740.60382157 4091.72821526 2741.31195068 4093.68598938 C2743.08587881 4098.5903894 2744.85982036 4103.49478457 2746.63378906 4108.39916992 C2749.78436719 4117.10942473 2752.93486688 4125.81970785 2756.08483887 4134.53018188 C2764.21851242 4157.02182921 2772.356788 4179.51180423 2780.5 4202 C2788.98504354 4225.43219361 2797.46435832 4248.86645255 2805.93945312 4272.30224609 C2808.03754097 4278.10392052 2810.13591952 4283.90548978 2812.234375 4289.70703125 C2812.761521 4291.16441711 2812.761521 4291.16441711 2813.29931641 4292.65124512 C2814.36620636 4295.60083173 2815.43310204 4298.55041628 2816.5 4301.5 C2824.32525446 4323.1339744 2824.32525446 4323.1339744 2828.08483887 4333.53018188 C2836.21851242 4356.02182921 2844.356788 4378.51180423 2852.5 4401 C2860.98504354 4424.43219361 2869.46435832 4447.86645255 2877.93945312 4471.30224609 C2880.03754097 4477.10392052 2882.13591952 4482.90548978 2884.234375 4488.70703125 C2884.761521 4490.16441711 2884.761521 4490.16441711 2885.29931641 4491.65124512 C2886.36620636 4494.60083173 2887.43310204 4497.55041628 2888.5 4500.5 C2896.32525446 4522.1339744 2896.32525446 4522.1339744 2900.08483887 4532.53018188 C2908.21851242 4555.02182921 2916.356788 4577.51180423 2924.5 4600 C2932.98504354 4623.43219361 2941.46435832 4646.86645255 2949.93945312 4670.30224609 C2953.10444189 4679.05413624 2956.27008993 4687.80578793 2959.43566895 4696.5574646 C2960.49327716 4699.4814135 2961.55084434 4702.40537723 2962.60839844 4705.3293457 C2965.8690393 4714.34442784 2969.12992112 4723.35942257 2972.39172363 4732.37408447 C2973.89935217 4736.54077568 2975.40683415 4740.70751991 2976.91430664 4744.87426758 C2977.61914966 4746.82237318 2978.32406103 4748.77045406 2979.02905273 4750.71850586 C3031.49777155 4895.70224169 2995 5058.81423506 2995 5213 C2599 5213 2203 5213 1795 5213 C1791.62588578 5205.12706682 1791.62588578 5205.12706682 1790.52392578 5201.63110352 C1790.27075592 5200.83458878 1790.01758606 5200.03807404 1789.75674438 5199.21742249 C1789.48897186 5198.36321213 1789.22119934 5197.50900177 1788.9453125 5196.62890625 C1788.33529403 5194.70637781 1787.72526757 5192.7838519 1787.11523438 5190.86132812 C1786.79256592 5189.83982666 1786.46989746 5188.8183252 1786.13745117 5187.76586914 C1779.62065006 5167.14688014 1772.93794325 5146.58539015 1766.17395401 5126.04658508 C1759.35244171 5105.33181061 1752.598499 5084.59841392 1745.98388672 5063.81640625 C1740.42048069 5046.34520979 1734.72882858 5028.91746455 1729 5011.5 C1722.943661 4993.08679942 1716.94147877 4974.65826997 1711.0625 4956.1875 C1704.76297126 4936.39588948 1698.31148201 4916.65653054 1691.81801224 4896.9279747 C1685.47408902 4877.65246612 1679.20464792 4858.35593422 1673.05126953 4839.01855469 C1667.30705845 4820.97708476 1661.41944967 4802.98449243 1655.5 4785 C1648.92832156 4765.03390386 1642.42515816 4745.04890154 1636.05126953 4725.01855469 C1630.30705845 4706.97708476 1624.41944967 4688.98449243 1618.5 4671 C1611.92832156 4651.03390386 1605.42515816 4631.04890154 1599.05126953 4611.01855469 C1593.30705835 4592.97708444 1587.41942982 4574.98449917 1581.5 4557 C1574.90617406 4536.96645035 1568.38065265 4516.91397706 1561.98388672 4496.81640625 C1556.42048069 4479.34520979 1550.72882858 4461.91746455 1545 4444.5 C1538.943661 4426.08679942 1532.94147877 4407.65826997 1527.0625 4389.1875 C1520.76297126 4369.39588948 1514.31148201 4349.65653054 1507.81801224 4329.9279747 C1501.47408902 4310.65246612 1495.20464792 4291.35593422 1489.05126953 4272.01855469 C1483.30705785 4253.97708286 1477.41933041 4235.98453292 1471.5 4218 C1464.55073219 4196.88566426 1457.66425958 4175.7536096 1450.93945312 4154.56640625 C1444.08253398 4133.00268562 1437.01597475 4111.51565589 1430 4090 C884.84 4089.67 339.68 4089.34 -222 4089 C-222.99 4092.63 -223.98 4096.26 -225 4100 C-225.68974581 4102.21559289 -226.39931012 4104.42522096 -227.13793945 4106.625 C-227.53298172 4107.80674805 -227.92802399 4108.98849609 -228.33503723 4110.20605469 C-228.76111695 4111.47070367 -229.18719835 4112.73535209 -229.61328125 4114 C-230.06901786 4115.36089625 -230.52442818 4116.72190181 -230.97953796 4118.08300781 C-232.17990067 4121.67086658 -233.38357467 4125.2576042 -234.58831787 4128.84399414 C-236.70466684 4135.14470304 -238.8167636 4141.44683355 -240.92578125 4147.75 C-241.16685734 4148.47021332 -241.40793343 4149.19042664 -241.65631485 4149.9324646 C-245.70566816 4162.0378479 -249.66750555 4174.17048818 -253.60546875 4186.3125 C-258.91238923 4202.67093229 -264.30489493 4218.99955322 -269.75 4235.3125 C-270.12643835 4236.44036926 -270.5028767 4237.56823853 -270.89072227 4238.73028564 C-273.97997076 4247.98413121 -277.07317187 4257.23665461 -280.16650391 4266.48913574 C-282.8628217 4274.55465025 -285.55762769 4282.62066753 -288.25 4290.6875 C-288.62733276 4291.8179776 -289.00466553 4292.9484552 -289.39343262 4294.1131897 C-294.32309987 4308.88935515 -299.19708801 4323.68217106 -304 4338.5 C-309.17411877 4354.46306718 -314.43706125 4370.39509545 -319.75 4386.3125 C-320.1270105 4387.44209137 -320.504021 4388.57168274 -320.89245605 4389.73550415 C-323.98112636 4398.98761029 -327.07375306 4408.23839303 -330.16650391 4417.48913574 C-332.8628217 4425.55465025 -335.55762769 4433.62066753 -338.25 4441.6875 C-338.62733276 4442.8179776 -339.00466553 4443.9484552 -339.39343262 4445.1131897 C-344.32309987 4459.88935515 -349.19708801 4474.68217106 -354 4489.5 C-359.17411877 4505.46306718 -364.43706125 4521.39509545 -369.75 4537.3125 C-370.1270105 4538.44209137 -370.504021 4539.57168274 -370.89245605 4540.73550415 C-373.98112636 4549.98761029 -377.07375306 4559.23839303 -380.16650391 4568.48913574 C-382.8628217 4576.55465025 -385.55762806 4584.62066741 -388.25 4592.6875 C-388.62749893 4593.8184761 -389.00499786 4594.94945221 -389.39393616 4596.11470032 C-394.31301096 4610.85912271 -399.1765212 4625.62013725 -403.96875 4640.40625 C-409.22381858 4656.6200977 -414.57256243 4672.80132357 -419.96875 4688.96875 C-420.55074661 4690.71257965 -420.55074661 4690.71257965 -421.14450073 4692.49163818 C-424.32797345 4702.028136 -427.51539797 4711.5633121 -430.70294189 4721.09844971 C-433.48085759 4729.40877827 -436.25727021 4737.71960675 -439.03125 4746.03125 C-439.41948944 4747.19444763 -439.80772888 4748.35764526 -440.20773315 4749.55609131 C-445.49593067 4765.40729252 -450.71587966 4781.27895325 -455.86781311 4797.1749115 C-460.75436116 4812.24568414 -465.73389035 4827.28437761 -470.75 4842.3125 C-471.12705582 4843.44222733 -471.50411163 4844.57195465 -471.89259338 4845.73591614 C-474.98121791 4854.98788495 -478.07379896 4864.23853032 -481.16650391 4873.48913574 C-483.8628217 4881.55465025 -486.55762769 4889.62066753 -489.25 4897.6875 C-489.62733276 4898.8179776 -490.00466553 4899.9484552 -490.39343262 4901.1131897 C-495.32309987 4915.88935515 -500.19708801 4930.68217106 -505 4945.5 C-510.17411877 4961.46306718 -515.43706125 4977.39509545 -520.75 4993.3125 C-521.1270105 4994.44209137 -521.504021 4995.57168274 -521.89245605 4996.73550415 C-524.98112636 5005.98761029 -528.07375306 5015.23839303 -531.16650391 5024.48913574 C-533.8628217 5032.55465024 -536.55765074 5040.62065984 -539.25 5048.6875 C-539.62677195 5049.81633669 -540.00354389 5050.94517338 -540.39173317 5052.10821724 C-545.64481863 5067.85445965 -550.82922833 5083.62148573 -555.94948387 5099.41137505 C-562.60571939 5119.93325654 -569.41655927 5140.40307617 -576.24584961 5160.86791992 C-578.00519466 5166.14010313 -579.76171636 5171.41322253 -581.51754475 5176.6865778 C-582.88814588 5180.80197422 -584.26015981 5184.91689852 -585.63261986 5189.03167534 C-586.28256401 5190.98084286 -586.93206606 5192.93015786 -587.58111 5194.87962532 C-588.47360741 5197.55963947 -589.36800555 5200.23901155 -590.26293945 5202.91821289 C-590.52722244 5203.71308609 -590.79150543 5204.50795929 -591.063797 5205.32691956 C-592.88570223 5210.77140445 -592.88570223 5210.77140445 -594 5213 C-967.89 5213 -1341.78 5213 -1727 5213 C-1727 4794 -1727 4794 -1710 4747 C-1706.0252039 4735.97684863 -1706.0252039 4735.97684863 -1702.05651855 4724.95150757 C-1700.97979386 4721.95752402 -1699.90253357 4718.96373352 -1698.82519531 4715.9699707 C-1697.29946079 4711.73004562 -1695.77390508 4707.49005627 -1694.24853516 4703.25 C-1690.58338229 4693.0621309 -1686.91695305 4682.87472128 -1683.25 4672.6875 C-1682.88528595 4671.67424652 -1682.5205719 4670.66099304 -1682.14480591 4669.61703491 C-1675.53572438 4651.25650243 -1668.91594258 4632.89983558 -1662.29434204 4614.54381561 C-1655.77409587 4596.46867691 -1649.257606 4578.39219445 -1642.75 4560.3125 C-1642.20176575 4558.78938705 -1642.20176575 4558.78938705 -1641.64245605 4557.23550415 C-1639.0947058 4550.15709809 -1636.54730775 4543.07856531 -1634 4536 C-1631.08358459 4527.89574289 -1628.1669974 4519.79154765 -1625.25 4511.6875 C-1624.88483276 4510.6729776 -1624.51966553 4509.6584552 -1624.14343262 4508.6131897 C-1617.53480573 4490.2539401 -1610.91548074 4471.8985553 -1604.29434204 4453.54381561 C-1597.77409587 4435.46867691 -1591.257606 4417.39219445 -1584.75 4399.3125 C-1584.3845105 4398.29709137 -1584.019021 4397.28168274 -1583.64245605 4396.23550415 C-1581.0947058 4389.15709809 -1578.54730775 4382.07856531 -1576 4375 C-1573.08358459 4366.89574289 -1570.1669974 4358.79154765 -1567.25 4350.6875 C-1566.88483276 4349.6729776 -1566.51966553 4348.6584552 -1566.14343262 4347.6131897 C-1559.53480573 4329.2539401 -1552.91548074 4310.8985553 -1546.29434204 4292.54381561 C-1539.77409587 4274.46867691 -1533.257606 4256.39219445 -1526.75 4238.3125 C-1526.3845105 4237.29709137 -1526.019021 4236.28168274 -1525.64245605 4235.23550415 C-1523.0947058 4228.15709809 -1520.54730775 4221.07856531 -1518 4214 C-1515.08358459 4205.89574289 -1512.1669974 4197.79154765 -1509.25 4189.6875 C-1508.88483276 4188.6729776 -1508.51966553 4187.6584552 -1508.14343262 4186.6131897 C-1501.53480573 4168.2539401 -1494.91548074 4149.8985553 -1488.29434204 4131.54381561 C-1481.77409587 4113.46867691 -1475.257606 4095.39219445 -1468.75 4077.3125 C-1468.20176575 4075.78938705 -1468.20176575 4075.78938705 -1467.64245605 4074.23550415 C-1465.0947058 4067.15709809 -1462.54730775 4060.07856531 -1460 4053 C-1457.08358459 4044.89574289 -1454.1669974 4036.79154765 -1451.25 4028.6875 C-1450.88483276 4027.6729776 -1450.51966553 4026.6584552 -1450.14343262 4025.6131897 C-1443.53480573 4007.2539401 -1436.91548074 3988.8985553 -1430.29434204 3970.54381561 C-1423.77409587 3952.46867691 -1417.257606 3934.39219445 -1410.75 3916.3125 C-1410.20176575 3914.78938705 -1410.20176575 3914.78938705 -1409.64245605 3913.23550415 C-1407.0947058 3906.15709809 -1404.54730775 3899.07856531 -1402 3892 C-1399.08358459 3883.89574289 -1396.1669974 3875.79154765 -1393.25 3867.6875 C-1392.88483276 3866.6729776 -1392.51966553 3865.6584552 -1392.14343262 3864.6131897 C-1385.53480573 3846.2539401 -1378.91548074 3827.8985553 -1372.29434204 3809.54381561 C-1365.77409587 3791.46867691 -1359.257606 3773.39219445 -1352.75 3755.3125 C-1352.20176575 3753.78938705 -1352.20176575 3753.78938705 -1351.64245605 3752.23550415 C-1349.0947058 3745.15709809 -1346.54730775 3738.07856531 -1344 3731 C-1341.08358459 3722.89574289 -1338.1669974 3714.79154765 -1335.25 3706.6875 C-1334.88483276 3705.6729776 -1334.51966553 3704.6584552 -1334.14343262 3703.6131897 C-1327.53480573 3685.2539401 -1320.91548074 3666.8985553 -1314.29434204 3648.54381561 C-1307.77409587 3630.46867691 -1301.257606 3612.39219445 -1294.75 3594.3125 C-1294.20176575 3592.78938705 -1294.20176575 3592.78938705 -1293.64245605 3591.23550415 C-1291.0947058 3584.15709809 -1288.54730775 3577.07856531 -1286 3570 C-1283.08358459 3561.89574289 -1280.1669974 3553.79154765 -1277.25 3545.6875 C-1276.88483276 3544.6729776 -1276.51966553 3543.6584552 -1276.14343262 3542.6131897 C-1269.53480573 3524.2539401 -1262.91548074 3505.8985553 -1256.29434204 3487.54381561 C-1249.77409587 3469.46867691 -1243.257606 3451.39219445 -1236.75 3433.3125 C-1236.20176575 3431.78938705 -1236.20176575 3431.78938705 -1235.64245605 3430.23550415 C-1233.0947058 3423.15709809 -1230.54730775 3416.07856531 -1228 3409 C-1225.08358459 3400.89574289 -1222.1669974 3392.79154765 -1219.25 3384.6875 C-1218.88483276 3383.6729776 -1218.51966553 3382.6584552 -1218.14343262 3381.6131897 C-1211.53480573 3363.2539401 -1204.91548074 3344.8985553 -1198.29434204 3326.54381561 C-1191.77409587 3308.46867691 -1185.257606 3290.39219445 -1178.75 3272.3125 C-1178.20176575 3270.78938705 -1178.20176575 3270.78938705 -1177.64245605 3269.23550415 C-1175.0947058 3262.15709809 -1172.54730775 3255.07856531 -1170 3248 C-1167.08358459 3239.89574289 -1164.1669974 3231.79154765 -1161.25 3223.6875 C-1160.88483276 3222.6729776 -1160.51966553 3221.6584552 -1160.14343262 3220.6131897 C-1153.53480573 3202.2539401 -1146.91548074 3183.8985553 -1140.29434204 3165.54381561 C-1133.77409587 3147.46867691 -1127.257606 3129.39219445 -1120.75 3111.3125 C-1120.20176575 3109.78938705 -1120.20176575 3109.78938705 -1119.64245605 3108.23550415 C-1117.0947058 3101.15709809 -1114.54730775 3094.07856531 -1112 3087 C-1109.08358459 3078.89574289 -1106.1669974 3070.79154765 -1103.25 3062.6875 C-1102.88483276 3061.6729776 -1102.51966553 3060.6584552 -1102.14343262 3059.6131897 C-1095.53480573 3041.2539401 -1088.91548074 3022.8985553 -1082.29434204 3004.54381561 C-1075.77409587 2986.46867691 -1069.257606 2968.39219445 -1062.75 2950.3125 C-1062.20176575 2948.78938705 -1062.20176575 2948.78938705 -1061.64245605 2947.23550415 C-1059.0947058 2940.15709809 -1056.54730775 2933.07856531 -1054 2926 C-1051.08358459 2917.89574289 -1048.1669974 2909.79154765 -1045.25 2901.6875 C-1044.88483276 2900.6729776 -1044.51966553 2899.6584552 -1044.14343262 2898.6131897 C-1037.53480573 2880.2539401 -1030.91548074 2861.8985553 -1024.29434204 2843.54381561 C-1017.77409587 2825.46867691 -1011.257606 2807.39219445 -1004.75 2789.3125 C-1004.20176575 2787.78938705 -1004.20176575 2787.78938705 -1003.64245605 2786.23550415 C-1001.0947058 2779.15709809 -998.54730775 2772.07856531 -996 2765 C-993.08358459 2756.89574289 -990.1669974 2748.79154765 -987.25 2740.6875 C-986.88483276 2739.6729776 -986.51966553 2738.6584552 -986.14343262 2737.6131897 C-979.53480573 2719.2539401 -972.91548074 2700.8985553 -966.29434204 2682.54381561 C-959.77409587 2664.46867691 -953.257606 2646.39219445 -946.75 2628.3125 C-946.20176575 2626.78938705 -946.20176575 2626.78938705 -945.64245605 2625.23550415 C-943.0947058 2618.15709809 -940.54730775 2611.07856531 -938 2604 C-935.08358459 2595.89574289 -932.1669974 2587.79154765 -929.25 2579.6875 C-928.88483276 2578.6729776 -928.51966553 2577.6584552 -928.14343262 2576.6131897 C-921.53480573 2558.2539401 -914.91548074 2539.8985553 -908.29434204 2521.54381561 C-899.58146812 2497.39037103 -890.88010589 2473.23279761 -882.18554688 2449.07275391 C-878.08134448 2437.66843496 -873.9754376 2426.2647295 -869.86987305 2414.86090088 C-868.74136365 2411.72628129 -867.612865 2408.59165782 -866.484375 2405.45703125 C-866.11231934 2404.42356567 -865.74026367 2403.3901001 -865.35693359 2402.32531738 C-863.14682833 2396.18610942 -860.93708724 2390.04677053 -858.72766113 2383.90731812 C-849.92589996 2359.44944279 -841.1146633 2334.99500265 -832.29434204 2310.54381561 C-825.77409587 2292.46867691 -819.257606 2274.39219445 -812.75 2256.3125 C-812.20176575 2254.78938705 -812.20176575 2254.78938705 -811.64245605 2253.23550415 C-809.0947058 2246.15709809 -806.54730775 2239.07856531 -804 2232 C-801.08358459 2223.89574289 -798.1669974 2215.79154765 -795.25 2207.6875 C-794.88483276 2206.6729776 -794.51966553 2205.6584552 -794.14343262 2204.6131897 C-787.53480573 2186.2539401 -780.91548074 2167.8985553 -774.29434204 2149.54381561 C-767.77409587 2131.46867691 -761.257606 2113.39219445 -754.75 2095.3125 C-754.20176575 2093.78938705 -754.20176575 2093.78938705 -753.64245605 2092.23550415 C-751.0947058 2085.15709809 -748.54730775 2078.07856531 -746 2071 C-743.08358459 2062.89574289 -740.1669974 2054.79154765 -737.25 2046.6875 C-736.88483276 2045.6729776 -736.51966553 2044.6584552 -736.14343262 2043.6131897 C-729.53480573 2025.2539401 -722.91548074 2006.8985553 -716.29434204 1988.54381561 C-709.77409587 1970.46867691 -703.257606 1952.39219445 -696.75 1934.3125 C-696.3845105 1933.29709137 -696.019021 1932.28168274 -695.64245605 1931.23550415 C-693.0947058 1924.15709809 -690.54730775 1917.07856531 -688 1910 C-685.08358459 1901.89574289 -682.1669974 1893.79154765 -679.25 1885.6875 C-678.88483276 1884.6729776 -678.51966553 1883.6584552 -678.14343262 1882.6131897 C-671.53480573 1864.2539401 -664.91548074 1845.8985553 -658.29434204 1827.54381561 C-651.77409587 1809.46867691 -645.257606 1791.39219445 -638.75 1773.3125 C-638.3845105 1772.29709137 -638.019021 1771.28168274 -637.64245605 1770.23550415 C-635.0947058 1763.15709809 -632.54730775 1756.07856531 -630 1749 C-627.08358459 1740.89574289 -624.1669974 1732.79154765 -621.25 1724.6875 C-620.88483276 1723.6729776 -620.51966553 1722.6584552 -620.14343262 1721.6131897 C-613.53480573 1703.2539401 -606.91548074 1684.8985553 -600.29434204 1666.54381561 C-593.77409587 1648.46867691 -587.257606 1630.39219445 -580.75 1612.3125 C-580.3845105 1611.29709137 -580.019021 1610.28168274 -579.64245605 1609.23550415 C-577.0947058 1602.15709809 -574.54730775 1595.07856531 -572 1588 C-569.08358459 1579.89574289 -566.1669974 1571.79154765 -563.25 1563.6875 C-562.88483276 1562.6729776 -562.51966553 1561.6584552 -562.14343262 1560.6131897 C-555.53480573 1542.2539401 -548.91548074 1523.8985553 -542.29434204 1505.54381561 C-535.77409587 1487.46867691 -529.257606 1469.39219445 -522.75 1451.3125 C-522.3845105 1450.29709137 -522.019021 1449.28168274 -521.64245605 1448.23550415 C-519.0947058 1441.15709809 -516.54730775 1434.07856531 -514 1427 C-511.08358459 1418.89574289 -508.1669974 1410.79154765 -505.25 1402.6875 C-504.88483276 1401.6729776 -504.51966553 1400.6584552 -504.14343262 1399.6131897 C-497.53480573 1381.2539401 -490.91548074 1362.8985553 -484.29434204 1344.54381561 C-477.77409587 1326.46867691 -471.257606 1308.39219445 -464.75 1290.3125 C-464.3845105 1289.29709137 -464.019021 1288.28168274 -463.64245605 1287.23550415 C-461.0947058 1280.15709809 -458.54730775 1273.07856531 -456 1266 C-453.08358459 1257.89574289 -450.1669974 1249.79154765 -447.25 1241.6875 C-446.88483276 1240.6729776 -446.51966553 1239.6584552 -446.14343262 1238.6131897 C-439.53480573 1220.2539401 -432.91548074 1201.8985553 -426.29434204 1183.54381561 C-419.77409587 1165.46867691 -413.257606 1147.39219445 -406.75 1129.3125 C-406.3845105 1128.29709137 -406.019021 1127.28168274 -405.64245605 1126.23550415 C-403.0947058 1119.15709809 -400.54730775 1112.07856531 -398 1105 C-395.08358459 1096.89574289 -392.1669974 1088.79154765 -389.25 1080.6875 C-388.88483276 1079.6729776 -388.51966553 1078.6584552 -388.14343262 1077.6131897 C-381.53480573 1059.2539401 -374.91548074 1040.8985553 -368.29434204 1022.54381561 C-361.77409587 1004.46867691 -355.257606 986.39219445 -348.75 968.3125 C-348.3845105 967.29709137 -348.019021 966.28168274 -347.64245605 965.23550415 C-345.0947058 958.15709809 -342.54730775 951.07856531 -340 944 C-337.08358459 935.89574289 -334.1669974 927.79154765 -331.25 919.6875 C-330.88483276 918.6729776 -330.51966553 917.6584552 -330.14343262 916.6131897 C-323.53480573 898.2539401 -316.91548074 879.8985553 -310.29434204 861.54381561 C-303.77409587 843.46867691 -297.257606 825.39219445 -290.75 807.3125 C-290.3845105 806.29709137 -290.019021 805.28168274 -289.64245605 804.23550415 C-287.0947058 797.15709809 -284.54730775 790.07856531 -282 783 C-279.08358459 774.89574289 -276.1669974 766.79154765 -273.25 758.6875 C-272.88483276 757.6729776 -272.51966553 756.6584552 -272.14343262 755.6131897 C-265.53480573 737.2539401 -258.91548074 718.8985553 -252.29434204 700.54381561 C-245.77409587 682.46867691 -239.257606 664.39219445 -232.75 646.3125 C-232.3845105 645.29709137 -232.019021 644.28168274 -231.64245605 643.23550415 C-229.0947058 636.15709809 -226.54730775 629.07856531 -224 622 C-221.08358459 613.89574289 -218.1669974 605.79154765 -215.25 597.6875 C-214.88483276 596.6729776 -214.51966553 595.6584552 -214.14343262 594.6131897 C-207.53480573 576.2539401 -200.91548074 557.8985553 -194.29434204 539.54381561 C-187.77409587 521.46867691 -181.257606 503.39219445 -174.75 485.3125 C-174.3845105 484.29709137 -174.019021 483.28168274 -173.64245605 482.23550415 C-171.0947058 475.15709809 -168.54730775 468.07856531 -166 461 C-163.08358459 452.89574289 -160.1669974 444.79154765 -157.25 436.6875 C-156.88483276 435.6729776 -156.51966553 434.6584552 -156.14343262 433.6131897 C-149.53480573 415.2539401 -142.91548074 396.8985553 -136.29434204 378.54381561 C-129.77409587 360.46867691 -123.257606 342.39219445 -116.75 324.3125 C-116.3845105 323.29709137 -116.019021 322.28168274 -115.64245605 321.23550415 C-113.0947058 314.15709809 -110.54730775 307.07856531 -108 300 C-105.08358459 291.89574289 -102.1669974 283.79154765 -99.25 275.6875 C-98.88483276 274.6729776 -98.51966553 273.6584552 -98.14343262 272.6131897 C-91.53480573 254.2539401 -84.91548074 235.8985553 -78.29434204 217.54381561 C-71.77409587 199.46867691 -65.257606 181.39219445 -58.75 163.3125 C-58.3845105 162.29709137 -58.019021 161.28168274 -57.64245605 160.23550415 C-55.0947058 153.15709809 -52.54730775 146.07856531 -50 139 C-47.08358459 130.89574289 -44.16694527 122.79156642 -41.25 114.6875 C-40.88749146 113.680289 -40.52498291 112.673078 -40.15148926 111.63534546 C-35.79220332 99.52387399 -31.42890861 87.41385551 -27.06005096 75.30583382 C-26.32680314 73.27368029 -25.59360341 71.24150942 -24.8604126 69.20933533 C-20.92458747 58.30072935 -20.92458747 58.30072935 -19.12658691 53.32089233 C-17.80274794 49.65417423 -16.47947029 45.9872539 -15.15625 42.3203125 C-14.78381165 41.28933945 -14.41137329 40.25836639 -14.02764893 39.19615173 C-9.31842665 26.14258007 -4.66742899 13.06880118 0 0 Z M611 1596 C610.71914236 1596.84349471 610.43828472 1597.68698942 610.14891624 1598.55604458 C603.24431186 1619.29215721 596.33794844 1640.02768328 589.429739 1660.76259518 C586.08872211 1670.79075388 582.74825351 1680.81909452 579.40917969 1690.84790039 C576.49132941 1699.61156923 573.57234459 1708.37485929 570.65211737 1717.13773638 C569.11276031 1721.75708637 567.57388947 1726.37659676 566.0363884 1730.99656487 C559.43015053 1750.8461092 552.76455938 1770.67325616 545.98736835 1790.46512783 C540.21914608 1807.31339885 534.56132985 1824.19687322 528.94507217 1841.09632111 C527.6264538 1845.06255423 526.30567695 1849.02806853 524.98510742 1852.99365234 C521.65489446 1862.99515497 518.32727735 1872.99752044 515 1883 C510.60609675 1896.20897623 506.21106286 1909.41757458 501.8125 1922.625 C501.54600521 1923.42527367 501.27951042 1924.22554733 501.00494003 1925.05007172 C494.81299573 1943.64293905 488.59654213 1962.22563037 482.22369385 1980.75744629 C476.09556253 1998.59105581 470.14529595 2016.48396647 464.1875 2034.375 C463.92189144 2035.17253441 463.65628288 2035.97006882 463.38262558 2036.79177094 C459.25245669 2049.19363998 455.12589592 2061.59670888 451 2074 C446.60609675 2087.20897623 442.21106286 2100.41757458 437.8125 2113.625 C437.54600521 2114.42527367 437.27951042 2115.22554733 437.00494003 2116.05007172 C430.81299573 2134.64293905 424.59654213 2153.22563037 418.22369385 2171.75744629 C412.09556253 2189.59105581 406.14529595 2207.48396647 400.1875 2225.375 C399.92189144 2226.17253441 399.65628288 2226.97006882 399.38262558 2227.79177094 C395.25245669 2240.19363998 391.12589592 2252.59670888 387 2265 C382.60609675 2278.20897623 378.21106286 2291.41757458 373.8125 2304.625 C373.54600521 2305.42527367 373.27951042 2306.22554733 373.00494003 2307.05007172 C366.81299573 2325.64293905 360.59654213 2344.22563037 354.22369385 2362.75744629 C348.09556253 2380.59105581 342.14529595 2398.48396647 336.1875 2416.375 C335.92189144 2417.17253441 335.65628288 2417.97006882 335.38262558 2418.79177094 C331.25245669 2431.19363998 327.12589592 2443.59670888 323 2456 C318.60609675 2469.20897623 314.21106286 2482.41757458 309.8125 2495.625 C309.54600521 2496.42527367 309.27951042 2497.22554733 309.00494003 2498.05007172 C302.81299573 2516.64293905 296.59654213 2535.22563037 290.22369385 2553.75744629 C284.09556253 2571.59105581 278.14529595 2589.48396647 272.1875 2607.375 C271.92189144 2608.17253441 271.65628288 2608.97006882 271.38262558 2609.79177094 C267.25245669 2622.19363998 263.12589592 2634.59670888 259 2647 C254.60609675 2660.20897623 250.21106242 2673.41757443 245.8125 2686.625 C245.54607885 2687.42505274 245.27965771 2688.22510548 245.00516319 2689.04940224 C238.80209499 2707.67567782 232.57435503 2726.29174098 226.19050598 2744.85700989 C220.14885432 2762.43955351 214.28004034 2780.07961705 208.40625 2797.71875 C208.1461187 2798.49985264 207.8859874 2799.28095528 207.61797333 2800.08572769 C203.57601963 2812.22294378 199.53767571 2824.36136021 195.5 2836.5 C191.19985011 2849.42772732 186.89861531 2862.35509201 182.59375 2875.28125 C182.33473923 2876.05904399 182.07572846 2876.83683797 181.80886889 2877.63820148 C174.37403605 2899.96278401 166.85931015 2922.25774041 159.21904945 2944.51295757 C155.06793336 2956.61863891 151.01801257 2968.75863224 146.97167969 2980.8996582 C145.81382964 2984.37331417 144.65170309 2987.84552605 143.48880959 2991.3174963 C142.5740521 2994.05073513 141.66197111 2996.78486126 140.75068283 2999.5192585 C140.11651661 3001.42002234 139.47963184 3003.31987849 138.84268188 3005.2197113 C138.27980972 3006.91294273 138.27980972 3006.91294273 137.70556641 3008.64038086 C137.37473053 3009.63146347 137.04389465 3010.62254608 136.70303345 3011.6436615 C135.90469854 3013.90958923 135.90469854 3013.90958923 136 3016 C444.88 3016 753.76 3016 1072 3016 C1070.78206035 3010.51927159 1069.6305724 3005.50799609 1067.91552734 3000.23828125 C1067.71626113 2999.62212102 1067.51699492 2999.00596079 1067.31169033 2998.37112904 C1066.65705203 2996.35028046 1065.99654945 2994.33140286 1065.3359375 2992.3125 C1064.86664499 2990.86800955 1064.39771542 2989.42340115 1063.92912292 2987.97868347 C1062.67576669 2984.11798512 1061.41729225 2980.25897326 1060.15782547 2976.40026474 C1058.84163116 2972.36460811 1057.53037767 2968.32734654 1056.21850586 2964.2902832 C1050.03450536 2945.26749196 1043.82193889 2926.25398229 1037.59890747 2907.243927 C1032.43785257 2891.47553791 1027.37212065 2875.67807524 1022.33499146 2859.86972046 C1016.27183573 2840.85382645 1010.05870347 2821.88878722 1003.81882095 2802.93040085 C997.47466187 2783.65407188 991.20490667 2764.35674736 985.05126953 2745.01855469 C979.08624471 2726.28355096 972.96440585 2707.60184025 966.81736374 2688.92602921 C960.82026588 2670.70453593 954.87805434 2652.46796661 949.0625 2634.1875 C942.82639669 2614.58555293 936.43461537 2595.0374169 930 2575.5 C923.24084322 2554.97717832 916.54462661 2534.43780017 909.99414062 2513.84716797 C904.26975346 2495.86255985 898.40067299 2477.92729766 892.5 2460 C885.92829952 2440.0339113 879.42515806 2420.04890123 873.05126953 2400.01855469 C867.30705845 2381.97708476 861.41944967 2363.98449243 855.5 2346 C848.92832156 2326.03390386 842.42515816 2306.04890154 836.05126953 2286.01855469 C830.08624471 2267.28355096 823.96440585 2248.60184025 817.81736374 2229.92602921 C811.82026588 2211.70453593 805.87805434 2193.46796661 800.0625 2175.1875 C793.82639669 2155.58555293 787.43461537 2136.0374169 781 2116.5 C774.24084322 2095.97717832 767.54462661 2075.43780017 760.99414062 2054.84716797 C755.26975346 2036.86255985 749.40067299 2018.92729766 743.5 2001 C736.92829952 1981.0339113 730.42515806 1961.04890123 724.05126953 1941.01855469 C718.30705845 1922.97708476 712.41944967 1904.98449243 706.5 1887 C699.92832156 1867.03390386 693.42515816 1847.04890154 687.05126953 1827.01855469 C681.08624471 1808.28355096 674.96440585 1789.60184025 668.81736374 1770.92602921 C662.82026585 1752.70453585 656.87805262 1734.46796736 651.0625 1716.1875 C644.00777252 1694.01234756 636.76261563 1671.9015071 629.47861004 1649.80084133 C628.36159762 1646.41164474 627.24508731 1643.02228297 626.12890625 1639.6328125 C625.80628406 1638.65324428 625.80628406 1638.65324428 625.47714424 1637.6538868 C620.91381879 1623.79198271 616.44283553 1609.90096212 612 1596 C611.67 1596 611.34 1596 611 1596 Z " fill="#1F1E1F" transform="translate(7374,3745)"/>
<path d="M0 0 C526.02 0 1052.04 0 1594 0 C1594 2322.21 1594 4644.42 1594 7037 C1067.98 7037 541.96 7037 0 7037 C0 6685.55 0 6334.1 0 5972 C176.88 5972 353.76 5972 536 5972 C536 4353.02 536 2734.04 536 1066 C359.12 1066 182.24 1066 0 1066 C0 714.22 0 362.44 0 0 Z " fill="#1F1E1F" transform="translate(12659,3112)"/>
<path d="M0 0 C526.02 0 1052.04 0 1594 0 C1594 351.78 1594 703.56 1594 1066 C1417.12 1066 1240.24 1066 1058 1066 C1058 2684.98 1058 4303.96 1058 5972 C1234.88 5972 1411.76 5972 1594 5972 C1594 6323.45 1594 6674.9 1594 7037 C1067.98 7037 541.96 7037 0 7037 C0 4714.79 0 2392.58 0 0 Z " fill="#1F1E1F" transform="translate(1686,3112)"/>
</svg>
