<?xml version="1.0" encoding="UTF-8"?>
<svg version="1.1" xmlns="http://www.w3.org/2000/svg" width="15938" height="13262">
<path d="M0 0 C415.8 0 831.6 0 1260 0 C1269.9 27.72 1269.9 27.72 1280 56 C1284.66587808 68.85787775 1289.33608567 81.71374651 1294.02148438 94.56445312 C1297.5098531 104.14120078 1300.97266145 113.7272205 1304.4375 123.3125 C1304.79016937 124.28800812 1305.14283875 125.26351624 1305.50619507 126.26858521 C1307.29064779 131.2045299 1309.0748499 136.14056512 1310.85888672 141.07666016 C1314.0505116 149.90685264 1317.24460119 158.73615361 1320.43850708 167.56552124 C1322.20910588 172.4603109 1323.97954484 177.35515838 1325.75 182.25 C1326.45833257 184.20833361 1327.1666659 186.16666694 1327.875 188.125 C1334.95833333 207.70833333 1342.04166667 227.29166667 1349.125 246.875 C1349.65096771 248.32914558 1349.65096771 248.32914558 1350.18756104 249.81266785 C1350.89569168 251.77044141 1351.60382157 253.72821526 1352.31195068 255.68598938 C1354.08587881 260.5903894 1355.85982036 265.49478457 1357.63378906 270.39916992 C1360.78436719 279.10942473 1363.93486688 287.81970785 1367.08483887 296.53018188 C1375.21851242 319.02182921 1383.356788 341.51180423 1391.5 364 C1399.98504354 387.43219361 1408.46435832 410.86645255 1416.93945312 434.30224609 C1419.03754097 440.10392052 1421.13591952 445.90548978 1423.234375 451.70703125 C1423.58580566 452.67862183 1423.93723633 453.6502124 1424.29931641 454.65124512 C1425.36620636 457.60083173 1426.43310204 460.55041628 1427.5 463.5 C1435.32525446 485.1339744 1435.32525446 485.1339744 1439.08483887 495.53018188 C1447.21851242 518.02182921 1455.356788 540.51180423 1463.5 563 C1471.98504354 586.43219361 1480.46435832 609.86645255 1488.93945312 633.30224609 C1491.03754097 639.10392052 1493.13591952 644.90548978 1495.234375 650.70703125 C1495.58580566 651.67862183 1495.93723633 652.6502124 1496.29931641 653.65124512 C1497.36620636 656.60083173 1498.43310204 659.55041628 1499.5 662.5 C1507.32525446 684.1339744 1507.32525446 684.1339744 1511.08483887 694.53018188 C1519.21851242 717.02182921 1527.356788 739.51180423 1535.5 762 C1543.98504354 785.43219361 1552.46435832 808.86645255 1560.93945312 832.30224609 C1564.10371303 841.05212079 1567.26862505 849.80175963 1570.43347168 858.55142212 C1572.20567296 863.45093898 1573.97783452 868.3504702 1575.75 873.25 C1576.45833314 875.2083334 1577.16666648 877.16666674 1577.875 879.125 C1579.29166667 883.04166667 1580.70833333 886.95833333 1582.125 890.875 C1582.47564514 891.84443039 1582.82629028 892.81386078 1583.18756104 893.81266785 C1583.89569168 895.77044141 1584.60382157 897.72821526 1585.31195068 899.68598938 C1587.08587881 904.5903894 1588.85982036 909.49478457 1590.63378906 914.39916992 C1593.78436719 923.10942473 1596.93486688 931.81970785 1600.08483887 940.53018188 C1608.21851242 963.02182921 1616.356788 985.51180423 1624.5 1008 C1632.98504354 1031.43219361 1641.46435832 1054.86645255 1649.93945312 1078.30224609 C1652.03754097 1084.10392052 1654.13591952 1089.90548978 1656.234375 1095.70703125 C1656.58580566 1096.67862183 1656.93723633 1097.6502124 1657.29931641 1098.65124512 C1658.36620636 1101.60083173 1659.43310204 1104.55041628 1660.5 1107.5 C1668.32525446 1129.1339744 1668.32525446 1129.1339744 1672.08483887 1139.53018188 C1680.21851242 1162.02182921 1688.356788 1184.51180423 1696.5 1207 C1704.98504354 1230.43219361 1713.46435832 1253.86645255 1721.93945312 1277.30224609 C1724.03754097 1283.10392052 1726.13591952 1288.90548978 1728.234375 1294.70703125 C1728.58580566 1295.67862183 1728.93723633 1296.6502124 1729.29931641 1297.65124512 C1730.36620636 1300.60083173 1731.43310204 1303.55041628 1732.5 1306.5 C1740.32525446 1328.1339744 1740.32525446 1328.1339744 1744.08483887 1338.53018188 C1752.21851242 1361.02182921 1760.356788 1383.51180423 1768.5 1406 C1776.98504354 1429.43219361 1785.46435832 1452.86645255 1793.93945312 1476.30224609 C1797.10371303 1485.05212079 1800.26862505 1493.80175963 1803.43347168 1502.55142212 C1805.20567296 1507.45093898 1806.97783452 1512.3504702 1808.75 1517.25 C1809.45833314 1519.2083334 1810.16666648 1521.16666674 1810.875 1523.125 C1812.29166667 1527.04166667 1813.70833333 1530.95833333 1815.125 1534.875 C1815.65096771 1536.32914558 1815.65096771 1536.32914558 1816.18756104 1537.81266785 C1816.89569168 1539.77044141 1817.60382157 1541.72821526 1818.31195068 1543.68598938 C1820.08587881 1548.5903894 1821.85982036 1553.49478457 1823.63378906 1558.39916992 C1826.78436719 1567.10942473 1829.93486688 1575.81970785 1833.08483887 1584.53018188 C1841.21851242 1607.02182921 1849.356788 1629.51180423 1857.5 1652 C1865.98504354 1675.43219361 1874.46435832 1698.86645255 1882.93945312 1722.30224609 C1885.03754097 1728.10392052 1887.13591952 1733.90548978 1889.234375 1739.70703125 C1889.58580566 1740.67862183 1889.93723633 1741.6502124 1890.29931641 1742.65124512 C1891.36620636 1745.60083173 1892.43310204 1748.55041628 1893.5 1751.5 C1901.32525446 1773.1339744 1901.32525446 1773.1339744 1905.08483887 1783.53018188 C1913.21851242 1806.02182921 1921.356788 1828.51180423 1929.5 1851 C1937.98504354 1874.43219361 1946.46435832 1897.86645255 1954.93945312 1921.30224609 C1957.03754097 1927.10392052 1959.13591952 1932.90548978 1961.234375 1938.70703125 C1961.58580566 1939.67862183 1961.93723633 1940.6502124 1962.29931641 1941.65124512 C1963.36620636 1944.60083173 1964.43310204 1947.55041628 1965.5 1950.5 C1973.32525446 1972.1339744 1973.32525446 1972.1339744 1977.08483887 1982.53018188 C1985.21851242 2005.02182921 1993.356788 2027.51180423 2001.5 2050 C2009.98504354 2073.43219361 2018.46435832 2096.86645255 2026.93945312 2120.30224609 C2030.10371303 2129.05212079 2033.26862505 2137.80175963 2036.43347168 2146.55142212 C2038.20567296 2151.45093898 2039.97783452 2156.3504702 2041.75 2161.25 C2042.45833314 2163.2083334 2043.16666648 2165.16666674 2043.875 2167.125 C2045.29166667 2171.04166667 2046.70833333 2174.95833333 2048.125 2178.875 C2048.65096771 2180.32914558 2048.65096771 2180.32914558 2049.18756104 2181.81266785 C2049.89569168 2183.77044141 2050.60382157 2185.72821526 2051.31195068 2187.68598938 C2053.08587881 2192.5903894 2054.85982036 2197.49478457 2056.63378906 2202.39916992 C2059.78436719 2211.10942473 2062.93486688 2219.81970785 2066.08483887 2228.53018188 C2074.21851242 2251.02182921 2082.356788 2273.51180423 2090.5 2296 C2098.98504354 2319.43219361 2107.46435832 2342.86645255 2115.93945312 2366.30224609 C2118.03754097 2372.10392052 2120.13591952 2377.90548978 2122.234375 2383.70703125 C2122.58580566 2384.67862183 2122.93723633 2385.6502124 2123.29931641 2386.65124512 C2124.36620636 2389.60083173 2125.43310204 2392.55041628 2126.5 2395.5 C2134.32525446 2417.1339744 2134.32525446 2417.1339744 2138.08483887 2427.53018188 C2146.21851242 2450.02182921 2154.356788 2472.51180423 2162.5 2495 C2170.98504354 2518.43219361 2179.46435832 2541.86645255 2187.93945312 2565.30224609 C2190.03754097 2571.10392052 2192.13591952 2576.90548978 2194.234375 2582.70703125 C2194.58580566 2583.67862183 2194.93723633 2584.6502124 2195.29931641 2585.65124512 C2196.36620636 2588.60083173 2197.43310204 2591.55041628 2198.5 2594.5 C2206.32525446 2616.1339744 2206.32525446 2616.1339744 2210.08483887 2626.53018188 C2218.21851242 2649.02182921 2226.356788 2671.51180423 2234.5 2694 C2242.98504354 2717.43219361 2251.46435832 2740.86645255 2259.93945312 2764.30224609 C2263.10371303 2773.05212079 2266.26862505 2781.80175963 2269.43347168 2790.55142212 C2271.20567296 2795.45093898 2272.97783452 2800.3504702 2274.75 2805.25 C2275.45833314 2807.2083334 2276.16666648 2809.16666674 2276.875 2811.125 C2278.29166667 2815.04166667 2279.70833333 2818.95833333 2281.125 2822.875 C2281.65096771 2824.32914558 2281.65096771 2824.32914558 2282.18756104 2825.81266785 C2282.89569168 2827.77044141 2283.60382157 2829.72821526 2284.31195068 2831.68598938 C2286.08587881 2836.5903894 2287.85982036 2841.49478457 2289.63378906 2846.39916992 C2292.78436719 2855.10942473 2295.93486688 2863.81970785 2299.08483887 2872.53018188 C2307.21851242 2895.02182921 2315.356788 2917.51180423 2323.5 2940 C2331.98504354 2963.43219361 2340.46435832 2986.86645255 2348.93945312 3010.30224609 C2351.03754097 3016.10392052 2353.13591952 3021.90548978 2355.234375 3027.70703125 C2355.58580566 3028.67862183 2355.93723633 3029.6502124 2356.29931641 3030.65124512 C2357.36620636 3033.60083173 2358.43310204 3036.55041628 2359.5 3039.5 C2367.32525446 3061.1339744 2367.32525446 3061.1339744 2371.08483887 3071.53018188 C2379.21851242 3094.02182921 2387.356788 3116.51180423 2395.5 3139 C2403.98504354 3162.43219361 2412.46435832 3185.86645255 2420.93945312 3209.30224609 C2423.03754097 3215.10392052 2425.13591952 3220.90548978 2427.234375 3226.70703125 C2427.58580566 3227.67862183 2427.93723633 3228.6502124 2428.29931641 3229.65124512 C2429.36620636 3232.60083173 2430.43310204 3235.55041628 2431.5 3238.5 C2439.32525445 3260.1339744 2439.32525445 3260.1339744 2443.08483887 3270.53018188 C2451.21851242 3293.02182921 2459.356788 3315.51180423 2467.5 3338 C2475.98504354 3361.43219361 2484.46435832 3384.86645255 2492.93945312 3408.30224609 C2496.10371303 3417.05212079 2499.26862505 3425.80175963 2502.43347168 3434.55142212 C2504.20567296 3439.45093898 2505.97783452 3444.3504702 2507.75 3449.25 C2508.45833314 3451.2083334 2509.16666648 3453.16666674 2509.875 3455.125 C2511.29166667 3459.04166667 2512.70833333 3462.95833333 2514.125 3466.875 C2514.65096771 3468.32914558 2514.65096771 3468.32914558 2515.18756104 3469.81266785 C2515.89569168 3471.77044141 2516.60382157 3473.72821526 2517.31195068 3475.68598938 C2519.08587881 3480.5903894 2520.85982036 3485.49478457 2522.63378906 3490.39916992 C2525.78436719 3499.10942473 2528.93486688 3507.81970785 2532.08483887 3516.53018188 C2540.21851242 3539.02182921 2548.356788 3561.51180423 2556.5 3584 C2564.98504354 3607.43219361 2573.46435832 3630.86645255 2581.93945312 3654.30224609 C2584.03754097 3660.10392052 2586.13591952 3665.90548978 2588.234375 3671.70703125 C2588.58580566 3672.67862183 2588.93723633 3673.6502124 2589.29931641 3674.65124512 C2590.36620636 3677.60083173 2591.43310204 3680.55041628 2592.5 3683.5 C2600.32525446 3705.1339744 2600.32525446 3705.1339744 2604.08483887 3715.53018188 C2612.21851242 3738.02182921 2620.356788 3760.51180423 2628.5 3783 C2636.98504354 3806.43219361 2645.46435832 3829.86645255 2653.93945312 3853.30224609 C2656.03754097 3859.10392052 2658.13591952 3864.90548978 2660.234375 3870.70703125 C2660.58580566 3871.67862183 2660.93723633 3872.6502124 2661.29931641 3873.65124512 C2662.36620636 3876.60083173 2663.43310204 3879.55041628 2664.5 3882.5 C2672.32525445 3904.1339744 2672.32525445 3904.1339744 2676.08483887 3914.53018188 C2684.21851242 3937.02182921 2692.356788 3959.51180423 2700.5 3982 C2708.98504354 4005.43219361 2717.46435832 4028.86645255 2725.93945312 4052.30224609 C2729.10371303 4061.05212079 2732.26862505 4069.80175963 2735.43347168 4078.55142212 C2737.20567296 4083.45093898 2738.97783452 4088.3504702 2740.75 4093.25 C2741.45833314 4095.2083334 2742.16666648 4097.16666674 2742.875 4099.125 C2744.29166667 4103.04166667 2745.70833333 4106.95833333 2747.125 4110.875 C2747.47564514 4111.84443039 2747.82629028 4112.81386078 2748.18756104 4113.81266785 C2748.89569168 4115.77044141 2749.60382157 4117.72821526 2750.31195068 4119.68598938 C2752.08587881 4124.5903894 2753.85982036 4129.49478457 2755.63378906 4134.39916992 C2758.78436719 4143.10942473 2761.93486688 4151.81970785 2765.08483887 4160.53018188 C2773.21851242 4183.02182921 2781.356788 4205.51180423 2789.5 4228 C2797.98504354 4251.43219361 2806.46435832 4274.86645255 2814.93945312 4298.30224609 C2817.03754097 4304.10392052 2819.13591952 4309.90548978 2821.234375 4315.70703125 C2821.761521 4317.16441711 2821.761521 4317.16441711 2822.29931641 4318.65124512 C2823.36620636 4321.60083173 2824.43310204 4324.55041628 2825.5 4327.5 C2833.32525445 4349.1339744 2833.32525445 4349.1339744 2837.08483887 4359.53018188 C2845.21851242 4382.02182921 2853.356788 4404.51180423 2861.5 4427 C2869.98504354 4450.43219361 2878.46435832 4473.86645255 2886.93945312 4497.30224609 C2889.03754097 4503.10392052 2891.13591952 4508.90548978 2893.234375 4514.70703125 C2893.761521 4516.16441711 2893.761521 4516.16441711 2894.29931641 4517.65124512 C2895.36620636 4520.60083173 2896.43310204 4523.55041628 2897.5 4526.5 C2905.32525446 4548.13397442 2905.32525446 4548.13397442 2909.08483887 4558.53018188 C2917.21851242 4581.02182921 2925.356788 4603.51180423 2933.5 4626 C2939.9195413 4643.72812762 2946.33729837 4661.45689707 2952.75 4679.1875 C2953.26480423 4680.61082138 2953.26480423 4680.61082138 2953.79000854 4682.06289673 C2957.25865963 4691.65300936 2960.72670179 4701.24334157 2964.19308472 4710.83427429 C2965.6370877 4714.82942563 2967.08140947 4718.82446168 2968.52575684 4722.81948853 C2969.18468609 4724.64232829 2969.84347498 4726.46521881 2970.5020752 4728.28817749 C2978.29976071 4749.87152249 2986.15740326 4771.43285895 2994 4793 C2994 4931.6 2994 5070.2 2994 5213 C2598 5213 2202 5213 1794 5213 C1784.94531672 5185.30332173 1775.90793266 5157.63129347 1767.05761719 5129.87402344 C1761.41607364 5112.19139403 1755.62135883 5094.55996231 1749.81861877 5076.92979431 C1743.47451865 5057.65367044 1737.20484198 5038.35654408 1731.05126953 5019.01855469 C1725.30705845 5000.97708476 1719.41944967 4982.98449243 1713.5 4965 C1706.92832156 4945.03390386 1700.42515816 4925.04890154 1694.05126953 4905.01855469 C1688.30705835 4886.97708444 1682.41942982 4868.98449917 1676.5 4851 C1669.90617406 4830.96645035 1663.38065265 4810.91397706 1656.98388672 4790.81640625 C1651.42048069 4773.34520979 1645.72882858 4755.91746455 1640 4738.5 C1633.943661 4720.08679942 1627.94147877 4701.65826997 1622.0625 4683.1875 C1615.76297126 4663.39588948 1609.31148201 4643.65653054 1602.81801224 4623.9279747 C1596.47408902 4604.65246612 1590.20464792 4585.35593422 1584.05126953 4566.01855469 C1578.30705845 4547.97708476 1572.41944967 4529.98449243 1566.5 4512 C1559.92832156 4492.03390386 1553.42515816 4472.04890154 1547.05126953 4452.01855469 C1541.30705835 4433.97708444 1535.41942982 4415.98449917 1529.5 4398 C1522.90617406 4377.96645035 1516.38065265 4357.91397706 1509.98388672 4337.81640625 C1504.42048069 4320.34520979 1498.72882858 4302.91746455 1493 4285.5 C1486.943661 4267.08679942 1480.94147877 4248.65826997 1475.0625 4230.1875 C1469.20266021 4211.77728686 1463.21698653 4193.41059679 1457.17749786 4175.05875778 C1450.28100864 4154.10193766 1443.42489466 4133.13364692 1436.6875 4112.125 C1436.34058105 4111.04653809 1435.99366211 4109.96807617 1435.63623047 4108.85693359 C1434.67489132 4105.8665631 1433.71754505 4102.87494894 1432.76171875 4099.8828125 C1432.47846237 4099.00279572 1432.19520599 4098.12277893 1431.90336609 4097.21609497 C1430 4091.23030496 1430 4091.23030496 1430 4089 C884.84 4089.33 339.68 4089.66 -222 4090 C-247.67957563 4166.94083829 -247.67957563 4166.94083829 -273 4244 C-278.13413718 4259.50973045 -278.13413718 4259.50973045 -280.71936035 4267.23324585 C-281.81812446 4270.51603624 -282.91462184 4273.79957791 -284.01074219 4277.08325195 C-286.72707261 4285.21930118 -289.44679943 4293.35421391 -292.16650391 4301.48913574 C-294.8628217 4309.55465025 -297.55762769 4317.62066753 -300.25 4325.6875 C-300.62733276 4326.8179776 -301.00466553 4327.9484552 -301.39343262 4329.1131897 C-306.32309987 4343.88935515 -311.19708801 4358.68217106 -316 4373.5 C-321.17411877 4389.46306718 -326.43706125 4405.39509545 -331.75 4421.3125 C-332.1270105 4422.44209137 -332.504021 4423.57168274 -332.89245605 4424.73550415 C-335.98112636 4433.98761029 -339.07375306 4443.23839303 -342.16650391 4452.48913574 C-344.8628217 4460.55465025 -347.55762769 4468.62066753 -350.25 4476.6875 C-350.62733276 4477.8179776 -351.00466553 4478.9484552 -351.39343262 4480.1131897 C-356.32309987 4494.88935515 -361.19708801 4509.68217106 -366 4524.5 C-371.17411877 4540.46306718 -376.43706125 4556.39509545 -381.75 4572.3125 C-382.1270105 4573.44209137 -382.504021 4574.57168274 -382.89245605 4575.73550415 C-385.98112636 4584.98761029 -389.07375306 4594.23839303 -392.16650391 4603.48913574 C-394.8628217 4611.55465025 -397.55762769 4619.62066753 -400.25 4627.6875 C-400.62733276 4628.8179776 -401.00466553 4629.9484552 -401.39343262 4631.1131897 C-406.32309987 4645.88935515 -411.19708801 4660.68217106 -416 4675.5 C-421.17411877 4691.46306718 -426.43706125 4707.39509545 -431.75 4723.3125 C-432.1270105 4724.44209137 -432.504021 4725.57168274 -432.89245605 4726.73550415 C-435.98112636 4735.98761029 -439.07375306 4745.23839303 -442.16650391 4754.48913574 C-444.8628217 4762.55465025 -447.55762769 4770.62066753 -450.25 4778.6875 C-450.62733276 4779.8179776 -451.00466553 4780.9484552 -451.39343262 4782.1131897 C-456.32309987 4796.88935515 -461.19708801 4811.68217106 -466 4826.5 C-471.17411877 4842.46306718 -476.43706125 4858.39509545 -481.75 4874.3125 C-482.1270105 4875.44209137 -482.504021 4876.57168274 -482.89245605 4877.73550415 C-485.98112636 4886.98761029 -489.07375306 4896.23839303 -492.16650391 4905.48913574 C-494.8628217 4913.55465025 -497.55762769 4921.62066753 -500.25 4929.6875 C-500.62733276 4930.8179776 -501.00466553 4931.9484552 -501.39343262 4933.1131897 C-506.32309987 4947.88935515 -511.19708801 4962.68217106 -516 4977.5 C-521.17411877 4993.46306718 -526.43706125 5009.39509545 -531.75 5025.3125 C-532.1270105 5026.44209137 -532.504021 5027.57168274 -532.89245605 5028.73550415 C-535.98112636 5037.98761029 -539.07375306 5047.23839303 -542.16650391 5056.48913574 C-544.8628217 5064.55465025 -547.55762991 5072.62066679 -550.25 5080.6875 C-550.62832977 5081.82096863 -551.00665955 5082.95443726 -551.39645386 5084.12225342 C-556.2626302 5098.70815114 -561.0695446 5113.3110543 -565.8125 5127.9375 C-575.06503241 5156.33875165 -584.55415196 5184.66245589 -594 5213 C-967.89 5213 -1341.78 5213 -1727 5213 C-1727 4793 -1727 4793 -1705 4732 C-1698.99856365 4715.33384905 -1692.99796629 4698.66739958 -1687 4682 C-1684.08358459 4673.89574289 -1681.1669974 4665.79154765 -1678.25 4657.6875 C-1677.88483276 4656.6729776 -1677.51966553 4655.6584552 -1677.14343262 4654.6131897 C-1670.53480573 4636.2539401 -1663.91548074 4617.8985553 -1657.29434204 4599.54381561 C-1650.77409587 4581.46867691 -1644.257606 4563.39219445 -1637.75 4545.3125 C-1637.20176575 4543.78938705 -1637.20176575 4543.78938705 -1636.64245605 4542.23550415 C-1634.0947058 4535.15709809 -1631.54730775 4528.07856531 -1629 4521 C-1626.08358459 4512.89574289 -1623.1669974 4504.79154765 -1620.25 4496.6875 C-1619.88483276 4495.6729776 -1619.51966553 4494.6584552 -1619.14343262 4493.6131897 C-1612.53480573 4475.2539401 -1605.91548074 4456.8985553 -1599.29434204 4438.54381561 C-1592.77409587 4420.46867691 -1586.257606 4402.39219445 -1579.75 4384.3125 C-1579.3845105 4383.29709137 -1579.019021 4382.28168274 -1578.64245605 4381.23550415 C-1576.0947058 4374.15709809 -1573.54730775 4367.07856531 -1571 4360 C-1568.08358459 4351.89574289 -1565.1669974 4343.79154765 -1562.25 4335.6875 C-1561.88483276 4334.6729776 -1561.51966553 4333.6584552 -1561.14343262 4332.6131897 C-1554.53480573 4314.2539401 -1547.91548074 4295.8985553 -1541.29434204 4277.54381561 C-1534.77409587 4259.46867691 -1528.257606 4241.39219445 -1521.75 4223.3125 C-1521.3845105 4222.29709137 -1521.019021 4221.28168274 -1520.64245605 4220.23550415 C-1518.0947058 4213.15709809 -1515.54730775 4206.07856531 -1513 4199 C-1510.08358459 4190.89574289 -1507.1669974 4182.79154765 -1504.25 4174.6875 C-1503.88483276 4173.6729776 -1503.51966553 4172.6584552 -1503.14343262 4171.6131897 C-1496.53480573 4153.2539401 -1489.91548074 4134.8985553 -1483.29434204 4116.54381561 C-1476.77409587 4098.46867691 -1470.257606 4080.39219445 -1463.75 4062.3125 C-1463.20176575 4060.78938705 -1463.20176575 4060.78938705 -1462.64245605 4059.23550415 C-1460.0947058 4052.15709809 -1457.54730775 4045.07856531 -1455 4038 C-1452.08358459 4029.89574289 -1449.1669974 4021.79154765 -1446.25 4013.6875 C-1445.88483276 4012.6729776 -1445.51966553 4011.6584552 -1445.14343262 4010.6131897 C-1438.53480573 3992.2539401 -1431.91548074 3973.8985553 -1425.29434204 3955.54381561 C-1418.77409587 3937.46867691 -1412.257606 3919.39219445 -1405.75 3901.3125 C-1405.20176575 3899.78938705 -1405.20176575 3899.78938705 -1404.64245605 3898.23550415 C-1402.0947058 3891.15709809 -1399.54730775 3884.07856531 -1397 3877 C-1394.08358459 3868.89574289 -1391.1669974 3860.79154765 -1388.25 3852.6875 C-1387.88483276 3851.6729776 -1387.51966553 3850.6584552 -1387.14343262 3849.6131897 C-1380.53480573 3831.2539401 -1373.91548074 3812.8985553 -1367.29434204 3794.54381561 C-1358.58146812 3770.39037103 -1349.88010589 3746.23279761 -1341.18554688 3722.07275391 C-1337.08134448 3710.66843496 -1332.9754376 3699.2647295 -1328.86987305 3687.86090088 C-1327.74136365 3684.72628129 -1326.612865 3681.59165782 -1325.484375 3678.45703125 C-1325.11231934 3677.42356567 -1324.74026367 3676.3901001 -1324.35693359 3675.32531738 C-1322.14682833 3669.18610942 -1319.93708724 3663.04677053 -1317.72766113 3656.90731812 C-1308.92589996 3632.44944279 -1300.1146633 3607.99500265 -1291.29434204 3583.54381561 C-1284.77409587 3565.46867691 -1278.257606 3547.39219445 -1271.75 3529.3125 C-1271.20176575 3527.78938705 -1271.20176575 3527.78938705 -1270.64245605 3526.23550415 C-1268.0947058 3519.15709809 -1265.54730775 3512.07856531 -1263 3505 C-1260.08358459 3496.89574289 -1257.1669974 3488.79154765 -1254.25 3480.6875 C-1253.88483276 3479.6729776 -1253.51966553 3478.6584552 -1253.14343262 3477.6131897 C-1246.53480573 3459.2539401 -1239.91548074 3440.8985553 -1233.29434204 3422.54381561 C-1226.77409587 3404.46867691 -1220.257606 3386.39219445 -1213.75 3368.3125 C-1213.20176575 3366.78938705 -1213.20176575 3366.78938705 -1212.64245605 3365.23550415 C-1210.0947058 3358.15709809 -1207.54730775 3351.07856531 -1205 3344 C-1202.08358459 3335.89574289 -1199.1669974 3327.79154765 -1196.25 3319.6875 C-1195.88483276 3318.6729776 -1195.51966553 3317.6584552 -1195.14343262 3316.6131897 C-1188.53480573 3298.2539401 -1181.91548074 3279.8985553 -1175.29434204 3261.54381561 C-1168.77409587 3243.46867691 -1162.257606 3225.39219445 -1155.75 3207.3125 C-1155.20176575 3205.78938705 -1155.20176575 3205.78938705 -1154.64245605 3204.23550415 C-1152.0947058 3197.15709809 -1149.54730775 3190.07856531 -1147 3183 C-1144.08358459 3174.89574289 -1141.1669974 3166.79154765 -1138.25 3158.6875 C-1137.88483276 3157.6729776 -1137.51966553 3156.6584552 -1137.14343262 3155.6131897 C-1130.53480573 3137.2539401 -1123.91548074 3118.8985553 -1117.29434204 3100.54381561 C-1110.77409587 3082.46867691 -1104.257606 3064.39219445 -1097.75 3046.3125 C-1097.20176575 3044.78938705 -1097.20176575 3044.78938705 -1096.64245605 3043.23550415 C-1094.0947058 3036.15709809 -1091.54730775 3029.07856531 -1089 3022 C-1086.08358459 3013.89574289 -1083.1669974 3005.79154765 -1080.25 2997.6875 C-1079.88483276 2996.6729776 -1079.51966553 2995.6584552 -1079.14343262 2994.6131897 C-1072.53480573 2976.2539401 -1065.91548074 2957.8985553 -1059.29434204 2939.54381561 C-1052.77409587 2921.46867691 -1046.257606 2903.39219445 -1039.75 2885.3125 C-1039.20176575 2883.78938705 -1039.20176575 2883.78938705 -1038.64245605 2882.23550415 C-1036.0947058 2875.15709809 -1033.54730775 2868.07856531 -1031 2861 C-1028.08358459 2852.89574289 -1025.1669974 2844.79154765 -1022.25 2836.6875 C-1021.88483276 2835.6729776 -1021.51966553 2834.6584552 -1021.14343262 2833.6131897 C-1014.53480573 2815.2539401 -1007.91548074 2796.8985553 -1001.29434204 2778.54381561 C-994.77409587 2760.46867691 -988.257606 2742.39219445 -981.75 2724.3125 C-981.20176575 2722.78938705 -981.20176575 2722.78938705 -980.64245605 2721.23550415 C-978.0947058 2714.15709809 -975.54730775 2707.07856531 -973 2700 C-970.08358459 2691.89574289 -967.1669974 2683.79154765 -964.25 2675.6875 C-963.88483276 2674.6729776 -963.51966553 2673.6584552 -963.14343262 2672.6131897 C-956.53480573 2654.2539401 -949.91548074 2635.8985553 -943.29434204 2617.54381561 C-936.77409587 2599.46867691 -930.257606 2581.39219445 -923.75 2563.3125 C-923.20176575 2561.78938705 -923.20176575 2561.78938705 -922.64245605 2560.23550415 C-920.0947058 2553.15709809 -917.54730775 2546.07856531 -915 2539 C-912.08358459 2530.89574289 -909.1669974 2522.79154765 -906.25 2514.6875 C-905.88483276 2513.6729776 -905.51966553 2512.6584552 -905.14343262 2511.6131897 C-898.53480573 2493.2539401 -891.91548074 2474.8985553 -885.29434204 2456.54381561 C-878.77409587 2438.46867691 -872.257606 2420.39219445 -865.75 2402.3125 C-865.20176575 2400.78938705 -865.20176575 2400.78938705 -864.64245605 2399.23550415 C-862.0947058 2392.15709809 -859.54730775 2385.07856531 -857 2378 C-854.08358459 2369.89574289 -851.1669974 2361.79154765 -848.25 2353.6875 C-847.88483276 2352.6729776 -847.51966553 2351.6584552 -847.14343262 2350.6131897 C-840.53480573 2332.2539401 -833.91548074 2313.8985553 -827.29434204 2295.54381561 C-820.77409587 2277.46867691 -814.257606 2259.39219445 -807.75 2241.3125 C-807.20176575 2239.78938705 -807.20176575 2239.78938705 -806.64245605 2238.23550415 C-804.0947058 2231.15709809 -801.54730775 2224.07856531 -799 2217 C-796.08358459 2208.89574289 -793.1669974 2200.79154765 -790.25 2192.6875 C-789.88483276 2191.6729776 -789.51966553 2190.6584552 -789.14343262 2189.6131897 C-782.53480573 2171.2539401 -775.91548074 2152.8985553 -769.29434204 2134.54381561 C-762.77409587 2116.46867691 -756.257606 2098.39219445 -749.75 2080.3125 C-749.20176575 2078.78938705 -749.20176575 2078.78938705 -748.64245605 2077.23550415 C-746.0947058 2070.15709809 -743.54730775 2063.07856531 -741 2056 C-738.08358459 2047.89574289 -735.1669974 2039.79154765 -732.25 2031.6875 C-731.88483276 2030.6729776 -731.51966553 2029.6584552 -731.14343262 2028.6131897 C-724.53480573 2010.2539401 -717.91548074 1991.8985553 -711.29434204 1973.54381561 C-704.77409587 1955.46867691 -698.257606 1937.39219445 -691.75 1919.3125 C-691.3845105 1918.29709137 -691.019021 1917.28168274 -690.64245605 1916.23550415 C-688.0947058 1909.15709809 -685.54730775 1902.07856531 -683 1895 C-680.08358459 1886.89574289 -677.1669974 1878.79154765 -674.25 1870.6875 C-673.88483276 1869.6729776 -673.51966553 1868.6584552 -673.14343262 1867.6131897 C-666.53480573 1849.2539401 -659.91548074 1830.8985553 -653.29434204 1812.54381561 C-646.77409587 1794.46867691 -640.257606 1776.39219445 -633.75 1758.3125 C-633.3845105 1757.29709137 -633.019021 1756.28168274 -632.64245605 1755.23550415 C-630.0947058 1748.15709809 -627.54730775 1741.07856531 -625 1734 C-622.08358459 1725.89574289 -619.1669974 1717.79154765 -616.25 1709.6875 C-615.88483276 1708.6729776 -615.51966553 1707.6584552 -615.14343262 1706.6131897 C-608.53480573 1688.2539401 -601.91548074 1669.8985553 -595.29434204 1651.54381561 C-588.77409587 1633.46867691 -582.257606 1615.39219445 -575.75 1597.3125 C-575.3845105 1596.29709137 -575.019021 1595.28168274 -574.64245605 1594.23550415 C-572.0947058 1587.15709809 -569.54730775 1580.07856531 -567 1573 C-564.08358459 1564.89574289 -561.1669974 1556.79154765 -558.25 1548.6875 C-557.88483276 1547.6729776 -557.51966553 1546.6584552 -557.14343262 1545.6131897 C-550.53480573 1527.2539401 -543.91548074 1508.8985553 -537.29434204 1490.54381561 C-530.77409587 1472.46867691 -524.257606 1454.39219445 -517.75 1436.3125 C-517.3845105 1435.29709137 -517.019021 1434.28168274 -516.64245605 1433.23550415 C-514.0947058 1426.15709809 -511.54730775 1419.07856531 -509 1412 C-506.08358459 1403.89574289 -503.1669974 1395.79154765 -500.25 1387.6875 C-499.88483276 1386.6729776 -499.51966553 1385.6584552 -499.14343262 1384.6131897 C-492.53480573 1366.2539401 -485.91548074 1347.8985553 -479.29434204 1329.54381561 C-472.77409587 1311.46867691 -466.257606 1293.39219445 -459.75 1275.3125 C-459.3845105 1274.29709137 -459.019021 1273.28168274 -458.64245605 1272.23550415 C-456.0947058 1265.15709809 -453.54730775 1258.07856531 -451 1251 C-448.08358459 1242.89574289 -445.1669974 1234.79154765 -442.25 1226.6875 C-441.88483276 1225.6729776 -441.51966553 1224.6584552 -441.14343262 1223.6131897 C-434.53480573 1205.2539401 -427.91548074 1186.8985553 -421.29434204 1168.54381561 C-414.77409587 1150.46867691 -408.257606 1132.39219445 -401.75 1114.3125 C-401.3845105 1113.29709137 -401.019021 1112.28168274 -400.64245605 1111.23550415 C-398.0947058 1104.15709809 -395.54730775 1097.07856531 -393 1090 C-390.08358459 1081.89574289 -387.1669974 1073.79154765 -384.25 1065.6875 C-383.88483276 1064.6729776 -383.51966553 1063.6584552 -383.14343262 1062.6131897 C-376.53480573 1044.2539401 -369.91548074 1025.8985553 -363.29434204 1007.54381561 C-356.77409587 989.46867691 -350.257606 971.39219445 -343.75 953.3125 C-343.3845105 952.29709137 -343.019021 951.28168274 -342.64245605 950.23550415 C-340.0947058 943.15709809 -337.54730775 936.07856531 -335 929 C-332.08358459 920.89574289 -329.1669974 912.79154765 -326.25 904.6875 C-325.88483276 903.6729776 -325.51966553 902.6584552 -325.14343262 901.6131897 C-318.53480573 883.2539401 -311.91548074 864.8985553 -305.29434204 846.54381561 C-298.77409587 828.46867691 -292.257606 810.39219445 -285.75 792.3125 C-285.3845105 791.29709137 -285.019021 790.28168274 -284.64245605 789.23550415 C-282.0947058 782.15709809 -279.54730775 775.07856531 -277 768 C-274.08358459 759.89574289 -271.1669974 751.79154765 -268.25 743.6875 C-267.88483276 742.6729776 -267.51966553 741.6584552 -267.14343262 740.6131897 C-260.53480573 722.2539401 -253.91548074 703.8985553 -247.29434204 685.54381561 C-240.77409587 667.46867691 -234.257606 649.39219445 -227.75 631.3125 C-227.3845105 630.29709137 -227.019021 629.28168274 -226.64245605 628.23550415 C-224.0947058 621.15709809 -221.54730775 614.07856531 -219 607 C-216.08358459 598.89574289 -213.1669974 590.79154765 -210.25 582.6875 C-209.88483276 581.6729776 -209.51966553 580.6584552 -209.14343262 579.6131897 C-202.53480573 561.2539401 -195.91548074 542.8985553 -189.29434204 524.54381561 C-182.77409587 506.46867691 -176.257606 488.39219445 -169.75 470.3125 C-169.3845105 469.29709137 -169.019021 468.28168274 -168.64245605 467.23550415 C-166.0947058 460.15709809 -163.54730775 453.07856531 -161 446 C-158.08358459 437.89574289 -155.1669974 429.79154765 -152.25 421.6875 C-151.88483276 420.6729776 -151.51966553 419.6584552 -151.14343262 418.6131897 C-144.53480573 400.2539401 -137.91548074 381.8985553 -131.29434204 363.54381561 C-122.58146812 339.39037103 -113.88010589 315.23279761 -105.18554688 291.07275391 C-101.08134448 279.66843496 -96.9754376 268.2647295 -92.86987305 256.86090088 C-91.74136365 253.72628129 -90.612865 250.59165782 -89.484375 247.45703125 C-89.11231934 246.42356567 -88.74026367 245.3901001 -88.35693359 244.32531738 C-86.14682833 238.18610942 -83.93708724 232.04677053 -81.72766113 225.90731812 C-72.92589996 201.44944279 -64.1146633 176.99500265 -55.29434204 152.54381561 C-49.14245004 135.48981209 -42.99324252 118.43484921 -36.85299683 101.37664795 C-35.75769942 98.33388915 -34.66218804 95.29120746 -33.56665039 92.24853516 C-30.17840891 82.83720251 -26.7927062 73.42497 -23.41323853 64.01048279 C-21.80805424 59.53934186 -20.20162489 55.06864873 -18.59509277 50.59799194 C-17.84276454 48.50334528 -17.0910227 46.40848787 -16.33996582 44.31338501 C-15.8125177 42.84208633 -15.8125177 42.84208633 -15.27441406 41.34106445 C-14.97110168 40.49437698 -14.66778931 39.64768951 -14.35528564 38.77534485 C-9.68085083 25.80194374 -4.84384126 12.91691002 0 0 Z M611 1597 C608.11093379 1603.99035125 605.56044417 1611.04417088 603.18798828 1618.22485352 C602.82950302 1619.30162354 602.47101776 1620.37839355 602.10166931 1621.48779297 C600.92178259 1625.03391724 599.74610135 1628.58142138 598.5703125 1632.12890625 C597.7354891 1634.63966588 596.90039417 1637.15033347 596.06491089 1639.66087341 C593.86135164 1646.28419552 591.6615026 1652.90874538 589.46246338 1659.53356934 C585.7785038 1670.63170147 582.09050666 1681.72849263 578.39963818 1692.8243289 C577.96999993 1694.11598839 577.54040753 1695.40766313 577.11085987 1696.69935274 C571.90563683 1712.35155374 566.6662067 1727.99042652 561.3046875 1743.58984375 C554.8143077 1762.47885644 548.49775905 1781.42526421 542.1875 1800.375 C541.9222167 1801.17156281 541.65693339 1801.96812562 541.3836112 1802.7888267 C537.25312376 1815.19168049 533.12622259 1827.59572684 529 1840 C524.60609675 1853.20897623 520.21106286 1866.41757458 515.8125 1879.625 C515.54600521 1880.42527367 515.27951042 1881.22554733 515.00494003 1882.05007172 C508.81299573 1900.64293905 502.59654213 1919.22563037 496.22369385 1937.75744629 C490.09556253 1955.59105581 484.14529595 1973.48396647 478.1875 1991.375 C477.92189144 1992.17253441 477.65628288 1992.97006882 477.38262558 1993.79177094 C473.25245669 2006.19363998 469.12589592 2018.59670888 465 2031 C460.60609675 2044.20897623 456.21106286 2057.41757458 451.8125 2070.625 C451.54600521 2071.42527367 451.27951042 2072.22554733 451.00494003 2073.05007172 C444.81299573 2091.64293905 438.59654213 2110.22563037 432.22369385 2128.75744629 C426.09556253 2146.59105581 420.14529595 2164.48396647 414.1875 2182.375 C413.92189144 2183.17253441 413.65628288 2183.97006882 413.38262558 2184.79177094 C409.25245669 2197.19363998 405.12589592 2209.59670888 401 2222 C396.60609675 2235.20897623 392.21106286 2248.41757458 387.8125 2261.625 C387.54600521 2262.42527367 387.27951042 2263.22554733 387.00494003 2264.05007172 C380.81299573 2282.64293905 374.59654213 2301.22563037 368.22369385 2319.75744629 C362.09556253 2337.59105581 356.14529595 2355.48396647 350.1875 2373.375 C349.92189144 2374.17253441 349.65628288 2374.97006882 349.38262558 2375.79177094 C345.25245669 2388.19363998 341.12589592 2400.59670888 337 2413 C332.60609675 2426.20897623 328.21106286 2439.41757458 323.8125 2452.625 C323.54600521 2453.42527367 323.27951042 2454.22554733 323.00494003 2455.05007172 C316.81299573 2473.64293905 310.59654213 2492.22563037 304.22369385 2510.75744629 C298.09556253 2528.59105581 292.14529595 2546.48396647 286.1875 2564.375 C285.92189144 2565.17253441 285.65628288 2565.97006882 285.38262558 2566.79177094 C281.25245669 2579.19363998 277.12589592 2591.59670888 273 2604 C268.60609675 2617.20897623 264.21106242 2630.41757443 259.8125 2643.625 C259.54607885 2644.42505274 259.27965771 2645.22510548 259.00516319 2646.04940224 C252.80209499 2664.67567782 246.57435503 2683.29174098 240.19050598 2701.85700989 C234.14885432 2719.43955351 228.28004034 2737.07961705 222.40625 2754.71875 C222.1461187 2755.49985264 221.8859874 2756.28095528 221.61797333 2757.08572769 C217.57601963 2769.22294378 213.53767571 2781.36136021 209.5 2793.5 C205.19985011 2806.42772731 200.89864226 2819.35510099 196.59375 2832.28125 C196.33370823 2833.06212778 196.07366647 2833.84300555 195.80574465 2834.64754629 C189.54195377 2853.45547552 183.25136301 2872.25282387 176.81441879 2891.00236893 C169.41489155 2912.55596394 162.20165838 2934.17193353 154.99023438 2955.7890625 C152.98590892 2961.79642247 150.97595569 2967.80188533 148.96492958 2973.80700493 C147.40067611 2978.48124277 145.84039028 2983.15679773 144.28123093 2987.83273697 C143.54031374 2990.05246776 142.79790014 2992.27169967 142.05394363 2994.49041367 C141.02865328 2997.5493504 140.00897513 3000.61010133 138.99072266 3003.67138672 C138.53280083 3005.03133003 138.53280083 3005.03133003 138.06562805 3006.41874695 C137.7913649 3007.24710556 137.51710175 3008.07546417 137.23452759 3008.92892456 C136.87464972 3010.00635831 136.87464972 3010.00635831 136.5075016 3011.1055584 C135.87061724 3013.15609656 135.87061724 3013.15609656 136 3016 C444.88 3016 753.76 3016 1072 3016 C1070.06446988 3008.90305622 1068.07814114 3001.93297082 1065.76953125 2994.96484375 C1065.46265884 2994.03032883 1065.15578644 2993.0958139 1064.83961487 2992.13298035 C1064.17865843 2990.12045849 1063.51657295 2988.10830713 1062.85345459 2986.09649658 C1061.04021699 2980.59384409 1059.23657086 2975.08805279 1057.43359375 2969.58203125 C1057.06151794 2968.4459845 1056.68944214 2967.30993774 1056.30609131 2966.13946533 C1052.93033718 2955.81698569 1049.62352536 2945.47314735 1046.3296814 2935.1242981 C1039.44075573 2913.48153674 1032.38780041 2891.89559961 1025.28303146 2870.32303238 C1018.76331804 2850.52576582 1012.31299289 2830.70968856 1005.99414062 2810.84716797 C1000.26975346 2792.86255985 994.40067299 2774.92729766 988.5 2757 C981.92829952 2737.0339113 975.42515806 2717.04890123 969.05126953 2697.01855469 C963.30705845 2678.97708476 957.41944967 2660.98449243 951.5 2643 C944.92832156 2623.03390386 938.42515816 2603.04890154 932.05126953 2583.01855469 C926.08624471 2564.28355096 919.96440585 2545.60184025 913.81736374 2526.92602921 C907.82026588 2508.70453593 901.87805434 2490.46796661 896.0625 2472.1875 C889.82639669 2452.58555293 883.43461537 2433.0374169 877 2413.5 C870.24084322 2392.97717832 863.54462661 2372.43780017 856.99414062 2351.84716797 C851.26975346 2333.86255985 845.40067299 2315.92729766 839.5 2298 C832.92829952 2278.0339113 826.42515806 2258.04890123 820.05126953 2238.01855469 C814.30705845 2219.97708476 808.41944967 2201.98449243 802.5 2184 C795.92832156 2164.03390386 789.42515816 2144.04890154 783.05126953 2124.01855469 C777.30705845 2105.97708476 771.41944967 2087.98449243 765.5 2070 C758.92832156 2050.03390386 752.42515816 2030.04890154 746.05126953 2010.01855469 C740.08624471 1991.28355096 733.96440585 1972.60184025 727.81736374 1953.92602921 C721.82026588 1935.70453593 715.87805434 1917.46796661 710.0625 1899.1875 C703.82639669 1879.58555293 697.43461537 1860.0374169 691 1840.5 C684.24084322 1819.97717832 677.54462661 1799.43780017 670.99414062 1778.84716797 C665.26975286 1760.86255796 659.40055426 1742.92733798 653.5 1725 C646.47404811 1703.65275104 639.53365578 1682.28095203 632.7109375 1660.86767578 C625.91412373 1639.54363027 618.96563109 1618.2694031 612 1597 C611.67 1597 611.34 1597 611 1597 Z " fill="#FFFFFF" transform="translate(7374,3745)"/>
<path d="M0 0 C526.35 0 1052.7 0 1595 0 C1595 351.78 1595 703.56 1595 1066 C1418.12 1066 1241.24 1066 1059 1066 C1059 2684.98 1059 4303.96 1059 5972 C1235.88 5972 1412.76 5972 1595 5972 C1595 6323.45 1595 6674.9 1595 7037 C1068.65 7037 542.3 7037 0 7037 C0 4714.79 0 2392.58 0 0 Z " fill="#FFFFFF" transform="translate(1685,3112)"/>
<path d="M0 0 C526.02 0 1052.04 0 1594 0 C1594 2322.21 1594 4644.42 1594 7037 C1067.98 7037 541.96 7037 0 7037 C0 6685.55 0 6334.1 0 5972 C176.88 5972 353.76 5972 536 5972 C536 4353.02 536 2734.04 536 1066 C359.12 1066 182.24 1066 0 1066 C0 714.22 0 362.44 0 0 Z " fill="#FFFFFF" transform="translate(12658,3112)"/>
</svg>
